<?xml version="1.0" encoding="UTF-8"?><svg xmlns="http://www.w3.org/2000/svg" xmlns:xlink="http://www.w3.org/1999/xlink" fill-opacity="1" color-rendering="auto" color-interpolation="auto" text-rendering="auto" stroke="black" stroke-linecap="square" width="1347" stroke-miterlimit="10" shape-rendering="auto" stroke-opacity="1" fill="black" stroke-dasharray="none" font-weight="normal" stroke-width="1" height="912" font-family="'Dialog'" font-style="normal" stroke-linejoin="miter" font-size="12px" stroke-dashoffset="0" image-rendering="auto">
  <!--Generated by ySVG 2.5-->
  <defs id="genericDefs"/>
  <g>
    <defs id="defs1">
      <clipPath clipPathUnits="userSpaceOnUse" id="clipPath1">
        <path d="M0 0 L1347 0 L1347 912 L0 912 L0 0 Z"/>
      </clipPath>
      <clipPath clipPathUnits="userSpaceOnUse" id="clipPath2">
        <path d="M0 -20 L1204.52 -20 L1204.52 795.5325 L0 795.5325 L0 -20 Z"/>
      </clipPath>
    </defs>
    <g fill="white" text-rendering="geometricPrecision" shape-rendering="geometricPrecision" transform="scale(1.1183,1.1183) translate(0,20)" stroke="white">
      <rect x="0" width="1205" height="816" y="-20" clip-path="url(#clipPath2)" stroke="none"/>
    </g>
    <g id="y.node.0">
      <a target="_blank" xlink:type="simple" xlink:href="urn:string:md5:EF46AB5558CD7719D55FF85EA8C42CD1" xlink:show="new">
        <g fill="rgb(255,204,0)" text-rendering="geometricPrecision" shape-rendering="geometricPrecision" transform="matrix(1.1183,0,0,1.1183,0,22.3658)" stroke="rgb(255,204,0)">
          <rect x="195.0238" y="0" width="291.4707" rx="4" ry="4" height="30" stroke="none"/>
        </g>
        <g text-rendering="geometricPrecision" stroke-miterlimit="1.45" shape-rendering="geometricPrecision" transform="matrix(1.1183,0,0,1.1183,0,22.3658)" stroke-linecap="butt">
          <rect x="195.0238" y="0" fill="none" width="291.4707" rx="4" ry="4" height="30"/>
        </g>
        <g>
          <g text-rendering="geometricPrecision" stroke-miterlimit="1.45" shape-rendering="geometricPrecision" font-family="sans-serif" transform="matrix(1.1183,0,0,1.1183,0,22.3658)" stroke-linecap="butt">
            <text x="202.0238" xml:space="preserve" y="19.7139" stroke="none">Germanicus and Caius Fonteius Capito are consuls.</text>
          </g>
        </g>
      </a>
    </g>
    <g id="y.node.1">
      <a target="_blank" xlink:type="simple" xlink:href="urn:string:md5:9C399A1BA6A7E3CBAA83889A177F12D6" xlink:show="new">
        <g fill="rgb(255,204,0)" text-rendering="geometricPrecision" shape-rendering="geometricPrecision" transform="matrix(1.1183,0,0,1.1183,0,22.3658)" stroke="rgb(255,204,0)">
          <rect x="679.1972" y="0" width="124.7246" rx="4" ry="4" height="30" stroke="none"/>
        </g>
        <g text-rendering="geometricPrecision" stroke-miterlimit="1.45" shape-rendering="geometricPrecision" transform="matrix(1.1183,0,0,1.1183,0,22.3658)" stroke-linecap="butt">
          <rect x="679.1972" y="0" fill="none" width="124.7246" rx="4" ry="4" height="30"/>
        </g>
        <g>
          <g text-rendering="geometricPrecision" stroke-miterlimit="1.45" shape-rendering="geometricPrecision" font-family="sans-serif" transform="matrix(1.1183,0,0,1.1183,0,22.3658)" stroke-linecap="butt">
            <text x="686.1972" xml:space="preserve" y="19.7139" stroke="none">The birth of Caligula.</text>
          </g>
        </g>
      </a>
    </g>
    <g id="y.node.2">
      <a target="_blank" xlink:type="simple" xlink:href="urn:string:md5:9832F6456101B05C28D38157FDE2B9E7" xlink:show="new">
        <g fill="rgb(255,204,0)" text-rendering="geometricPrecision" shape-rendering="geometricPrecision" transform="matrix(1.1183,0,0,1.1183,0,22.3658)" stroke="rgb(255,204,0)">
          <rect x="42.3421" y="141" width="138.084" rx="4" ry="4" height="30" stroke="none"/>
        </g>
        <g text-rendering="geometricPrecision" stroke-miterlimit="1.45" shape-rendering="geometricPrecision" transform="matrix(1.1183,0,0,1.1183,0,22.3658)" stroke-linecap="butt">
          <rect x="42.3421" y="141" fill="none" width="138.084" rx="4" ry="4" height="30"/>
        </g>
        <g>
          <g text-rendering="geometricPrecision" stroke-miterlimit="1.45" shape-rendering="geometricPrecision" font-family="sans-serif" transform="matrix(1.1183,0,0,1.1183,0,22.3658)" stroke-linecap="butt">
            <text x="49.3421" xml:space="preserve" y="160.7139" stroke="none">The death of Augustus.</text>
          </g>
        </g>
      </a>
    </g>
    <g id="y.node.3">
      <a target="_blank" xlink:type="simple" xlink:href="#newreign" xlink:show="new">
        <g fill="rgb(255,204,0)" text-rendering="geometricPrecision" shape-rendering="geometricPrecision" transform="matrix(1.1183,0,0,1.1183,0,22.3658)" stroke="rgb(255,204,0)">
          <rect x="33.0228" y="191" width="156.7227" rx="4" ry="4" height="30" stroke="none"/>
        </g>
        <g text-rendering="geometricPrecision" stroke-miterlimit="1.45" shape-rendering="geometricPrecision" transform="matrix(1.1183,0,0,1.1183,0,22.3658)" stroke-linecap="butt">
          <rect x="33.0228" y="191" fill="none" width="156.7227" rx="4" ry="4" height="30"/>
        </g>
        <g>
          <g text-rendering="geometricPrecision" stroke-miterlimit="1.45" shape-rendering="geometricPrecision" font-family="sans-serif" transform="matrix(1.1183,0,0,1.1183,0,22.3658)" stroke-linecap="butt">
            <text x="40.0228" xml:space="preserve" y="210.7139" stroke="none">Tiberius becomes emperor</text>
          </g>
        </g>
      </a>
    </g>
    <g id="y.node.4">
      <a target="_blank" xlink:type="simple" xlink:href="urn:string:md5:25D4B12C85165511CD04FCF7B9C56633" xlink:show="new">
        <g fill="rgb(255,204,0)" text-rendering="geometricPrecision" shape-rendering="geometricPrecision" transform="matrix(1.1183,0,0,1.1183,0,22.3658)" stroke="rgb(255,204,0)">
          <rect x="20.0003" y="241" width="182.7676" rx="4" ry="4" height="30" stroke="none"/>
        </g>
        <g text-rendering="geometricPrecision" stroke-miterlimit="1.45" shape-rendering="geometricPrecision" transform="matrix(1.1183,0,0,1.1183,0,22.3658)" stroke-linecap="butt">
          <rect x="20.0003" y="241" fill="none" width="182.7676" rx="4" ry="4" height="30"/>
        </g>
        <g>
          <g text-rendering="geometricPrecision" stroke-miterlimit="1.45" shape-rendering="geometricPrecision" font-family="sans-serif" transform="matrix(1.1183,0,0,1.1183,0,22.3658)" stroke-linecap="butt">
            <text x="27.0003" xml:space="preserve" y="260.7139" stroke="none">The death of Postumus Agrippa</text>
          </g>
        </g>
      </a>
    </g>
    <g id="y.node.5">
      <a target="_blank" xlink:type="simple" xlink:href="urn:string:md5:EE5CB5AFB9B9560C689EA19577E3EC53" xlink:show="new">
        <g fill="rgb(255,204,0)" text-rendering="geometricPrecision" shape-rendering="geometricPrecision" transform="matrix(1.1183,0,0,1.1183,0,22.3658)" stroke="rgb(255,204,0)">
          <rect x="210.4264" y="141" width="288.1543" rx="4" ry="4" height="30" stroke="none"/>
        </g>
        <g text-rendering="geometricPrecision" stroke-miterlimit="1.45" shape-rendering="geometricPrecision" transform="matrix(1.1183,0,0,1.1183,0,22.3658)" stroke-linecap="butt">
          <rect x="210.4264" y="141" fill="none" width="288.1543" rx="4" ry="4" height="30"/>
        </g>
        <g>
          <g text-rendering="geometricPrecision" stroke-miterlimit="1.45" shape-rendering="geometricPrecision" font-family="sans-serif" transform="matrix(1.1183,0,0,1.1183,0,22.3658)" stroke-linecap="butt">
            <text x="217.4264" xml:space="preserve" y="160.7139" stroke="none">Sextus Pompeius and Sextus Apuleius are consuls.</text>
          </g>
        </g>
      </a>
    </g>
    <g id="y.node.6">
      <a target="_blank" xlink:type="simple" xlink:href="urn:string:md5:F66BF6315B292216B7D0BD4EBC0A9ADC" xlink:show="new">
        <g fill="rgb(255,204,0)" text-rendering="geometricPrecision" shape-rendering="geometricPrecision" transform="matrix(1.1183,0,0,1.1183,0,22.3658)" stroke="rgb(255,204,0)">
          <rect x="528.5809" y="141" width="119.3984" rx="4" ry="4" height="30" stroke="none"/>
        </g>
        <g text-rendering="geometricPrecision" stroke-miterlimit="1.45" shape-rendering="geometricPrecision" transform="matrix(1.1183,0,0,1.1183,0,22.3658)" stroke-linecap="butt">
          <rect x="528.5809" y="141" fill="none" width="119.3984" rx="4" ry="4" height="30"/>
        </g>
        <g>
          <g text-rendering="geometricPrecision" stroke-miterlimit="1.45" shape-rendering="geometricPrecision" font-family="sans-serif" transform="matrix(1.1183,0,0,1.1183,0,22.3658)" stroke-linecap="butt">
            <text x="535.5809" xml:space="preserve" y="160.7139" stroke="none">Mutiny in Pannonia.</text>
          </g>
        </g>
      </a>
    </g>
    <g id="y.node.7">
      <a target="_blank" xlink:type="simple" xlink:href="urn:string:md5:5E36A12355DFE9E087AD6905C83CE8E9" xlink:show="new">
        <g fill="rgb(255,204,0)" text-rendering="geometricPrecision" shape-rendering="geometricPrecision" transform="matrix(1.1183,0,0,1.1183,0,22.3658)" stroke="rgb(255,204,0)">
          <rect x="677.9794" y="141" width="118.0332" rx="4" ry="4" height="30" stroke="none"/>
        </g>
        <g text-rendering="geometricPrecision" stroke-miterlimit="1.45" shape-rendering="geometricPrecision" transform="matrix(1.1183,0,0,1.1183,0,22.3658)" stroke-linecap="butt">
          <rect x="677.9794" y="141" fill="none" width="118.0332" rx="4" ry="4" height="30"/>
        </g>
        <g>
          <g text-rendering="geometricPrecision" stroke-miterlimit="1.45" shape-rendering="geometricPrecision" font-family="sans-serif" transform="matrix(1.1183,0,0,1.1183,0,22.3658)" stroke-linecap="butt">
            <text x="684.9794" xml:space="preserve" y="160.7139" stroke="none">Mutiny in Germany.</text>
          </g>
        </g>
      </a>
    </g>
    <g id="y.node.8">
      <a target="_blank" xlink:type="simple" xlink:href="urn:string:md5:4AA7D5242C2C1690E3753EE48D9DCF9B" xlink:show="new">
        <g fill="rgb(255,204,0)" text-rendering="geometricPrecision" shape-rendering="geometricPrecision" transform="matrix(1.1183,0,0,1.1183,0,22.3658)" stroke="rgb(255,204,0)">
          <rect x="31.3353" y="291" width="160.0977" rx="4" ry="4" height="30" stroke="none"/>
        </g>
        <g text-rendering="geometricPrecision" stroke-miterlimit="1.45" shape-rendering="geometricPrecision" transform="matrix(1.1183,0,0,1.1183,0,22.3658)" stroke-linecap="butt">
          <rect x="31.3353" y="291" fill="none" width="160.0977" rx="4" ry="4" height="30"/>
        </g>
        <g>
          <g text-rendering="geometricPrecision" stroke-miterlimit="1.45" shape-rendering="geometricPrecision" font-family="sans-serif" transform="matrix(1.1183,0,0,1.1183,0,22.3658)" stroke-linecap="butt">
            <text x="38.3353" xml:space="preserve" y="310.7139" stroke="none">the death of Julia the Elder.</text>
          </g>
        </g>
      </a>
    </g>
    <g id="y.node.9">
      <a target="_blank" xlink:type="simple" xlink:href="urn:string:md5:B8FAC8CD78489A8ACBD9B0553D70EF71" xlink:show="new">
        <g fill="rgb(255,204,0)" text-rendering="geometricPrecision" shape-rendering="geometricPrecision" transform="matrix(1.1183,0,0,1.1183,0,22.3658)" stroke="rgb(255,204,0)">
          <rect x="826.0127" y="141" width="258.1484" rx="4" ry="4" height="30" stroke="none"/>
        </g>
        <g text-rendering="geometricPrecision" stroke-miterlimit="1.45" shape-rendering="geometricPrecision" transform="matrix(1.1183,0,0,1.1183,0,22.3658)" stroke-linecap="butt">
          <rect x="826.0127" y="141" fill="none" width="258.1484" rx="4" ry="4" height="30"/>
        </g>
        <g>
          <g text-rendering="geometricPrecision" stroke-miterlimit="1.45" shape-rendering="geometricPrecision" font-family="sans-serif" transform="matrix(1.1183,0,0,1.1183,0,22.3658)" stroke-linecap="butt">
            <text x="833.0127" xml:space="preserve" y="160.7139" stroke="none">The establishment of the Sodales Augustales.</text>
          </g>
        </g>
      </a>
    </g>
    <g id="y.node.10">
      <a target="_blank" xlink:type="simple" xlink:href="urn:string:md5:67D521C74636DAE30068C75EA707AAD7" xlink:show="new">
        <g fill="rgb(255,204,0)" text-rendering="geometricPrecision" shape-rendering="geometricPrecision" transform="matrix(1.1183,0,0,1.1183,0,22.3658)" stroke="rgb(255,204,0)">
          <rect x="450.8827" y="353" width="274.7949" rx="4" ry="4" height="30" stroke="none"/>
        </g>
        <g text-rendering="geometricPrecision" stroke-miterlimit="1.45" shape-rendering="geometricPrecision" transform="matrix(1.1183,0,0,1.1183,0,22.3658)" stroke-linecap="butt">
          <rect x="450.8827" y="353" fill="none" width="274.7949" rx="4" ry="4" height="30"/>
        </g>
        <g>
          <g text-rendering="geometricPrecision" stroke-miterlimit="1.45" shape-rendering="geometricPrecision" font-family="sans-serif" transform="matrix(1.1183,0,0,1.1183,0,22.3658)" stroke-linecap="butt">
            <text x="457.8827" xml:space="preserve" y="372.7139" stroke="none">Drusus Caesar and Caius Norbanus are consuls.</text>
          </g>
        </g>
      </a>
    </g>
    <g id="y.node.11">
      <a target="_blank" xlink:type="simple" xlink:href="urn:string:md5:2C81941D7092CBE8E568F80369F4B1DC" xlink:show="new">
        <g fill="rgb(255,204,0)" text-rendering="geometricPrecision" shape-rendering="geometricPrecision" transform="matrix(1.1183,0,0,1.1183,0,22.3658)" stroke="rgb(255,204,0)">
          <rect x="107.6344" y="414" width="298.8301" rx="4" ry="4" height="30" stroke="none"/>
        </g>
        <g text-rendering="geometricPrecision" stroke-miterlimit="1.45" shape-rendering="geometricPrecision" transform="matrix(1.1183,0,0,1.1183,0,22.3658)" stroke-linecap="butt">
          <rect x="107.6344" y="414" fill="none" width="298.8301" rx="4" ry="4" height="30"/>
        </g>
        <g>
          <g text-rendering="geometricPrecision" stroke-miterlimit="1.45" shape-rendering="geometricPrecision" font-family="sans-serif" transform="matrix(1.1183,0,0,1.1183,0,22.3658)" stroke-linecap="butt">
            <text x="114.6344" xml:space="preserve" y="433.7139" stroke="none">Sisenna Statilius Taurus and Lucius Libo are consuls.</text>
          </g>
        </g>
      </a>
    </g>
    <g id="y.node.12">
      <a target="_blank" xlink:type="simple" xlink:href="urn:string:md5:36418157406BAF4AEEBEBF6EBBD1694D" xlink:show="new">
        <g fill="rgb(255,204,0)" text-rendering="geometricPrecision" shape-rendering="geometricPrecision" transform="matrix(1.1183,0,0,1.1183,0,22.3658)" stroke="rgb(255,204,0)">
          <rect x="436.4646" y="414" width="133.4141" rx="4" ry="4" height="30" stroke="none"/>
        </g>
        <g text-rendering="geometricPrecision" stroke-miterlimit="1.45" shape-rendering="geometricPrecision" transform="matrix(1.1183,0,0,1.1183,0,22.3658)" stroke-linecap="butt">
          <rect x="436.4646" y="414" fill="none" width="133.4141" rx="4" ry="4" height="30"/>
        </g>
        <g>
          <g text-rendering="geometricPrecision" stroke-miterlimit="1.45" shape-rendering="geometricPrecision" font-family="sans-serif" transform="matrix(1.1183,0,0,1.1183,0,22.3658)" stroke-linecap="butt">
            <text x="443.4646" xml:space="preserve" y="433.7139" stroke="none">The Lydia earthquake.</text>
          </g>
        </g>
      </a>
    </g>
    <g id="y.node.13">
      <a target="_blank" xlink:type="simple" xlink:href="urn:string:md5:D971F547DB7B40F4C5F99D72B3391B2E" xlink:show="new">
        <g fill="rgb(255,204,0)" text-rendering="geometricPrecision" shape-rendering="geometricPrecision" transform="matrix(1.1183,0,0,1.1183,0,22.3658)" stroke="rgb(255,204,0)">
          <rect x="599.8789" y="414" width="147.0195" rx="4" ry="4" height="30" stroke="none"/>
        </g>
        <g text-rendering="geometricPrecision" stroke-miterlimit="1.45" shape-rendering="geometricPrecision" transform="matrix(1.1183,0,0,1.1183,0,22.3658)" stroke-linecap="butt">
          <rect x="599.8789" y="414" fill="none" width="147.0195" rx="4" ry="4" height="30"/>
        </g>
        <g>
          <g text-rendering="geometricPrecision" stroke-miterlimit="1.45" shape-rendering="geometricPrecision" font-family="sans-serif" transform="matrix(1.1183,0,0,1.1183,0,22.3658)" stroke-linecap="butt">
            <text x="606.8789" xml:space="preserve" y="433.7139" stroke="none">Tacfarinas' revolt begins.</text>
          </g>
        </g>
      </a>
    </g>
    <g id="y.node.14">
      <a target="_blank" xlink:type="simple" xlink:href="urn:string:md5:A12FFA657C8FD7FD55E4775972219A6D" xlink:show="new">
        <g fill="rgb(255,204,0)" text-rendering="geometricPrecision" shape-rendering="geometricPrecision" transform="matrix(1.1183,0,0,1.1183,0,22.3658)" stroke="rgb(255,204,0)">
          <rect x="776.8986" y="414" width="244.0977" rx="4" ry="4" height="30" stroke="none"/>
        </g>
        <g text-rendering="geometricPrecision" stroke-miterlimit="1.45" shape-rendering="geometricPrecision" transform="matrix(1.1183,0,0,1.1183,0,22.3658)" stroke-linecap="butt">
          <rect x="776.8986" y="414" fill="none" width="244.0977" rx="4" ry="4" height="30"/>
        </g>
        <g>
          <g text-rendering="geometricPrecision" stroke-miterlimit="1.45" shape-rendering="geometricPrecision" font-family="sans-serif" transform="matrix(1.1183,0,0,1.1183,0,22.3658)" stroke-linecap="butt">
            <text x="783.8986" xml:space="preserve" y="433.7139" stroke="none">Furius Camillus defeatsTacfarinas in battle.</text>
          </g>
        </g>
      </a>
    </g>
    <g id="y.node.15">
      <a target="_blank" xlink:type="simple" xlink:href="urn:string:md5:81E1F20AE5F890C5B15C43CA9E6B1509" xlink:show="new">
        <g fill="rgb(255,204,0)" text-rendering="geometricPrecision" shape-rendering="geometricPrecision" transform="matrix(1.1183,0,0,1.1183,0,22.3658)" stroke="rgb(255,204,0)">
          <rect x="388.7842" y="555" width="216.0898" rx="4" ry="4" height="30" stroke="none"/>
        </g>
        <g text-rendering="geometricPrecision" stroke-miterlimit="1.45" shape-rendering="geometricPrecision" transform="matrix(1.1183,0,0,1.1183,0,22.3658)" stroke-linecap="butt">
          <rect x="388.7842" y="555" fill="none" width="216.0898" rx="4" ry="4" height="30"/>
        </g>
        <g>
          <g text-rendering="geometricPrecision" stroke-miterlimit="1.45" shape-rendering="geometricPrecision" font-family="sans-serif" transform="matrix(1.1183,0,0,1.1183,0,22.3658)" stroke-linecap="butt">
            <text x="395.7842" xml:space="preserve" y="574.7139" stroke="none">Tiberius and Germanicus are consuls.</text>
          </g>
        </g>
      </a>
    </g>
    <g id="y.node.16">
      <a target="_blank" xlink:type="simple" xlink:href="urn:string:md5:60D139900322CB15E920ACBD5F5A2936" xlink:show="new">
        <g fill="rgb(255,204,0)" text-rendering="geometricPrecision" shape-rendering="geometricPrecision" transform="matrix(1.1183,0,0,1.1183,0,22.3658)" stroke="rgb(255,204,0)">
          <rect x="666.893" y="555" width="174.7637" rx="4" ry="4" height="30" stroke="none"/>
        </g>
        <g text-rendering="geometricPrecision" stroke-miterlimit="1.45" shape-rendering="geometricPrecision" transform="matrix(1.1183,0,0,1.1183,0,22.3658)" stroke-linecap="butt">
          <rect x="666.893" y="555" fill="none" width="174.7637" rx="4" ry="4" height="30"/>
        </g>
        <g>
          <g text-rendering="geometricPrecision" stroke-miterlimit="1.45" shape-rendering="geometricPrecision" font-family="sans-serif" transform="matrix(1.1183,0,0,1.1183,0,22.3658)" stroke-linecap="butt">
            <text x="673.8929" xml:space="preserve" y="574.7139" stroke="none">The birth of Julia the Younger.</text>
          </g>
        </g>
      </a>
    </g>
    <g id="y.node.17">
      <a target="_blank" xlink:type="simple" xlink:href="urn:string:md5:28CA2655630DC547FFB4D6546EBC709F" xlink:show="new">
        <g fill="rgb(255,204,0)" text-rendering="geometricPrecision" shape-rendering="geometricPrecision" transform="matrix(1.1183,0,0,1.1183,0,22.3658)" stroke="rgb(255,204,0)">
          <rect x="372.6052" y="632" width="280.8066" rx="4" ry="4" height="30" stroke="none"/>
        </g>
        <g text-rendering="geometricPrecision" stroke-miterlimit="1.45" shape-rendering="geometricPrecision" transform="matrix(1.1183,0,0,1.1183,0,22.3658)" stroke-linecap="butt">
          <rect x="372.6052" y="632" fill="none" width="280.8066" rx="4" ry="4" height="30"/>
        </g>
        <g>
          <g text-rendering="geometricPrecision" stroke-miterlimit="1.45" shape-rendering="geometricPrecision" font-family="sans-serif" transform="matrix(1.1183,0,0,1.1183,0,22.3658)" stroke-linecap="butt">
            <text x="379.6052" xml:space="preserve" y="651.7139" stroke="none">Marcus Silanus and Lucius Norbanus are consuls.</text>
          </g>
        </g>
      </a>
    </g>
    <g id="y.node.18">
      <a target="_blank" xlink:type="simple" xlink:href="urn:string:md5:4327D9144CC747AF10E9BD0E37F0D185" xlink:show="new">
        <g fill="rgb(255,204,0)" text-rendering="geometricPrecision" shape-rendering="geometricPrecision" transform="matrix(1.1183,0,0,1.1183,0,22.3658)" stroke="rgb(255,204,0)">
          <rect x="683.412" y="632" width="152.7383" rx="4" ry="4" height="30" stroke="none"/>
        </g>
        <g text-rendering="geometricPrecision" stroke-miterlimit="1.45" shape-rendering="geometricPrecision" transform="matrix(1.1183,0,0,1.1183,0,22.3658)" stroke-linecap="butt">
          <rect x="683.412" y="632" fill="none" width="152.7383" rx="4" ry="4" height="30"/>
        </g>
        <g>
          <g text-rendering="geometricPrecision" stroke-miterlimit="1.45" shape-rendering="geometricPrecision" font-family="sans-serif" transform="matrix(1.1183,0,0,1.1183,0,22.3658)" stroke-linecap="butt">
            <text x="690.412" xml:space="preserve" y="651.7139" stroke="none">The death of Germanicus.</text>
          </g>
        </g>
      </a>
    </g>
    <g id="y.node.19">
      <a target="_blank" xlink:type="simple" xlink:href="urn:string:md5:2633F7C138B2E2EDC620568CCD98A402" xlink:show="new">
        <g fill="rgb(255,204,0)" text-rendering="geometricPrecision" shape-rendering="geometricPrecision" transform="matrix(1.1183,0,0,1.1183,0,22.3658)" stroke="rgb(255,204,0)">
          <rect x="374.7777" y="709" width="272.1172" rx="4" ry="4" height="30" stroke="none"/>
        </g>
        <g text-rendering="geometricPrecision" stroke-miterlimit="1.45" shape-rendering="geometricPrecision" transform="matrix(1.1183,0,0,1.1183,0,22.3658)" stroke-linecap="butt">
          <rect x="374.7777" y="709" fill="none" width="272.1172" rx="4" ry="4" height="30"/>
        </g>
        <g>
          <g text-rendering="geometricPrecision" stroke-miterlimit="1.45" shape-rendering="geometricPrecision" font-family="sans-serif" transform="matrix(1.1183,0,0,1.1183,0,22.3658)" stroke-linecap="butt">
            <text x="381.7777" xml:space="preserve" y="728.7139" stroke="none">Marcus Valerius and Caius Aurelius are consuls.</text>
          </g>
        </g>
      </a>
    </g>
    <g id="y.node.20">
      <a target="_blank" xlink:type="simple" xlink:href="urn:string:md5:B7618044BD4A24828F357845F6C535CA" xlink:show="new">
        <g fill="rgb(255,204,0)" text-rendering="geometricPrecision" shape-rendering="geometricPrecision" transform="matrix(1.1183,0,0,1.1183,0,22.3658)" stroke="rgb(255,204,0)">
          <rect x="676.8949" y="709" width="162.0605" rx="4" ry="4" height="30" stroke="none"/>
        </g>
        <g text-rendering="geometricPrecision" stroke-miterlimit="1.45" shape-rendering="geometricPrecision" transform="matrix(1.1183,0,0,1.1183,0,22.3658)" stroke-linecap="butt">
          <rect x="676.8949" y="709" fill="none" width="162.0605" rx="4" ry="4" height="30"/>
        </g>
        <g>
          <g text-rendering="geometricPrecision" stroke-miterlimit="1.45" shape-rendering="geometricPrecision" font-family="sans-serif" transform="matrix(1.1183,0,0,1.1183,0,22.3658)" stroke-linecap="butt">
            <text x="683.8949" xml:space="preserve" y="728.7139" stroke="none">Tacfarinas renews hostilies.</text>
          </g>
        </g>
      </a>
    </g>
    <g id="y.node.21">
      <a target="_blank" xlink:type="simple" xlink:href="urn:string:md5:968514990801DF27D16AF3E5F34FDBE5" xlink:show="new">
        <g fill="rgb(255,204,0)" text-rendering="geometricPrecision" shape-rendering="geometricPrecision" transform="matrix(1.1183,0,0,1.1183,0,22.3658)" stroke="rgb(255,204,0)">
          <rect x="501.6591" y="770" clip-path="url(#clipPath2)" width="265.4434" rx="4" ry="4" height="30" stroke="none"/>
        </g>
        <g text-rendering="geometricPrecision" stroke-miterlimit="1.45" shape-rendering="geometricPrecision" transform="matrix(1.1183,0,0,1.1183,0,22.3658)" stroke-linecap="butt">
          <rect x="501.6591" y="770" clip-path="url(#clipPath2)" fill="none" width="265.4434" rx="4" ry="4" height="30"/>
        </g>
        <g>
          <g text-rendering="geometricPrecision" stroke-miterlimit="1.45" shape-rendering="geometricPrecision" font-family="sans-serif" transform="matrix(1.1183,0,0,1.1183,0,22.3658)" stroke-linecap="butt">
            <text x="508.6591" xml:space="preserve" y="789.7139" clip-path="url(#clipPath2)" stroke="none">Tiberius and Drusus Julius Caesar are consuls.</text>
          </g>
        </g>
      </a>
    </g>
    <g id="y.edge.0">
      <g text-rendering="geometricPrecision" stroke-miterlimit="1.45" shape-rendering="geometricPrecision" transform="matrix(1.1183,0,0,1.1183,0,22.3658)" stroke-linecap="butt">
        <path fill="none" d="M224.1709 30 L224.1709 45.5 L76.8631 45.5 L76.8631 132.9534"/>
        <path d="M76.8631 140.9534 L81.8631 128.9534 L76.8631 131.9534 L71.8631 128.9534 Z" stroke="none"/>
      </g>
    </g>
    <g id="y.edge.5">
      <g text-rendering="geometricPrecision" stroke-miterlimit="1.45" shape-rendering="geometricPrecision" transform="matrix(1.1183,0,0,1.1183,0,22.3658)" stroke-linecap="butt">
        <path fill="none" d="M691.6697 30 L691.6697 61.5 L145.9051 61.5 L145.9051 132.9612"/>
        <path d="M145.9051 140.9612 L150.9051 128.9612 L145.9051 131.9612 L140.9051 128.9612 Z" stroke="none"/>
      </g>
    </g>
    <g id="y.edge.111">
      <g text-rendering="geometricPrecision" stroke-miterlimit="1.45" shape-rendering="geometricPrecision" transform="matrix(1.1183,0,0,1.1183,0,22.3658)" stroke-linecap="butt">
        <path fill="none" d="M111.3841 171 L111.3841 182.9609"/>
        <path d="M111.3841 190.9609 L116.3841 178.9609 L111.3841 181.9609 L106.3841 178.9609 Z" stroke="none"/>
      </g>
    </g>
    <g id="y.edge.112">
      <g text-rendering="geometricPrecision" stroke-miterlimit="1.45" shape-rendering="geometricPrecision" transform="matrix(1.1183,0,0,1.1183,0,22.3658)" stroke-linecap="butt">
        <path fill="none" d="M111.3841 221 L111.3841 232.9609"/>
        <path d="M111.3841 240.9609 L116.3841 228.9609 L111.3841 231.9609 L106.3841 228.9609 Z" stroke="none"/>
      </g>
    </g>
    <g id="y.edge.1">
      <g text-rendering="geometricPrecision" stroke-miterlimit="1.45" shape-rendering="geometricPrecision" transform="matrix(1.1183,0,0,1.1183,0,22.3658)" stroke-linecap="butt">
        <path fill="none" d="M282.465 30 L282.465 56.5 Q287.465 56.5 287.465 61.5 Q287.465 66.5 282.465 66.5 L282.465 132.9729"/>
        <path d="M282.465 140.9729 L287.465 128.9729 L282.465 131.9729 L277.465 128.9729 Z" stroke="none"/>
      </g>
    </g>
    <g id="y.edge.6">
      <g text-rendering="geometricPrecision" stroke-miterlimit="1.45" shape-rendering="geometricPrecision" transform="matrix(1.1183,0,0,1.1183,0,22.3658)" stroke-linecap="butt">
        <path fill="none" d="M716.6146 30 L716.6146 93.5 L426.5421 93.5 L426.5421 132.9536"/>
        <path d="M426.5421 140.9536 L431.5421 128.9536 L426.5421 131.9536 L421.5421 128.9536 Z" stroke="none"/>
      </g>
    </g>
    <g id="y.edge.2">
      <g text-rendering="geometricPrecision" stroke-miterlimit="1.45" shape-rendering="geometricPrecision" transform="matrix(1.1183,0,0,1.1183,0,22.3658)" stroke-linecap="butt">
        <path fill="none" d="M340.7591 30 L340.7591 56.5 Q345.7591 56.5 345.7591 61.5 Q345.7591 66.5 340.7591 66.5 L340.7591 125.5 L421.5421 125.5 Q421.5421 120.5 426.5421 120.5 Q431.5421 120.5 431.5421 125.5 L558.4305 125.5 L558.4305 132.9697"/>
        <path d="M558.4305 140.9697 L563.4305 128.9697 L558.4305 131.9697 L553.4305 128.9697 Z" stroke="none"/>
      </g>
    </g>
    <g id="y.edge.7">
      <g text-rendering="geometricPrecision" stroke-miterlimit="1.45" shape-rendering="geometricPrecision" transform="matrix(1.1183,0,0,1.1183,0,22.3658)" stroke-linecap="butt">
        <path fill="none" d="M741.5595 30 L741.5595 125.5 L618.1298 125.5 L618.1298 132.9697"/>
        <path d="M618.1298 140.9697 L623.1298 128.9697 L618.1298 131.9697 L613.1298 128.9697 Z" stroke="none"/>
      </g>
    </g>
    <g id="y.edge.3">
      <g text-rendering="geometricPrecision" stroke-miterlimit="1.45" shape-rendering="geometricPrecision" transform="matrix(1.1183,0,0,1.1183,0,22.3658)" stroke-linecap="butt">
        <path fill="none" d="M399.0533 30 L399.0533 56.5 Q404.0533 56.5 404.0533 61.5 Q404.0533 66.5 399.0533 66.5 L399.0533 109.5 L421.5421 109.5 Q421.5421 104.5 426.5421 104.5 Q431.5421 104.5 431.5421 109.5 L707.4877 109.5 L707.4877 120.5 Q712.4877 120.5 712.4877 125.5 Q712.4877 130.5 707.4877 130.5 L707.4877 132.9692"/>
        <path d="M707.4877 140.9692 L712.4877 128.9692 L707.4877 131.9692 L702.4877 128.9692 Z" stroke="none"/>
      </g>
    </g>
    <g id="y.edge.8">
      <g text-rendering="geometricPrecision" stroke-miterlimit="1.45" shape-rendering="geometricPrecision" transform="matrix(1.1183,0,0,1.1183,0,22.3658)" stroke-linecap="butt">
        <path fill="none" d="M766.5045 30 L766.5043 132.9729"/>
        <path d="M766.5043 140.9729 L771.5043 128.9729 L766.5043 131.9729 L761.5043 128.9729 Z" stroke="none"/>
      </g>
    </g>
    <g id="y.edge.113">
      <g text-rendering="geometricPrecision" stroke-miterlimit="1.45" shape-rendering="geometricPrecision" transform="matrix(1.1183,0,0,1.1183,0,22.3658)" stroke-linecap="butt">
        <path fill="none" d="M111.3841 271 L111.3841 282.9609"/>
        <path d="M111.3841 290.9609 L116.3841 278.9609 L111.3841 281.9609 L106.3841 278.9609 Z" stroke="none"/>
      </g>
    </g>
    <g id="y.edge.4">
      <g text-rendering="geometricPrecision" stroke-miterlimit="1.45" shape-rendering="geometricPrecision" transform="matrix(1.1183,0,0,1.1183,0,22.3658)" stroke-linecap="butt">
        <path fill="none" d="M457.3474 30 L457.3474 56.5 Q462.3474 56.5 462.3474 61.5 L462.3474 61.5 Q462.3474 66.5 457.3474 66.5 L457.3474 77.5 L711.6146 77.5 Q711.6146 72.5 716.6146 72.5 Q721.6146 72.5 721.6146 77.5 L736.5595 77.5 Q736.5595 72.5 741.5595 72.5 Q746.5595 72.5 746.5595 77.5 L761.5044 77.5 Q761.5044 72.5 766.5044 72.5 Q771.5044 72.5 771.5044 77.5 L890.5498 77.5 L890.5498 132.969"/>
        <path d="M890.5498 140.969 L895.5498 128.969 L890.5498 131.969 L885.5498 128.969 Z" stroke="none"/>
      </g>
    </g>
    <g id="y.edge.9">
      <g text-rendering="geometricPrecision" stroke-miterlimit="1.45" shape-rendering="geometricPrecision" transform="matrix(1.1183,0,0,1.1183,0,22.3658)" stroke-linecap="butt">
        <path fill="none" d="M791.4493 30 L791.4493 45.5 L1019.624 45.5 L1019.624 132.9534"/>
        <path d="M1019.624 140.9534 L1024.624 128.9534 L1019.624 131.9534 L1014.624 128.9534 Z" stroke="none"/>
      </g>
    </g>
    <g id="y.edge.10">
      <g text-rendering="geometricPrecision" stroke-miterlimit="1.45" shape-rendering="geometricPrecision" transform="matrix(1.1183,0,0,1.1183,0,22.3658)" stroke-linecap="butt">
        <path fill="none" d="M354.5036 171 L354.5036 321.5 L533.3212 321.5 L533.3212 344.9692"/>
        <path d="M533.3212 352.9692 L538.3212 340.9692 L533.3212 343.9692 L528.3212 340.9692 Z" stroke="none"/>
      </g>
    </g>
    <g id="y.edge.11">
      <g text-rendering="geometricPrecision" stroke-miterlimit="1.45" shape-rendering="geometricPrecision" transform="matrix(1.1183,0,0,1.1183,0,22.3658)" stroke-linecap="butt">
        <path fill="none" d="M588.2802 171 L588.2802 344.9556"/>
        <path d="M588.2802 352.9556 L593.2802 340.9556 L588.2802 343.9556 L583.2802 340.9556 Z" stroke="none"/>
      </g>
    </g>
    <g id="y.edge.12">
      <g text-rendering="geometricPrecision" stroke-miterlimit="1.45" shape-rendering="geometricPrecision" transform="matrix(1.1183,0,0,1.1183,0,22.3658)" stroke-linecap="butt">
        <path fill="none" d="M736.996 171 L736.996 321.5 L643.2391 321.5 L643.2391 344.9692"/>
        <path d="M643.2391 352.9692 L648.2391 340.9692 L643.2391 343.9692 L638.2391 340.9692 Z" stroke="none"/>
      </g>
    </g>
    <g id="y.edge.13">
      <g text-rendering="geometricPrecision" stroke-miterlimit="1.45" shape-rendering="geometricPrecision" transform="matrix(1.1183,0,0,1.1183,0,22.3658)" stroke-linecap="butt">
        <path fill="none" d="M111.3841 321 L111.3841 337.5 L478.3622 337.5 L478.3622 344.9697"/>
        <path d="M478.3622 352.9697 L483.3622 340.9697 L478.3622 343.9697 L473.3622 340.9697 Z" stroke="none"/>
      </g>
    </g>
    <g id="y.edge.14">
      <g text-rendering="geometricPrecision" stroke-miterlimit="1.45" shape-rendering="geometricPrecision" transform="matrix(1.1183,0,0,1.1183,0,22.3658)" stroke-linecap="butt">
        <path fill="none" d="M955.0869 171 L955.0869 337.5 L698.1981 337.5 L698.1981 344.9697"/>
        <path d="M698.1981 352.9697 L703.1981 340.9697 L698.1981 343.9697 L693.1981 340.9697 Z" stroke="none"/>
      </g>
    </g>
    <g id="y.edge.15">
      <g text-rendering="geometricPrecision" stroke-miterlimit="1.45" shape-rendering="geometricPrecision" transform="matrix(1.1183,0,0,1.1183,0,22.3658)" stroke-linecap="butt">
        <path fill="none" d="M485.2321 383 L485.2321 398.5 L257.0494 398.5 L257.0494 405.9697"/>
        <path d="M257.0494 413.9697 L262.0494 401.9697 L257.0494 404.9697 L252.0494 401.9697 Z" stroke="none"/>
      </g>
    </g>
    <g id="y.edge.16">
      <g text-rendering="geometricPrecision" stroke-miterlimit="1.45" shape-rendering="geometricPrecision" transform="matrix(1.1183,0,0,1.1183,0,22.3658)" stroke-linecap="butt">
        <path fill="none" d="M553.9308 383 L553.9308 398.5 L503.1716 398.5 L503.1716 405.9697"/>
        <path d="M503.1716 413.9697 L508.1716 401.9697 L503.1716 404.9697 L498.1716 401.9697 Z" stroke="none"/>
      </g>
    </g>
    <g id="y.edge.17">
      <g text-rendering="geometricPrecision" stroke-miterlimit="1.45" shape-rendering="geometricPrecision" transform="matrix(1.1183,0,0,1.1183,0,22.3658)" stroke-linecap="butt">
        <path fill="none" d="M622.6295 383 L622.6295 398.5 L673.3887 398.5 L673.3887 405.9697"/>
        <path d="M673.3887 413.9697 L678.3887 401.9697 L673.3887 404.9697 L668.3887 401.9697 Z" stroke="none"/>
      </g>
    </g>
    <g id="y.edge.18">
      <g text-rendering="geometricPrecision" stroke-miterlimit="1.45" shape-rendering="geometricPrecision" transform="matrix(1.1183,0,0,1.1183,0,22.3658)" stroke-linecap="butt">
        <path fill="none" d="M691.3282 383 L691.3282 398.5 L898.9474 398.5 L898.9474 405.9697"/>
        <path d="M898.9474 413.9697 L903.9474 401.9697 L898.9474 404.9697 L893.9474 401.9697 Z" stroke="none"/>
      </g>
    </g>
    <g id="y.edge.19">
      <g text-rendering="geometricPrecision" stroke-miterlimit="1.45" shape-rendering="geometricPrecision" transform="matrix(1.1183,0,0,1.1183,0,22.3658)" stroke-linecap="butt">
        <path fill="none" d="M182.3419 444 L182.3419 523.5 L415.7955 523.5 L415.7955 546.9692"/>
        <path d="M415.7955 554.9692 L420.7955 542.9692 L415.7955 545.9692 L410.7955 542.9692 Z" stroke="none"/>
      </g>
    </g>
    <g id="y.edge.21">
      <g text-rendering="geometricPrecision" stroke-miterlimit="1.45" shape-rendering="geometricPrecision" transform="matrix(1.1183,0,0,1.1183,0,22.3658)" stroke-linecap="butt">
        <path fill="none" d="M469.8181 444 L469.818 546.9729"/>
        <path d="M469.8179 554.9729 L474.818 542.9729 L469.818 545.9729 L464.818 542.9729 Z" stroke="none"/>
      </g>
    </g>
    <g id="y.edge.23">
      <g text-rendering="geometricPrecision" stroke-miterlimit="1.45" shape-rendering="geometricPrecision" transform="matrix(1.1183,0,0,1.1183,0,22.3658)" stroke-linecap="butt">
        <path fill="none" d="M636.6338 444 L636.6338 491.5 L523.8404 491.5 L523.8404 546.969"/>
        <path d="M523.8404 554.969 L528.8404 542.969 L523.8404 545.969 L518.8404 542.969 Z" stroke="none"/>
      </g>
    </g>
    <g id="y.edge.25">
      <g text-rendering="geometricPrecision" stroke-miterlimit="1.45" shape-rendering="geometricPrecision" transform="matrix(1.1183,0,0,1.1183,0,22.3658)" stroke-linecap="butt">
        <path fill="none" d="M837.923 444 L837.923 523.5 L577.8629 523.5 L577.8629 546.9692"/>
        <path d="M577.8629 554.9692 L582.8629 542.9692 L577.8629 545.9692 L572.8629 542.9692 Z" stroke="none"/>
      </g>
    </g>
    <g id="y.edge.20">
      <g text-rendering="geometricPrecision" stroke-miterlimit="1.45" shape-rendering="geometricPrecision" transform="matrix(1.1183,0,0,1.1183,0,22.3658)" stroke-linecap="butt">
        <path fill="none" d="M331.7569 444 L331.7569 507.5 L464.818 507.5 Q464.818 502.5 469.818 502.5 Q474.818 502.5 474.818 507.5 L518.8404 507.5 Q518.8404 502.5 523.8404 502.5 Q528.8404 502.5 528.8404 507.5 L688.7384 507.5 L688.7384 518.5 Q693.7384 518.5 693.7384 523.5 Q693.7384 528.5 688.7384 528.5 L688.7384 546.9536"/>
        <path d="M688.7384 554.9536 L693.7384 542.9536 L688.7384 545.9536 L683.7384 542.9536 Z" stroke="none"/>
      </g>
    </g>
    <g id="y.edge.22">
      <g text-rendering="geometricPrecision" stroke-miterlimit="1.45" shape-rendering="geometricPrecision" transform="matrix(1.1183,0,0,1.1183,0,22.3658)" stroke-linecap="butt">
        <path fill="none" d="M536.5251 444 L536.5251 475.5 L631.6338 475.5 Q631.6338 470.5 636.6338 470.5 Q641.6338 470.5 641.6338 475.5 L732.4293 475.5 L732.4293 518.5 Q737.4293 518.5 737.4293 523.5 Q737.4293 528.5 732.4293 528.5 L732.4293 546.9612"/>
        <path d="M732.4293 554.9612 L737.4293 542.9612 L732.4293 545.9612 L727.4293 542.9612 Z" stroke="none"/>
      </g>
    </g>
    <g id="y.edge.24">
      <g text-rendering="geometricPrecision" stroke-miterlimit="1.45" shape-rendering="geometricPrecision" transform="matrix(1.1183,0,0,1.1183,0,22.3658)" stroke-linecap="butt">
        <path fill="none" d="M710.1436 444 L710.1436 459.5 L776.1202 459.5 L776.1202 518.5 Q781.1202 518.5 781.1202 523.5 Q781.1202 528.5 776.1202 528.5 L776.1202 546.9534"/>
        <path d="M776.1202 554.9534 L781.1202 542.9534 L776.1202 545.9534 L771.1202 542.9534 Z" stroke="none"/>
      </g>
    </g>
    <g id="y.edge.26">
      <g text-rendering="geometricPrecision" stroke-miterlimit="1.45" shape-rendering="geometricPrecision" transform="matrix(1.1183,0,0,1.1183,0,22.3658)" stroke-linecap="butt">
        <path fill="none" d="M959.9719 444 L959.9719 539.5 L819.8112 539.5 L819.8112 546.9697"/>
        <path d="M819.8112 554.9697 L824.8112 542.9697 L819.8112 545.9697 L814.8112 542.9697 Z" stroke="none"/>
      </g>
    </g>
    <g id="y.edge.27">
      <g text-rendering="geometricPrecision" stroke-miterlimit="1.45" shape-rendering="geometricPrecision" transform="matrix(1.1183,0,0,1.1183,0,22.3658)" stroke-linecap="butt">
        <path fill="none" d="M442.8067 585 L442.8069 623.9541"/>
        <path d="M442.8069 631.9541 L447.8068 619.9541 L442.8069 622.9541 L437.8069 619.9541 Z" stroke="none"/>
      </g>
    </g>
    <g id="y.edge.29">
      <g text-rendering="geometricPrecision" stroke-miterlimit="1.45" shape-rendering="geometricPrecision" transform="matrix(1.1183,0,0,1.1183,0,22.3658)" stroke-linecap="butt">
        <path fill="none" d="M710.5839 585 L710.5839 600.5 L583.2102 600.5 L583.2102 623.9692"/>
        <path d="M583.2102 631.9692 L588.2102 619.9692 L583.2102 622.9692 L578.2102 619.9692 Z" stroke="none"/>
      </g>
    </g>
    <g id="y.edge.28">
      <g text-rendering="geometricPrecision" stroke-miterlimit="1.45" shape-rendering="geometricPrecision" transform="matrix(1.1183,0,0,1.1183,0,22.3658)" stroke-linecap="butt">
        <path fill="none" d="M550.8516 585 L550.8516 616.5 L578.2102 616.5 Q578.2102 611.5 583.2102 611.5 Q588.2102 611.5 588.2102 616.5 L721.5966 616.5 L721.5966 623.9697"/>
        <path d="M721.5966 631.9697 L726.5966 619.9697 L721.5966 622.9697 L716.5966 619.9697 Z" stroke="none"/>
      </g>
    </g>
    <g id="y.edge.30">
      <g text-rendering="geometricPrecision" stroke-miterlimit="1.45" shape-rendering="geometricPrecision" transform="matrix(1.1183,0,0,1.1183,0,22.3658)" stroke-linecap="butt">
        <path fill="none" d="M797.9657 585 L797.9657 623.9541"/>
        <path d="M797.9657 631.9541 L802.9657 619.9541 L797.9657 622.9541 L792.9657 619.9541 Z" stroke="none"/>
      </g>
    </g>
    <g id="y.edge.31">
      <g text-rendering="geometricPrecision" stroke-miterlimit="1.45" shape-rendering="geometricPrecision" transform="matrix(1.1183,0,0,1.1183,0,22.3658)" stroke-linecap="butt">
        <path fill="none" d="M442.8069 662 L442.807 700.9541"/>
        <path d="M442.807 708.9541 L447.8069 696.9541 L442.807 699.9541 L437.807 696.9541 Z" stroke="none"/>
      </g>
    </g>
    <g id="y.edge.33">
      <g text-rendering="geometricPrecision" stroke-miterlimit="1.45" shape-rendering="geometricPrecision" transform="matrix(1.1183,0,0,1.1183,0,22.3658)" stroke-linecap="butt">
        <path fill="none" d="M721.5966 662 L721.5966 677.5 L578.8656 677.5 L578.8656 700.9692"/>
        <path d="M578.8656 708.9692 L583.8656 696.9692 L578.8656 699.9692 L573.8656 696.9692 Z" stroke="none"/>
      </g>
    </g>
    <g id="y.edge.32">
      <g text-rendering="geometricPrecision" stroke-miterlimit="1.45" shape-rendering="geometricPrecision" transform="matrix(1.1183,0,0,1.1183,0,22.3658)" stroke-linecap="butt">
        <path fill="none" d="M583.2102 662 L583.2102 672.5 Q588.2102 672.5 588.2102 677.5 Q588.2102 682.5 583.2102 682.5 L583.2102 693.5 L717.41 693.5 L717.41 700.9697"/>
        <path d="M717.41 708.9697 L722.41 696.9697 L717.41 699.9697 L712.41 696.9697 Z" stroke="none"/>
      </g>
    </g>
    <g id="y.edge.34">
      <g text-rendering="geometricPrecision" stroke-miterlimit="1.45" shape-rendering="geometricPrecision" transform="matrix(1.1183,0,0,1.1183,0,22.3658)" stroke-linecap="butt">
        <path fill="none" d="M797.9657 662 L797.9657 677.5 L798.4403 677.5 L798.4403 700.9692"/>
        <path d="M798.4403 708.9692 L803.4403 696.9692 L798.4403 699.9692 L793.4403 696.9692 Z" stroke="none"/>
      </g>
    </g>
    <g id="y.edge.35">
      <g text-rendering="geometricPrecision" stroke-miterlimit="1.45" shape-rendering="geometricPrecision" transform="matrix(1.1183,0,0,1.1183,0,22.3658)" stroke-linecap="butt">
        <path fill="none" d="M510.8363 739 L510.8363 754.5 L568.0199 754.5 L568.0199 761.9697"/>
        <path d="M568.0199 769.9697 L573.0199 757.9697 L568.0199 760.9697 L563.0199 757.9697 Z" stroke="none"/>
      </g>
    </g>
    <g id="y.edge.36">
      <g text-rendering="geometricPrecision" stroke-miterlimit="1.45" shape-rendering="geometricPrecision" transform="matrix(1.1183,0,0,1.1183,0,22.3658)" stroke-linecap="butt">
        <path fill="none" d="M757.9252 739 L757.9252 754.5 L700.7416 754.5 L700.7416 761.9697"/>
        <path d="M700.7416 769.9697 L705.7416 757.9697 L700.7416 760.9697 L695.7416 757.9697 Z" stroke="none"/>
      </g>
    </g>
    <g id="y.edge.37">
      <g text-rendering="geometricPrecision" stroke-miterlimit="1.45" shape-rendering="geometricPrecision" transform="matrix(1.1183,0,0,1.1183,0,22.3658)" stroke-linecap="butt">
        <path fill="none" d="M634.3807 800 L634.3807 811.9609" clip-path="url(#clipPath2)"/>
        <path d="M634.3807 819.9609 L639.3807 807.9609 L634.3807 810.9609 L629.3807 807.9609 Z" clip-path="url(#clipPath2)" stroke="none"/>
      </g>
    </g>
  </g>
</svg>
