<?xml version="1.0" encoding="UTF-8"?><svg xmlns="http://www.w3.org/2000/svg" xmlns:xlink="http://www.w3.org/1999/xlink" fill-opacity="1" color-rendering="auto" color-interpolation="auto" text-rendering="auto" stroke="black" stroke-linecap="square" width="1377" stroke-miterlimit="10" shape-rendering="auto" stroke-opacity="1" fill="black" stroke-dasharray="none" font-weight="normal" stroke-width="1" height="912" font-family="'Dialog'" font-style="normal" stroke-linejoin="miter" font-size="12px" stroke-dashoffset="0" image-rendering="auto">
  <!--Generated by ySVG 2.5-->
  <defs id="genericDefs"/>
  <g>
    <defs id="defs1">
      <clipPath clipPathUnits="userSpaceOnUse" id="clipPath1">
        <path d="M0 0 L1377 0 L1377 912 L0 912 L0 0 Z"/>
      </clipPath>
      <clipPath clipPathUnits="userSpaceOnUse" id="clipPath2">
        <path d="M2484 -24 L3703.8958 -24 L3703.8958 783.9484 L2484 783.9484 L2484 -24 Z"/>
      </clipPath>
    </defs>
    <g fill="white" text-rendering="geometricPrecision" shape-rendering="geometricPrecision" transform="scale(1.1288,1.1288) translate(-2484,24)" stroke="white">
      <rect x="2484" width="1220" height="808" y="-24" clip-path="url(#clipPath2)" stroke="none"/>
    </g>
    <g fill="rgb(255,204,0)" text-rendering="geometricPrecision" shape-rendering="geometricPrecision" transform="matrix(1.1288,0,0,1.1288,-2803.9018,27.0908)" stroke="rgb(255,204,0)">
      <rect x="3191.5819" y="497" clip-path="url(#clipPath2)" width="142.7188" rx="4" ry="4" height="30" stroke="none"/>
    </g>
    <g text-rendering="geometricPrecision" stroke-miterlimit="1.45" shape-rendering="geometricPrecision" transform="matrix(1.1288,0,0,1.1288,-2803.9018,27.0908)" stroke-linecap="butt">
      <rect x="3191.5819" y="497" clip-path="url(#clipPath2)" fill="none" width="142.7188" rx="4" ry="4" height="30"/>
      <text x="3198.5818" xml:space="preserve" y="516.7139" clip-path="url(#clipPath2)" font-family="sans-serif" stroke="none">The birth of Germanicus</text>
    </g>
    <g fill="rgb(255,204,0)" text-rendering="geometricPrecision" shape-rendering="geometricPrecision" transform="matrix(1.1288,0,0,1.1288,-2803.9018,27.0908)" stroke="rgb(255,204,0)">
      <rect x="2993.3975" y="670" clip-path="url(#clipPath2)" width="149.4043" rx="4" ry="4" height="30" stroke="none"/>
    </g>
    <g text-rendering="geometricPrecision" stroke-miterlimit="1.45" shape-rendering="geometricPrecision" transform="matrix(1.1288,0,0,1.1288,-2803.9018,27.0908)" stroke-linecap="butt">
      <rect x="2993.3975" y="670" clip-path="url(#clipPath2)" fill="none" width="149.4043" rx="4" ry="4" height="30"/>
      <text x="3000.3975" xml:space="preserve" y="689.7139" clip-path="url(#clipPath2)" font-family="sans-serif" stroke="none">The death of Germanicus</text>
    </g>
    <g fill="rgb(255,204,0)" text-rendering="geometricPrecision" shape-rendering="geometricPrecision" transform="matrix(1.1288,0,0,1.1288,-2803.9018,27.0908)" stroke="rgb(255,204,0)">
      <rect x="2552.4384" y="215" clip-path="url(#clipPath2)" width="128.0645" rx="4" ry="4" height="30" stroke="none"/>
    </g>
    <g text-rendering="geometricPrecision" stroke-miterlimit="1.45" shape-rendering="geometricPrecision" transform="matrix(1.1288,0,0,1.1288,-2803.9018,27.0908)" stroke-linecap="butt">
      <rect x="2552.4384" y="215" clip-path="url(#clipPath2)" fill="none" width="128.0645" rx="4" ry="4" height="30"/>
      <text x="2559.4385" xml:space="preserve" y="234.7139" clip-path="url(#clipPath2)" font-family="sans-serif" stroke="none">The birth of Augustus</text>
    </g>
    <g fill="rgb(255,204,0)" text-rendering="geometricPrecision" shape-rendering="geometricPrecision" transform="matrix(1.1288,0,0,1.1288,-2803.9018,27.0908)" stroke="rgb(255,204,0)">
      <rect x="2517.0794" y="324" clip-path="url(#clipPath2)" width="134.75" rx="4" ry="4" height="30" stroke="none"/>
    </g>
    <g text-rendering="geometricPrecision" stroke-miterlimit="1.45" shape-rendering="geometricPrecision" transform="matrix(1.1288,0,0,1.1288,-2803.9018,27.0908)" stroke-linecap="butt">
      <rect x="2517.0794" y="324" clip-path="url(#clipPath2)" fill="none" width="134.75" rx="4" ry="4" height="30"/>
      <text x="2524.0793" xml:space="preserve" y="343.7139" clip-path="url(#clipPath2)" font-family="sans-serif" stroke="none">The death of Augustus</text>
    </g>
    <g fill="rgb(255,204,0)" text-rendering="geometricPrecision" shape-rendering="geometricPrecision" transform="matrix(1.1288,0,0,1.1288,-2803.9018,27.0908)" stroke="rgb(255,204,0)">
      <rect x="3271.6905" y="215" clip-path="url(#clipPath2)" width="150.0547" rx="4" ry="4" height="30" stroke="none"/>
    </g>
    <g text-rendering="geometricPrecision" stroke-miterlimit="1.45" shape-rendering="geometricPrecision" transform="matrix(1.1288,0,0,1.1288,-2803.9018,27.0908)" stroke-linecap="butt">
      <rect x="3271.6905" y="215" clip-path="url(#clipPath2)" fill="none" width="150.0547" rx="4" ry="4" height="30"/>
      <text x="3278.6904" xml:space="preserve" y="234.7139" clip-path="url(#clipPath2)" font-family="sans-serif" stroke="none">The birth of Tiberius Nero</text>
    </g>
    <g fill="rgb(255,204,0)" text-rendering="geometricPrecision" shape-rendering="geometricPrecision" transform="matrix(1.1288,0,0,1.1288,-2803.9018,27.0908)" stroke="rgb(255,204,0)">
      <rect x="3118.1263" y="324" clip-path="url(#clipPath2)" width="156.7402" rx="4" ry="4" height="30" stroke="none"/>
    </g>
    <g text-rendering="geometricPrecision" stroke-miterlimit="1.45" shape-rendering="geometricPrecision" transform="matrix(1.1288,0,0,1.1288,-2803.9018,27.0908)" stroke-linecap="butt">
      <rect x="3118.1263" y="324" clip-path="url(#clipPath2)" fill="none" width="156.7402" rx="4" ry="4" height="30"/>
      <text x="3125.1262" xml:space="preserve" y="343.7139" clip-path="url(#clipPath2)" font-family="sans-serif" stroke="none">The death of Tiberius Nero</text>
    </g>
    <g fill="rgb(255,204,0)" text-rendering="geometricPrecision" shape-rendering="geometricPrecision" transform="matrix(1.1288,0,0,1.1288,-2803.9018,27.0908)" stroke="rgb(255,204,0)">
      <rect x="2335.0032" y="324" clip-path="url(#clipPath2)" width="152.0762" rx="4" ry="4" height="30" stroke="none"/>
    </g>
    <g text-rendering="geometricPrecision" stroke-miterlimit="1.45" shape-rendering="geometricPrecision" transform="matrix(1.1288,0,0,1.1288,-2803.9018,27.0908)" stroke-linecap="butt">
      <rect x="2335.0032" y="324" clip-path="url(#clipPath2)" fill="none" width="152.0762" rx="4" ry="4" height="30"/>
      <text x="2342.0032" xml:space="preserve" y="343.7139" clip-path="url(#clipPath2)" font-family="sans-serif" stroke="none">The death of Mark Antony</text>
    </g>
    <g fill="rgb(255,204,0)" text-rendering="geometricPrecision" shape-rendering="geometricPrecision" transform="matrix(1.1288,0,0,1.1288,-2803.9018,27.0908)" stroke="rgb(255,204,0)">
      <rect x="2988.7394" y="215" clip-path="url(#clipPath2)" width="128.0586" rx="4" ry="4" height="30" stroke="none"/>
    </g>
    <g text-rendering="geometricPrecision" stroke-miterlimit="1.45" shape-rendering="geometricPrecision" transform="matrix(1.1288,0,0,1.1288,-2803.9018,27.0908)" stroke-linecap="butt">
      <rect x="2988.7394" y="215" clip-path="url(#clipPath2)" fill="none" width="128.0586" rx="4" ry="4" height="30"/>
      <text x="2995.7393" xml:space="preserve" y="234.7139" clip-path="url(#clipPath2)" font-family="sans-serif" stroke="none">The birth of Scribonia</text>
    </g>
    <g fill="rgb(255,204,0)" text-rendering="geometricPrecision" shape-rendering="geometricPrecision" transform="matrix(1.1288,0,0,1.1288,-2803.9018,27.0908)" stroke="rgb(255,204,0)">
      <rect x="2953.3819" y="324" clip-path="url(#clipPath2)" width="134.7441" rx="4" ry="4" height="30" stroke="none"/>
    </g>
    <g text-rendering="geometricPrecision" stroke-miterlimit="1.45" shape-rendering="geometricPrecision" transform="matrix(1.1288,0,0,1.1288,-2803.9018,27.0908)" stroke-linecap="butt">
      <rect x="2953.3819" y="324" clip-path="url(#clipPath2)" fill="none" width="134.7441" rx="4" ry="4" height="30"/>
      <text x="2960.3818" xml:space="preserve" y="343.7139" clip-path="url(#clipPath2)" font-family="sans-serif" stroke="none">The death of Scribonia</text>
    </g>
    <g fill="rgb(255,204,0)" text-rendering="geometricPrecision" shape-rendering="geometricPrecision" transform="matrix(1.1288,0,0,1.1288,-2803.9018,27.0908)" stroke="rgb(255,204,0)">
      <rect x="3163.8602" y="0" clip-path="url(#clipPath2)" width="167.416" rx="4" ry="4" height="30" stroke="none"/>
    </g>
    <g text-rendering="geometricPrecision" stroke-miterlimit="1.45" shape-rendering="geometricPrecision" transform="matrix(1.1288,0,0,1.1288,-2803.9018,27.0908)" stroke-linecap="butt">
      <rect x="3163.8602" y="0" clip-path="url(#clipPath2)" fill="none" width="167.416" rx="4" ry="4" height="30"/>
      <text x="3170.8604" xml:space="preserve" y="19.7139" clip-path="url(#clipPath2)" font-family="sans-serif" stroke="none">The birth of Publius Claudius</text>
    </g>
    <g fill="rgb(255,204,0)" text-rendering="geometricPrecision" shape-rendering="geometricPrecision" transform="matrix(1.1288,0,0,1.1288,-2803.9018,27.0908)" stroke="rgb(255,204,0)">
      <rect x="3118.6635" y="61" clip-path="url(#clipPath2)" width="174.1016" rx="4" ry="4" height="30" stroke="none"/>
    </g>
    <g text-rendering="geometricPrecision" stroke-miterlimit="1.45" shape-rendering="geometricPrecision" transform="matrix(1.1288,0,0,1.1288,-2803.9018,27.0908)" stroke-linecap="butt">
      <rect x="3118.6635" y="61" clip-path="url(#clipPath2)" fill="none" width="174.1016" rx="4" ry="4" height="30"/>
      <text x="3125.6636" xml:space="preserve" y="80.7139" clip-path="url(#clipPath2)" font-family="sans-serif" stroke="none">The death of Publius Claudius</text>
    </g>
    <g fill="rgb(255,204,0)" text-rendering="geometricPrecision" shape-rendering="geometricPrecision" transform="matrix(1.1288,0,0,1.1288,-2803.9018,27.0908)" stroke="rgb(255,204,0)">
      <rect x="2722.8447" y="0" clip-path="url(#clipPath2)" width="84.7051" rx="4" ry="4" height="30" stroke="none"/>
    </g>
    <g text-rendering="geometricPrecision" stroke-miterlimit="1.45" shape-rendering="geometricPrecision" transform="matrix(1.1288,0,0,1.1288,-2803.9018,27.0908)" stroke-linecap="butt">
      <rect x="2722.8447" y="0" clip-path="url(#clipPath2)" fill="none" width="84.7051" rx="4" ry="4" height="30"/>
      <text x="2729.8447" xml:space="preserve" y="19.7139" clip-path="url(#clipPath2)" font-family="sans-serif" stroke="none">The birth of ?</text>
    </g>
    <g fill="rgb(255,204,0)" text-rendering="geometricPrecision" shape-rendering="geometricPrecision" transform="matrix(1.1288,0,0,1.1288,-2803.9018,27.0908)" stroke="rgb(255,204,0)">
      <rect x="2575.7809" y="61" clip-path="url(#clipPath2)" width="91.3906" rx="4" ry="4" height="30" stroke="none"/>
    </g>
    <g text-rendering="geometricPrecision" stroke-miterlimit="1.45" shape-rendering="geometricPrecision" transform="matrix(1.1288,0,0,1.1288,-2803.9018,27.0908)" stroke-linecap="butt">
      <rect x="2575.7809" y="61" clip-path="url(#clipPath2)" fill="none" width="91.3906" rx="4" ry="4" height="30"/>
      <text x="2582.7808" xml:space="preserve" y="80.7139" clip-path="url(#clipPath2)" font-family="sans-serif" stroke="none">The death of ?</text>
    </g>
    <g fill="rgb(255,204,0)" text-rendering="geometricPrecision" shape-rendering="geometricPrecision" transform="matrix(1.1288,0,0,1.1288,-2803.9018,27.0908)" stroke="rgb(255,204,0)">
      <rect x="2599.1324" y="122" clip-path="url(#clipPath2)" width="98.709" rx="4" ry="4" height="30" stroke="none"/>
    </g>
    <g text-rendering="geometricPrecision" stroke-miterlimit="1.45" shape-rendering="geometricPrecision" transform="matrix(1.1288,0,0,1.1288,-2803.9018,27.0908)" stroke-linecap="butt">
      <rect x="2599.1324" y="122" clip-path="url(#clipPath2)" fill="none" width="98.709" rx="4" ry="4" height="30"/>
      <text x="2606.1323" xml:space="preserve" y="141.7139" clip-path="url(#clipPath2)" font-family="sans-serif" stroke="none">The birth of Atia</text>
    </g>
    <g fill="rgb(255,204,0)" text-rendering="geometricPrecision" shape-rendering="geometricPrecision" transform="matrix(1.1288,0,0,1.1288,-2803.9018,27.0908)" stroke="rgb(255,204,0)">
      <rect x="2710.5031" y="215" clip-path="url(#clipPath2)" width="105.3945" rx="4" ry="4" height="30" stroke="none"/>
    </g>
    <g text-rendering="geometricPrecision" stroke-miterlimit="1.45" shape-rendering="geometricPrecision" transform="matrix(1.1288,0,0,1.1288,-2803.9018,27.0908)" stroke-linecap="butt">
      <rect x="2710.5031" y="215" clip-path="url(#clipPath2)" fill="none" width="105.3945" rx="4" ry="4" height="30"/>
      <text x="2717.5032" xml:space="preserve" y="234.7139" clip-path="url(#clipPath2)" font-family="sans-serif" stroke="none">The death of Atia</text>
    </g>
    <g fill="rgb(255,204,0)" text-rendering="geometricPrecision" shape-rendering="geometricPrecision" transform="matrix(1.1288,0,0,1.1288,-2803.9018,27.0908)" stroke="rgb(255,204,0)">
      <rect x="3447.3223" y="0" clip-path="url(#clipPath2)" width="110.041" rx="4" ry="4" height="30" stroke="none"/>
    </g>
    <g text-rendering="geometricPrecision" stroke-miterlimit="1.45" shape-rendering="geometricPrecision" transform="matrix(1.1288,0,0,1.1288,-2803.9018,27.0908)" stroke-linecap="butt">
      <rect x="3447.3223" y="0" clip-path="url(#clipPath2)" fill="none" width="110.041" rx="4" ry="4" height="30"/>
      <text x="3454.3223" xml:space="preserve" y="19.7139" clip-path="url(#clipPath2)" font-family="sans-serif" stroke="none">The birth of Fulvia</text>
    </g>
    <g fill="rgb(255,204,0)" text-rendering="geometricPrecision" shape-rendering="geometricPrecision" transform="matrix(1.1288,0,0,1.1288,-2803.9018,27.0908)" stroke="rgb(255,204,0)">
      <rect x="3471.4899" y="61" clip-path="url(#clipPath2)" width="116.7266" rx="4" ry="4" height="30" stroke="none"/>
    </g>
    <g text-rendering="geometricPrecision" stroke-miterlimit="1.45" shape-rendering="geometricPrecision" transform="matrix(1.1288,0,0,1.1288,-2803.9018,27.0908)" stroke-linecap="butt">
      <rect x="3471.4899" y="61" clip-path="url(#clipPath2)" fill="none" width="116.7266" rx="4" ry="4" height="30"/>
      <text x="3478.49" xml:space="preserve" y="80.7139" clip-path="url(#clipPath2)" font-family="sans-serif" stroke="none">The death of Fulvia</text>
    </g>
    <g fill="rgb(255,204,0)" text-rendering="geometricPrecision" shape-rendering="geometricPrecision" transform="matrix(1.1288,0,0,1.1288,-2803.9018,27.0908)" stroke="rgb(255,204,0)">
      <rect x="2358.3725" y="61" clip-path="url(#clipPath2)" width="187.4082" rx="4" ry="4" height="30" stroke="none"/>
    </g>
    <g text-rendering="geometricPrecision" stroke-miterlimit="1.45" shape-rendering="geometricPrecision" transform="matrix(1.1288,0,0,1.1288,-2803.9018,27.0908)" stroke-linecap="butt">
      <rect x="2358.3725" y="61" clip-path="url(#clipPath2)" fill="none" width="187.4082" rx="4" ry="4" height="30"/>
      <text x="2365.3726" xml:space="preserve" y="80.7139" clip-path="url(#clipPath2)" font-family="sans-serif" stroke="none">The birth of Marcus Atius Balbus</text>
    </g>
    <g fill="rgb(255,204,0)" text-rendering="geometricPrecision" shape-rendering="geometricPrecision" transform="matrix(1.1288,0,0,1.1288,-2803.9018,27.0908)" stroke="rgb(255,204,0)">
      <rect x="2308.1777" y="122" clip-path="url(#clipPath2)" width="194.0938" rx="4" ry="4" height="30" stroke="none"/>
    </g>
    <g text-rendering="geometricPrecision" stroke-miterlimit="1.45" shape-rendering="geometricPrecision" transform="matrix(1.1288,0,0,1.1288,-2803.9018,27.0908)" stroke-linecap="butt">
      <rect x="2308.1777" y="122" clip-path="url(#clipPath2)" fill="none" width="194.0938" rx="4" ry="4" height="30"/>
      <text x="2315.1777" xml:space="preserve" y="141.7139" clip-path="url(#clipPath2)" font-family="sans-serif" stroke="none">The death of Marcus Atius Balbus</text>
    </g>
    <g fill="rgb(255,204,0)" text-rendering="geometricPrecision" shape-rendering="geometricPrecision" transform="matrix(1.1288,0,0,1.1288,-2803.9018,27.0908)" stroke="rgb(255,204,0)">
      <rect x="3304.8669" y="324" clip-path="url(#clipPath2)" width="167.4043" rx="4" ry="4" height="30" stroke="none"/>
    </g>
    <g text-rendering="geometricPrecision" stroke-miterlimit="1.45" shape-rendering="geometricPrecision" transform="matrix(1.1288,0,0,1.1288,-2803.9018,27.0908)" stroke-linecap="butt">
      <rect x="3304.8669" y="324" clip-path="url(#clipPath2)" fill="none" width="167.4043" rx="4" ry="4" height="30"/>
      <text x="3311.8669" xml:space="preserve" y="343.7139" clip-path="url(#clipPath2)" font-family="sans-serif" stroke="none">The birth of Drusus the Elder</text>
    </g>
    <g fill="rgb(255,204,0)" text-rendering="geometricPrecision" shape-rendering="geometricPrecision" transform="matrix(1.1288,0,0,1.1288,-2803.9018,27.0908)" stroke="rgb(255,204,0)">
      <rect x="3364.3007" y="497" clip-path="url(#clipPath2)" width="174.0898" rx="4" ry="4" height="30" stroke="none"/>
    </g>
    <g text-rendering="geometricPrecision" stroke-miterlimit="1.45" shape-rendering="geometricPrecision" transform="matrix(1.1288,0,0,1.1288,-2803.9018,27.0908)" stroke-linecap="butt">
      <rect x="3364.3007" y="497" clip-path="url(#clipPath2)" fill="none" width="174.0898" rx="4" ry="4" height="30"/>
      <text x="3371.3008" xml:space="preserve" y="516.7139" clip-path="url(#clipPath2)" font-family="sans-serif" stroke="none">The death of Drusus the Elder</text>
    </g>
    <g fill="rgb(255,204,0)" text-rendering="geometricPrecision" shape-rendering="geometricPrecision" transform="matrix(1.1288,0,0,1.1288,-2803.9018,27.0908)" stroke="rgb(255,204,0)">
      <rect x="3558.3293" y="670" clip-path="url(#clipPath2)" width="118.0391" rx="4" ry="4" height="30" stroke="none"/>
    </g>
    <g text-rendering="geometricPrecision" stroke-miterlimit="1.45" shape-rendering="geometricPrecision" transform="matrix(1.1288,0,0,1.1288,-2803.9018,27.0908)" stroke-linecap="butt">
      <rect x="3558.3293" y="670" clip-path="url(#clipPath2)" fill="none" width="118.0391" rx="4" ry="4" height="30"/>
      <text x="3565.3293" xml:space="preserve" y="689.7139" clip-path="url(#clipPath2)" font-family="sans-serif" stroke="none">The birth of Drusilla</text>
    </g>
    <g fill="rgb(255,204,0)" text-rendering="geometricPrecision" shape-rendering="geometricPrecision" transform="matrix(1.1288,0,0,1.1288,-2803.9018,27.0908)" stroke="rgb(255,204,0)">
      <rect x="3554.9865" y="747" clip-path="url(#clipPath2)" width="124.7246" rx="4" ry="4" height="30" stroke="none"/>
    </g>
    <g text-rendering="geometricPrecision" stroke-miterlimit="1.45" shape-rendering="geometricPrecision" transform="matrix(1.1288,0,0,1.1288,-2803.9018,27.0908)" stroke-linecap="butt">
      <rect x="3554.9865" y="747" clip-path="url(#clipPath2)" fill="none" width="124.7246" rx="4" ry="4" height="30"/>
      <text x="3561.9866" xml:space="preserve" y="766.7139" clip-path="url(#clipPath2)" font-family="sans-serif" stroke="none">The death of Drusilla</text>
    </g>
    <g fill="rgb(255,204,0)" text-rendering="geometricPrecision" shape-rendering="geometricPrecision" transform="matrix(1.1288,0,0,1.1288,-2803.9018,27.0908)" stroke="rgb(255,204,0)">
      <rect x="3400.2531" y="670" clip-path="url(#clipPath2)" width="121.3906" rx="4" ry="4" height="30" stroke="none"/>
    </g>
    <g text-rendering="geometricPrecision" stroke-miterlimit="1.45" shape-rendering="geometricPrecision" transform="matrix(1.1288,0,0,1.1288,-2803.9018,27.0908)" stroke-linecap="butt">
      <rect x="3400.2531" y="670" clip-path="url(#clipPath2)" fill="none" width="121.3906" rx="4" ry="4" height="30"/>
      <text x="3407.2532" xml:space="preserve" y="689.7139" clip-path="url(#clipPath2)" font-family="sans-serif" stroke="none">The birth of Caligula</text>
    </g>
    <g fill="rgb(255,204,0)" text-rendering="geometricPrecision" shape-rendering="geometricPrecision" transform="matrix(1.1288,0,0,1.1288,-2803.9018,27.0908)" stroke="rgb(255,204,0)">
      <rect x="3396.9103" y="747" clip-path="url(#clipPath2)" width="128.0762" rx="4" ry="4" height="30" stroke="none"/>
    </g>
    <g text-rendering="geometricPrecision" stroke-miterlimit="1.45" shape-rendering="geometricPrecision" transform="matrix(1.1288,0,0,1.1288,-2803.9018,27.0908)" stroke-linecap="butt">
      <rect x="3396.9103" y="747" clip-path="url(#clipPath2)" fill="none" width="128.0762" rx="4" ry="4" height="30"/>
      <text x="3403.9104" xml:space="preserve" y="766.7139" clip-path="url(#clipPath2)" font-family="sans-serif" stroke="none">The death of Caligula</text>
    </g>
    <g fill="rgb(255,204,0)" text-rendering="geometricPrecision" shape-rendering="geometricPrecision" transform="matrix(1.1288,0,0,1.1288,-2803.9018,27.0908)" stroke="rgb(255,204,0)">
      <rect x="3172.8018" y="670" clip-path="url(#clipPath2)" width="197.4512" rx="4" ry="4" height="30" stroke="none"/>
    </g>
    <g text-rendering="geometricPrecision" stroke-miterlimit="1.45" shape-rendering="geometricPrecision" transform="matrix(1.1288,0,0,1.1288,-2803.9018,27.0908)" stroke-linecap="butt">
      <rect x="3172.8018" y="670" clip-path="url(#clipPath2)" fill="none" width="197.4512" rx="4" ry="4" height="30"/>
      <text x="3179.8018" xml:space="preserve" y="689.7139" clip-path="url(#clipPath2)" font-family="sans-serif" stroke="none">The birth of Agrippina the Younger</text>
    </g>
    <g fill="rgb(255,204,0)" text-rendering="geometricPrecision" shape-rendering="geometricPrecision" transform="matrix(1.1288,0,0,1.1288,-2803.9018,27.0908)" stroke="rgb(255,204,0)">
      <rect x="3162.7733" y="747" clip-path="url(#clipPath2)" width="204.1367" rx="4" ry="4" height="30" stroke="none"/>
    </g>
    <g text-rendering="geometricPrecision" stroke-miterlimit="1.45" shape-rendering="geometricPrecision" transform="matrix(1.1288,0,0,1.1288,-2803.9018,27.0908)" stroke-linecap="butt">
      <rect x="3162.7733" y="747" clip-path="url(#clipPath2)" fill="none" width="204.1367" rx="4" ry="4" height="30"/>
      <text x="3169.7732" xml:space="preserve" y="766.7139" clip-path="url(#clipPath2)" font-family="sans-serif" stroke="none">The death of Agrippina the Younger</text>
    </g>
    <g fill="rgb(255,204,0)" text-rendering="geometricPrecision" shape-rendering="geometricPrecision" transform="matrix(1.1288,0,0,1.1288,-2803.9018,27.0908)" stroke="rgb(255,204,0)">
      <rect x="3713.0539" y="670" clip-path="url(#clipPath2)" width="180.0723" rx="4" ry="4" height="30" stroke="none"/>
    </g>
    <g text-rendering="geometricPrecision" stroke-miterlimit="1.45" shape-rendering="geometricPrecision" transform="matrix(1.1288,0,0,1.1288,-2803.9018,27.0908)" stroke-linecap="butt">
      <rect x="3713.0539" y="670" clip-path="url(#clipPath2)" fill="none" width="180.0723" rx="4" ry="4" height="30"/>
      <text x="3720.054" xml:space="preserve" y="689.7139" clip-path="url(#clipPath2)" font-family="sans-serif" stroke="none">The birth of Nero Julius Caeser</text>
    </g>
    <g fill="rgb(255,204,0)" text-rendering="geometricPrecision" shape-rendering="geometricPrecision" transform="matrix(1.1288,0,0,1.1288,-2803.9018,27.0908)" stroke="rgb(255,204,0)">
      <rect x="3709.7112" y="747" clip-path="url(#clipPath2)" width="186.7578" rx="4" ry="4" height="30" stroke="none"/>
    </g>
    <g text-rendering="geometricPrecision" stroke-miterlimit="1.45" shape-rendering="geometricPrecision" transform="matrix(1.1288,0,0,1.1288,-2803.9018,27.0908)" stroke-linecap="butt">
      <rect x="3709.7112" y="747" clip-path="url(#clipPath2)" fill="none" width="186.7578" rx="4" ry="4" height="30"/>
      <text x="3716.7112" xml:space="preserve" y="766.7139" clip-path="url(#clipPath2)" font-family="sans-serif" stroke="none">The death of Nero Julius Caeser</text>
    </g>
    <g fill="rgb(255,204,0)" text-rendering="geometricPrecision" shape-rendering="geometricPrecision" transform="matrix(1.1288,0,0,1.1288,-2803.9018,27.0908)" stroke="rgb(255,204,0)">
      <rect x="2813.3162" y="497" clip-path="url(#clipPath2)" width="146.7383" rx="4" ry="4" height="30" stroke="none"/>
    </g>
    <g text-rendering="geometricPrecision" stroke-miterlimit="1.45" shape-rendering="geometricPrecision" transform="matrix(1.1288,0,0,1.1288,-2803.9018,27.0908)" stroke-linecap="butt">
      <rect x="2813.3162" y="497" clip-path="url(#clipPath2)" fill="none" width="146.7383" rx="4" ry="4" height="30"/>
      <text x="2820.3162" xml:space="preserve" y="516.7139" clip-path="url(#clipPath2)" font-family="sans-serif" stroke="none">The birth of Claudia Livia</text>
    </g>
    <g fill="rgb(255,204,0)" text-rendering="geometricPrecision" shape-rendering="geometricPrecision" transform="matrix(1.1288,0,0,1.1288,-2803.9018,27.0908)" stroke="rgb(255,204,0)">
      <rect x="2809.9734" y="670" clip-path="url(#clipPath2)" width="153.4238" rx="4" ry="4" height="30" stroke="none"/>
    </g>
    <g text-rendering="geometricPrecision" stroke-miterlimit="1.45" shape-rendering="geometricPrecision" transform="matrix(1.1288,0,0,1.1288,-2803.9018,27.0908)" stroke-linecap="butt">
      <rect x="2809.9734" y="670" clip-path="url(#clipPath2)" fill="none" width="153.4238" rx="4" ry="4" height="30"/>
      <text x="2816.9734" xml:space="preserve" y="689.7139" clip-path="url(#clipPath2)" font-family="sans-serif" stroke="none">The death of Claudia Livia</text>
    </g>
    <g fill="rgb(255,204,0)" text-rendering="geometricPrecision" shape-rendering="geometricPrecision" transform="matrix(1.1288,0,0,1.1288,-2803.9018,27.0908)" stroke="rgb(255,204,0)">
      <rect x="2515.5274" y="497" clip-path="url(#clipPath2)" width="132.0547" rx="4" ry="4" height="30" stroke="none"/>
    </g>
    <g text-rendering="geometricPrecision" stroke-miterlimit="1.45" shape-rendering="geometricPrecision" transform="matrix(1.1288,0,0,1.1288,-2803.9018,27.0908)" stroke-linecap="butt">
      <rect x="2515.5274" y="497" clip-path="url(#clipPath2)" fill="none" width="132.0547" rx="4" ry="4" height="30"/>
      <text x="2522.5273" xml:space="preserve" y="516.7139" clip-path="url(#clipPath2)" font-family="sans-serif" stroke="none">The birth of Messalina</text>
    </g>
    <g fill="rgb(255,204,0)" text-rendering="geometricPrecision" shape-rendering="geometricPrecision" transform="matrix(1.1288,0,0,1.1288,-2803.9018,27.0908)" stroke="rgb(255,204,0)">
      <rect x="2641.2331" y="670" clip-path="url(#clipPath2)" width="138.7402" rx="4" ry="4" height="30" stroke="none"/>
    </g>
    <g text-rendering="geometricPrecision" stroke-miterlimit="1.45" shape-rendering="geometricPrecision" transform="matrix(1.1288,0,0,1.1288,-2803.9018,27.0908)" stroke-linecap="butt">
      <rect x="2641.2331" y="670" clip-path="url(#clipPath2)" fill="none" width="138.7402" rx="4" ry="4" height="30"/>
      <text x="2648.2332" xml:space="preserve" y="689.7139" clip-path="url(#clipPath2)" font-family="sans-serif" stroke="none">The death of Messalina</text>
    </g>
    <g fill="rgb(255,204,0)" text-rendering="geometricPrecision" shape-rendering="geometricPrecision" transform="matrix(1.1288,0,0,1.1288,-2803.9018,27.0908)" stroke="rgb(255,204,0)">
      <rect x="2492.5201" y="670" clip-path="url(#clipPath2)" width="118.7129" rx="4" ry="4" height="30" stroke="none"/>
    </g>
    <g text-rendering="geometricPrecision" stroke-miterlimit="1.45" shape-rendering="geometricPrecision" transform="matrix(1.1288,0,0,1.1288,-2803.9018,27.0908)" stroke-linecap="butt">
      <rect x="2492.5201" y="670" clip-path="url(#clipPath2)" fill="none" width="118.7129" rx="4" ry="4" height="30"/>
      <text x="2499.5203" xml:space="preserve" y="689.7139" clip-path="url(#clipPath2)" font-family="sans-serif" stroke="none">The birth of Octavia</text>
    </g>
    <g fill="rgb(255,204,0)" text-rendering="geometricPrecision" shape-rendering="geometricPrecision" transform="matrix(1.1288,0,0,1.1288,-2803.9018,27.0908)" stroke="rgb(255,204,0)">
      <rect x="2492.5202" y="747" clip-path="url(#clipPath2)" width="125.3984" rx="4" ry="4" height="30" stroke="none"/>
    </g>
    <g text-rendering="geometricPrecision" stroke-miterlimit="1.45" shape-rendering="geometricPrecision" transform="matrix(1.1288,0,0,1.1288,-2803.9018,27.0908)" stroke-linecap="butt">
      <rect x="2492.5202" y="747" clip-path="url(#clipPath2)" fill="none" width="125.3984" rx="4" ry="4" height="30"/>
      <text x="2499.5203" xml:space="preserve" y="766.7139" clip-path="url(#clipPath2)" font-family="sans-serif" stroke="none">The death of Octavia</text>
    </g>
    <g fill="rgb(255,204,0)" text-rendering="geometricPrecision" shape-rendering="geometricPrecision" transform="matrix(1.1288,0,0,1.1288,-2803.9018,27.0908)" stroke="rgb(255,204,0)">
      <rect x="3322.7651" y="61" clip-path="url(#clipPath2)" width="118.7246" rx="4" ry="4" height="30" stroke="none"/>
    </g>
    <g text-rendering="geometricPrecision" stroke-miterlimit="1.45" shape-rendering="geometricPrecision" transform="matrix(1.1288,0,0,1.1288,-2803.9018,27.0908)" stroke-linecap="butt">
      <rect x="3322.7651" y="61" clip-path="url(#clipPath2)" fill="none" width="118.7246" rx="4" ry="4" height="30"/>
      <text x="3329.7651" xml:space="preserve" y="80.7139" clip-path="url(#clipPath2)" font-family="sans-serif" stroke="none">The birth of Claudia</text>
    </g>
    <g fill="rgb(255,204,0)" text-rendering="geometricPrecision" shape-rendering="geometricPrecision" transform="matrix(1.1288,0,0,1.1288,-2803.9018,27.0908)" stroke="rgb(255,204,0)">
      <rect x="3319.4223" y="122" clip-path="url(#clipPath2)" width="125.4102" rx="4" ry="4" height="30" stroke="none"/>
    </g>
    <g text-rendering="geometricPrecision" stroke-miterlimit="1.45" shape-rendering="geometricPrecision" transform="matrix(1.1288,0,0,1.1288,-2803.9018,27.0908)" stroke-linecap="butt">
      <rect x="3319.4223" y="122" clip-path="url(#clipPath2)" fill="none" width="125.4102" rx="4" ry="4" height="30"/>
      <text x="3326.4224" xml:space="preserve" y="141.7139" clip-path="url(#clipPath2)" font-family="sans-serif" stroke="none">The death of Claudia</text>
    </g>
    <g fill="rgb(255,204,0)" text-rendering="geometricPrecision" shape-rendering="geometricPrecision" transform="matrix(1.1288,0,0,1.1288,-2803.9018,27.0908)" stroke="rgb(255,204,0)">
      <rect x="2697.1718" y="61" clip-path="url(#clipPath2)" width="136.0508" rx="4" ry="4" height="30" stroke="none"/>
    </g>
    <g text-rendering="geometricPrecision" stroke-miterlimit="1.45" shape-rendering="geometricPrecision" transform="matrix(1.1288,0,0,1.1288,-2803.9018,27.0908)" stroke-linecap="butt">
      <rect x="2697.1718" y="61" clip-path="url(#clipPath2)" fill="none" width="136.0508" rx="4" ry="4" height="30"/>
      <text x="2704.1719" xml:space="preserve" y="80.7139" clip-path="url(#clipPath2)" font-family="sans-serif" stroke="none">The birth of Julia Minor</text>
    </g>
    <g fill="rgb(255,204,0)" text-rendering="geometricPrecision" shape-rendering="geometricPrecision" transform="matrix(1.1288,0,0,1.1288,-2803.9018,27.0908)" stroke="rgb(255,204,0)">
      <rect x="2727.8418" y="122" clip-path="url(#clipPath2)" width="142.7363" rx="4" ry="4" height="30" stroke="none"/>
    </g>
    <g text-rendering="geometricPrecision" stroke-miterlimit="1.45" shape-rendering="geometricPrecision" transform="matrix(1.1288,0,0,1.1288,-2803.9018,27.0908)" stroke-linecap="butt">
      <rect x="2727.8418" y="122" clip-path="url(#clipPath2)" fill="none" width="142.7363" rx="4" ry="4" height="30"/>
      <text x="2734.8418" xml:space="preserve" y="141.7139" clip-path="url(#clipPath2)" font-family="sans-serif" stroke="none">The death of Julia Minor</text>
    </g>
    <g fill="rgb(255,204,0)" text-rendering="geometricPrecision" shape-rendering="geometricPrecision" transform="matrix(1.1288,0,0,1.1288,-2803.9018,27.0908)" stroke="rgb(255,204,0)">
      <rect x="2903.921" y="61" clip-path="url(#clipPath2)" width="184.7422" rx="4" ry="4" height="30" stroke="none"/>
    </g>
    <g text-rendering="geometricPrecision" stroke-miterlimit="1.45" shape-rendering="geometricPrecision" transform="matrix(1.1288,0,0,1.1288,-2803.9018,27.0908)" stroke-linecap="butt">
      <rect x="2903.921" y="61" clip-path="url(#clipPath2)" fill="none" width="184.7422" rx="4" ry="4" height="30"/>
      <text x="2910.9209" xml:space="preserve" y="80.7139" clip-path="url(#clipPath2)" font-family="sans-serif" stroke="none">The birth of Caius Julius Caesar</text>
    </g>
    <g fill="rgb(255,204,0)" text-rendering="geometricPrecision" shape-rendering="geometricPrecision" transform="matrix(1.1288,0,0,1.1288,-2803.9018,27.0908)" stroke="rgb(255,204,0)">
      <rect x="2900.5782" y="122" clip-path="url(#clipPath2)" width="191.4277" rx="4" ry="4" height="30" stroke="none"/>
    </g>
    <g text-rendering="geometricPrecision" stroke-miterlimit="1.45" shape-rendering="geometricPrecision" transform="matrix(1.1288,0,0,1.1288,-2803.9018,27.0908)" stroke-linecap="butt">
      <rect x="2900.5782" y="122" clip-path="url(#clipPath2)" fill="none" width="191.4277" rx="4" ry="4" height="30"/>
      <text x="2907.5781" xml:space="preserve" y="141.7139" clip-path="url(#clipPath2)" font-family="sans-serif" stroke="none">The death of Caius Julius Caesar</text>
      <path fill="none" d="M3201.7761 527 L3201.7761 542.5 L3068.0996 542.5 L3068.0996 661.9689" clip-path="url(#clipPath2)"/>
      <path d="M3068.0996 669.9689 L3073.0996 657.9689 L3068.0996 660.9689 L3063.0996 657.9689 Z" clip-path="url(#clipPath2)" stroke="none"/>
      <path fill="none" d="M2584.4546 245 L2584.4543 315.9614" clip-path="url(#clipPath2)"/>
      <path d="M2584.4543 323.9614 L2589.4543 311.9614 L2584.4543 314.9614 L2579.4543 311.9614 Z" clip-path="url(#clipPath2)" stroke="none"/>
      <path fill="none" d="M3296.6997 245 L3296.6997 260.5 L3196.4963 260.5 L3196.4963 315.969" clip-path="url(#clipPath2)"/>
      <path d="M3196.4963 323.969 L3201.4963 311.969 L3196.4963 314.969 L3191.4963 311.969 Z" clip-path="url(#clipPath2)" stroke="none"/>
      <path fill="none" d="M3020.7539 245 L3020.7539 315.9614" clip-path="url(#clipPath2)"/>
      <path d="M3020.7539 323.9614 L3025.7539 311.9614 L3020.7539 314.9614 L3015.7539 311.9614 Z" clip-path="url(#clipPath2)" stroke="none"/>
      <path fill="none" d="M972.107 152 L972.107 183.5 L2584.4546 183.5 L2584.4546 206.9692" clip-path="url(#clipPath2)"/>
      <path d="M2584.4546 214.9692 L2589.4546 202.9692 L2584.4546 205.9692 L2579.4546 202.9692 Z" clip-path="url(#clipPath2)" stroke="none"/>
      <path fill="none" d="M3205.7144 30 L3205.7144 52.9697" clip-path="url(#clipPath2)"/>
      <path d="M3205.7144 60.9697 L3210.7144 48.9697 L3205.7144 51.9697 L3200.7144 48.9697 Z" clip-path="url(#clipPath2)" stroke="none"/>
      <path fill="none" d="M2736.9622 30 L2736.9622 45.5 L2621.4761 45.5 L2621.4761 52.9697" clip-path="url(#clipPath2)"/>
      <path d="M2621.4761 60.9697 L2626.4761 48.9697 L2621.4761 51.9697 L2616.4761 48.9697 Z" clip-path="url(#clipPath2)" stroke="none"/>
      <path fill="none" d="M2648.4868 152 L2648.4868 206.9692" clip-path="url(#clipPath2)"/>
      <path d="M2648.4868 214.9692 L2653.4868 202.9692 L2648.4868 205.9692 L2643.4868 202.9692 Z" clip-path="url(#clipPath2)" stroke="none"/>
      <path fill="none" d="M2615.584 152 L2615.584 167.5 L1146.0238 167.5 L1146.0238 206.9536" clip-path="url(#clipPath2)"/>
      <path d="M1146.0238 214.9536 L1151.0238 202.9536 L1146.0238 205.9536 L1141.0238 202.9536 Z" clip-path="url(#clipPath2)" stroke="none"/>
      <path fill="none" d="M2681.3899 152 L2681.3899 167.5 L2763.2004 167.5 L2763.2004 206.9536" clip-path="url(#clipPath2)"/>
      <path d="M2763.2004 214.9536 L2768.2004 202.9536 L2763.2004 205.9536 L2758.2004 202.9536 Z" clip-path="url(#clipPath2)" stroke="none"/>
      <path fill="none" d="M3529.853 30 L3529.8533 52.9697" clip-path="url(#clipPath2)"/>
      <path d="M3529.8533 60.9697 L3534.8533 48.9697 L3529.8533 51.9697 L3524.8533 48.9697 Z" clip-path="url(#clipPath2)" stroke="none"/>
      <path fill="none" d="M2498.9287 91 L2498.9287 106.5 L2623.8096 106.5 L2623.8096 113.9697" clip-path="url(#clipPath2)"/>
      <path d="M2623.8096 121.9697 L2628.8096 109.9697 L2623.8096 112.9697 L2618.8096 109.9697 Z" clip-path="url(#clipPath2)" stroke="none"/>
      <path fill="none" d="M5587.3174 245 L5587.3174 276.5 L3430.4202 276.5 L3430.4202 315.9536" clip-path="url(#clipPath2)"/>
      <path d="M3430.4202 323.9536 L3435.4202 311.9536 L3430.4202 314.9536 L3425.4202 311.9536 Z" clip-path="url(#clipPath2)" stroke="none"/>
      <path fill="none" d="M3346.7178 245 L3346.718 315.9614" clip-path="url(#clipPath2)"/>
      <path d="M3346.718 323.9614 L3351.718 311.9614 L3346.718 314.9614 L3341.718 311.9614 Z" clip-path="url(#clipPath2)" stroke="none"/>
      <path fill="none" d="M3409.4946 354 L3409.4946 417.5 L3298.6208 417.5 L3298.6208 488.9612" clip-path="url(#clipPath2)"/>
      <path d="M3298.6208 496.9612 L3303.6208 484.9612 L3298.6208 487.9612 L3293.6208 484.9612 Z" clip-path="url(#clipPath2)" stroke="none"/>
      <path fill="none" d="M3451.3457 354 L3451.3457 488.9651" clip-path="url(#clipPath2)"/>
      <path d="M3451.3457 496.9651 L3456.3457 484.9651 L3451.3457 487.9651 L3446.3457 484.9651 Z" clip-path="url(#clipPath2)" stroke="none"/>
      <path fill="none" d="M4130.5435 527 L4130.5435 558.5 L3646.8586 558.5 L3646.8586 661.9728" clip-path="url(#clipPath2)"/>
      <path d="M3646.8586 669.9728 L3651.8586 657.9728 L3646.8586 660.9728 L3641.8586 657.9728 Z" clip-path="url(#clipPath2)" stroke="none"/>
      <path fill="none" d="M3262.9412 527 L3262.9412 638.5 L3587.8391 638.5 L3587.8391 661.9692" clip-path="url(#clipPath2)"/>
      <path d="M3587.8391 669.9692 L3592.8391 657.9692 L3587.8391 660.9692 L3582.8391 657.9692 Z" clip-path="url(#clipPath2)" stroke="none"/>
      <path fill="none" d="M3617.3489 700 L3617.3489 738.9541" clip-path="url(#clipPath2)"/>
      <path d="M3617.3489 746.9541 L3622.3489 734.9541 L3617.3489 737.9541 L3612.3489 734.9541 Z" clip-path="url(#clipPath2)" stroke="none"/>
      <path fill="none" d="M3242.553 527 L3242.553 654.5 L3430.6008 654.5 L3430.6008 661.9697" clip-path="url(#clipPath2)"/>
      <path d="M3430.6008 669.9697 L3435.6008 657.9697 L3430.6008 660.9697 L3425.6008 657.9697 Z" clip-path="url(#clipPath2)" stroke="none"/>
      <path fill="none" d="M4104.8154 527 L4104.8154 542.5 L3491.2961 542.5 L3491.2961 633.5 Q3496.2961 633.5 3496.2961 638.5 Q3496.2961 643.5 3491.2961 643.5 L3491.2961 661.9689" clip-path="url(#clipPath2)"/>
      <path d="M3491.2961 669.9689 L3496.2961 657.9689 L3491.2961 660.9689 L3486.2961 657.9689 Z" clip-path="url(#clipPath2)" stroke="none"/>
      <path fill="none" d="M3460.9485 700 L3460.9485 738.9541" clip-path="url(#clipPath2)"/>
      <path d="M3460.9485 746.9541 L3465.9485 734.9541 L3460.9485 737.9541 L3455.9485 734.9541 Z" clip-path="url(#clipPath2)" stroke="none"/>
      <path fill="none" d="M3222.1646 527 L3222.1646 661.9651" clip-path="url(#clipPath2)"/>
      <path d="M3222.1646 669.9651 L3227.1646 657.9651 L3222.1646 660.9651 L3217.1646 657.9651 Z" clip-path="url(#clipPath2)" stroke="none"/>
      <path fill="none" d="M4079.0876 527 L4079.0876 606.5 L3651.8586 606.5 Q3651.8586 601.5 3646.8586 601.5 Q3641.8586 601.5 3641.8586 606.5 L3496.2961 606.5 Q3496.2961 601.5 3491.2961 601.5 Q3486.2961 601.5 3486.2961 606.5 L3320.8901 606.5 L3320.8901 633.5 Q3325.8901 633.5 3325.8901 638.5 L3325.8901 638.5 Q3325.8901 643.5 3320.8901 643.5 L3320.8901 649.5 Q3325.8901 649.5 3325.8901 654.5 Q3325.8901 659.5 3320.8901 659.5 L3320.8901 661.969" clip-path="url(#clipPath2)"/>
      <path d="M3320.8901 669.969 L3325.8901 657.969 L3320.8901 660.969 L3315.8901 657.969 Z" clip-path="url(#clipPath2)" stroke="none"/>
      <path fill="none" d="M3320.8901 700 L3320.8901 715.5 L3264.8416 715.5 L3264.8416 738.9692" clip-path="url(#clipPath2)"/>
      <path d="M3264.8416 746.9692 L3269.8416 734.9692 L3264.8416 737.9692 L3259.8416 734.9692 Z" clip-path="url(#clipPath2)" stroke="none"/>
      <path fill="none" d="M3283.3296 527 L3283.3296 622.5 L3315.8901 622.5 Q3315.8901 617.5 3320.8901 617.5 Q3325.8901 617.5 3325.8901 622.5 L3486.2961 622.5 Q3486.2961 617.5 3491.2961 617.5 Q3496.2961 617.5 3496.2961 622.5 L3641.8586 622.5 Q3641.8586 617.5 3646.8586 617.5 Q3651.8586 617.5 3651.8586 622.5 L3758.072 622.5 L3758.072 661.9536" clip-path="url(#clipPath2)"/>
      <path d="M3758.072 669.9536 L3763.072 657.9536 L3758.072 660.9536 L3753.072 657.9536 Z" clip-path="url(#clipPath2)" stroke="none"/>
      <path fill="none" d="M3396.7361 245 L3396.7361 260.5 L5487.7832 260.5 L5487.7832 315.969" clip-path="url(#clipPath2)"/>
      <path d="M5487.7832 323.969 L5492.7832 311.969 L5487.7832 314.969 L5482.7832 311.969 Z" clip-path="url(#clipPath2)" stroke="none"/>
      <path fill="none" d="M2281.572 354 L2281.572 385.5 L3227.2615 385.5 L3227.2615 488.9728" clip-path="url(#clipPath2)"/>
      <path d="M3227.2615 496.9728 L3232.2615 484.9728 L3227.2615 487.9728 L3222.2615 484.9728 Z" clip-path="url(#clipPath2)" stroke="none"/>
      <path fill="none" d="M2648.4868 245 L2648.4868 308.5 L3015.7539 308.5 Q3015.7539 303.5 3020.7539 303.5 Q3025.7539 303.5 3025.7539 308.5 L3191.4963 308.5 Q3191.4963 303.5 3196.4963 303.5 Q3201.4963 303.5 3201.4963 308.5 L3341.718 308.5 Q3341.718 303.5 3346.718 303.5 Q3351.718 303.5 3351.718 308.5 L3425.4202 308.5 Q3425.4202 303.5 3430.4202 303.5 Q3435.4202 303.5 3435.4202 308.5 L4111.2476 308.5 L4111.2476 315.9697" clip-path="url(#clipPath2)"/>
      <path d="M4111.2476 323.9697 L4116.2476 311.9697 L4111.2476 314.9697 L4106.2476 311.9697 Z" clip-path="url(#clipPath2)" stroke="none"/>
      <path fill="none" d="M3084.7832 245 L3084.7832 292.5 L3191.4963 292.5 Q3191.4963 287.5 3196.4963 287.5 Q3201.4963 287.5 3201.4963 292.5 L3341.718 292.5 Q3341.718 287.5 3346.718 287.5 Q3351.718 287.5 3351.718 292.5 L3425.4202 292.5 Q3425.4202 287.5 3430.4202 287.5 Q3435.4202 287.5 3435.4202 292.5 L4188.2847 292.5 L4188.2847 315.9692" clip-path="url(#clipPath2)"/>
      <path d="M4188.2847 323.9692 L4193.2847 311.9692 L4188.2847 314.9692 L4183.2847 311.9692 Z" clip-path="url(#clipPath2)" stroke="none"/>
      <path fill="none" d="M3324.1064 527 L3324.1064 574.5 L3486.2961 574.5 Q3486.2961 569.5 3491.2961 569.5 Q3496.2961 569.5 3496.2961 574.5 L3641.8586 574.5 Q3641.8586 569.5 3646.8586 569.5 Q3651.8586 569.5 3651.8586 574.5 L4128.6982 574.5 L4128.6982 661.9534" clip-path="url(#clipPath2)"/>
      <path d="M4128.6982 669.9534 L4133.6982 657.9534 L4128.6982 660.9534 L4123.6982 657.9534 Z" clip-path="url(#clipPath2)" stroke="none"/>
      <path fill="none" d="M3325.7925 354 L3325.7925 369.5 L2250.2097 369.5 L2250.2097 488.9689" clip-path="url(#clipPath2)"/>
      <path d="M2250.2097 496.9689 L2255.2097 484.9689 L2250.2097 487.9689 L2245.2097 484.9689 Z" clip-path="url(#clipPath2)" stroke="none"/>
      <path fill="none" d="M3367.6436 354 L3367.6436 401.5 L3232.2615 401.5 Q3232.2615 396.5 3227.2615 396.5 Q3222.2615 396.5 3222.2615 401.5 L2923.3699 401.5 L2923.3699 488.9534" clip-path="url(#clipPath2)"/>
      <path d="M2923.3699 496.9534 L2928.3699 484.9534 L2923.3699 487.9534 L2918.3699 484.9534 Z" clip-path="url(#clipPath2)" stroke="none"/>
      <path fill="none" d="M2234.7097 354 L2234.7097 401.5 L2850.0007 401.5 L2850.0007 488.9534" clip-path="url(#clipPath2)"/>
      <path d="M2850.0007 496.9534 L2855.0007 484.9534 L2850.0007 487.9534 L2845.0007 484.9534 Z" clip-path="url(#clipPath2)" stroke="none"/>
      <path fill="none" d="M2886.6853 527 L2886.6853 661.9651" clip-path="url(#clipPath2)"/>
      <path d="M2886.6853 669.9651 L2891.6853 657.9651 L2886.6853 660.9651 L2881.6853 657.9651 Z" clip-path="url(#clipPath2)" stroke="none"/>
      <path fill="none" d="M3303.718 527 L3303.718 590.5 L3486.2961 590.5 Q3486.2961 585.5 3491.2961 585.5 Q3496.2961 585.5 3496.2961 590.5 L3641.8586 590.5 Q3641.8586 585.5 3646.8586 585.5 Q3651.8586 585.5 3651.8586 590.5 L3957.1406 590.5 L3957.1406 661.9612" clip-path="url(#clipPath2)"/>
      <path d="M3957.1406 669.9612 L3962.1406 657.9612 L3957.1406 660.9612 L3952.1406 657.9612 Z" clip-path="url(#clipPath2)" stroke="none"/>
      <path fill="none" d="M3222.1646 700 L3222.1646 731.5 L2035.0281 731.5 L2035.0281 738.9697" clip-path="url(#clipPath2)"/>
      <path d="M2035.0281 746.9697 L2040.0281 734.9697 L2035.0281 737.9697 L2030.0281 734.9697 Z" clip-path="url(#clipPath2)" stroke="none"/>
      <path fill="none" d="M2044.0342 354 L2044.0342 417.5 L2581.5547 417.5 L2581.5547 488.9612" clip-path="url(#clipPath2)"/>
      <path d="M2581.5547 496.9612 L2586.5547 484.9612 L2581.5547 487.9612 L2576.5547 484.9612 Z" clip-path="url(#clipPath2)" stroke="none"/>
      <path fill="none" d="M2625.573 527 L2625.573 542.5 L2710.6033 542.5 L2710.6033 661.9689" clip-path="url(#clipPath2)"/>
      <path d="M2710.6033 669.9689 L2715.6033 657.9689 L2710.6033 660.9689 L2705.6033 657.9689 Z" clip-path="url(#clipPath2)" stroke="none"/>
      <path fill="none" d="M2270.9971 527 L2270.9971 558.5 L2522.1985 558.5 L2522.1985 661.9728" clip-path="url(#clipPath2)"/>
      <path d="M2522.1985 669.9728 L2527.1985 657.9728 L2522.1985 660.9728 L2517.1985 657.9728 Z" clip-path="url(#clipPath2)" stroke="none"/>
      <path fill="none" d="M2581.5547 527 L2581.5547 661.9651" clip-path="url(#clipPath2)"/>
      <path d="M2581.5549 669.9651 L2586.5544 657.965 L2581.5547 660.9651 L2576.5547 657.9653 Z" clip-path="url(#clipPath2)" stroke="none"/>
      <path fill="none" d="M2551.8767 700 L2551.8767 715.5 L2555.2195 715.5 L2555.2195 726.5 Q2560.2195 726.5 2560.2195 731.5 Q2560.2195 736.5 2555.2195 736.5 L2555.2195 738.9692" clip-path="url(#clipPath2)"/>
      <path d="M2555.2195 746.9692 L2560.2195 734.9692 L2555.2195 737.9692 L2550.2195 734.9692 Z" clip-path="url(#clipPath2)" stroke="none"/>
      <path fill="none" d="M3289.4224 30 L3289.4224 45.5 L3352.4463 45.5 L3352.4463 52.9697" clip-path="url(#clipPath2)"/>
      <path d="M3352.4463 60.9697 L3357.4463 48.9697 L3352.4463 51.9697 L3347.4463 48.9697 Z" clip-path="url(#clipPath2)" stroke="none"/>
      <path fill="none" d="M3474.8325 30 L3474.8325 45.5 L3411.8086 45.5 L3411.8086 52.9697" clip-path="url(#clipPath2)"/>
      <path d="M3411.8086 60.9697 L3416.8086 48.9697 L3411.8086 51.9697 L3406.8086 48.9697 Z" clip-path="url(#clipPath2)" stroke="none"/>
      <path fill="none" d="M3382.1274 91 L3382.1274 113.9697" clip-path="url(#clipPath2)"/>
      <path d="M3382.1274 121.9697 L3387.1274 109.9697 L3382.1274 112.9697 L3377.1274 109.9697 Z" clip-path="url(#clipPath2)" stroke="none"/>
      <path fill="none" d="M2765.1973 30 L2765.1973 52.9697" clip-path="url(#clipPath2)"/>
      <path d="M2765.1973 60.9697 L2770.1973 48.9697 L2765.1973 51.9697 L2760.1973 48.9697 Z" clip-path="url(#clipPath2)" stroke="none"/>
      <path fill="none" d="M2731.1846 91 L2731.1846 106.5 L2673.1641 106.5 L2673.1641 113.9697" clip-path="url(#clipPath2)"/>
      <path d="M2673.1641 121.9697 L2678.1641 109.9697 L2673.1641 112.9697 L2668.1641 109.9697 Z" clip-path="url(#clipPath2)" stroke="none"/>
      <path fill="none" d="M2799.21 91 L2799.21 113.9697" clip-path="url(#clipPath2)"/>
      <path d="M2799.21 121.9697 L2804.21 109.9697 L2799.21 112.9697 L2794.21 109.9697 Z" clip-path="url(#clipPath2)" stroke="none"/>
      <path fill="none" d="M2793.4321 30 L2793.4321 45.5 L2996.292 45.5 L2996.292 52.9697" clip-path="url(#clipPath2)"/>
      <path d="M2996.292 60.9697 L3001.292 48.9697 L2996.292 51.9697 L2991.292 48.9697 Z" clip-path="url(#clipPath2)" stroke="none"/>
      <path fill="none" d="M2996.292 91 L2996.292 113.9697" clip-path="url(#clipPath2)"/>
      <path d="M2996.292 121.9697 L3001.292 109.9697 L2996.292 112.9697 L2991.292 109.9697 Z" clip-path="url(#clipPath2)" stroke="none"/>
      <path fill="none" d="M2537.5366 527 L2537.5366 542.5 L2428.1719 542.5 L2428.1719 661.9689" clip-path="url(#clipPath2)"/>
      <path d="M2428.1719 669.9689 L2433.1719 657.9689 L2428.1719 660.9689 L2423.1719 657.9689 Z" clip-path="url(#clipPath2)" stroke="none"/>
    </g>
  </g>
</svg>
