<?xml version="1.0" encoding="UTF-8"?><svg xmlns="http://www.w3.org/2000/svg" xmlns:xlink="http://www.w3.org/1999/xlink" fill-opacity="1" color-rendering="auto" color-interpolation="auto" text-rendering="auto" stroke="black" stroke-linecap="square" width="1377" stroke-miterlimit="10" shape-rendering="auto" stroke-opacity="1" fill="black" stroke-dasharray="none" font-weight="normal" stroke-width="1" height="912" font-family="'Dialog'" font-style="normal" stroke-linejoin="miter" font-size="12px" stroke-dashoffset="0" image-rendering="auto">
  <!--Generated by ySVG 2.5-->
  <defs id="genericDefs"/>
  <g>
    <defs id="defs1">
      <clipPath clipPathUnits="userSpaceOnUse" id="clipPath1">
        <path d="M0 0 L1377 0 L1377 912 L0 912 L0 0 Z"/>
      </clipPath>
      <clipPath clipPathUnits="userSpaceOnUse" id="clipPath2">
        <path d="M60 1348 L1263.6036 1348 L1263.6036 2145.158 L60 2145.158 L60 1348 Z"/>
      </clipPath>
    </defs>
    <g fill="white" text-rendering="geometricPrecision" shape-rendering="geometricPrecision" transform="scale(1.1441,1.1441) translate(-60,-1348)" stroke="white">
      <rect x="60" width="1204" height="798" y="1348" clip-path="url(#clipPath2)" stroke="none"/>
    </g>
    <g fill="rgb(255,204,0)" text-rendering="geometricPrecision" shape-rendering="geometricPrecision" transform="matrix(1.1441,0,0,1.1441,-68.6439,-1542.1988)" stroke="rgb(255,204,0)">
      <rect x="323.3743" y="1676" clip-path="url(#clipPath2)" width="194.1172" rx="4" ry="4" height="30" stroke="none"/>
    </g>
    <g text-rendering="geometricPrecision" stroke-miterlimit="1.45" shape-rendering="geometricPrecision" transform="matrix(1.1441,0,0,1.1441,-68.6439,-1542.1988)" stroke-linecap="butt">
      <rect x="323.3743" y="1676" clip-path="url(#clipPath2)" fill="none" width="194.1172" rx="4" ry="4" height="30"/>
      <text x="330.3743" xml:space="preserve" y="1695.7139" clip-path="url(#clipPath2)" font-family="sans-serif" stroke="none">The death of Octavia the Younger</text>
    </g>
    <g fill="rgb(255,204,0)" text-rendering="geometricPrecision" shape-rendering="geometricPrecision" transform="matrix(1.1441,0,0,1.1441,-68.6439,-1542.1988)" stroke="rgb(255,204,0)">
      <rect x="503.6117" y="1565" clip-path="url(#clipPath2)" width="168.752" rx="4" ry="4" height="30" stroke="none"/>
    </g>
    <g text-rendering="geometricPrecision" stroke-miterlimit="1.45" shape-rendering="geometricPrecision" transform="matrix(1.1441,0,0,1.1441,-68.6439,-1542.1988)" stroke-linecap="butt">
      <rect x="503.6117" y="1565" clip-path="url(#clipPath2)" fill="none" width="168.752" rx="4" ry="4" height="30"/>
      <text x="510.6117" xml:space="preserve" y="1584.7139" clip-path="url(#clipPath2)" font-family="sans-serif" stroke="none">The death of Marcus Agrippa</text>
    </g>
    <g fill="rgb(255,204,0)" text-rendering="geometricPrecision" shape-rendering="geometricPrecision" transform="matrix(1.1441,0,0,1.1441,-68.6439,-1542.1988)" stroke="rgb(255,204,0)">
      <rect x="336.224" y="1454" clip-path="url(#clipPath2)" width="142.7188" rx="4" ry="4" height="30" stroke="none"/>
    </g>
    <g text-rendering="geometricPrecision" stroke-miterlimit="1.45" shape-rendering="geometricPrecision" transform="matrix(1.1441,0,0,1.1441,-68.6439,-1542.1988)" stroke-linecap="butt">
      <rect x="336.224" y="1454" clip-path="url(#clipPath2)" fill="none" width="142.7188" rx="4" ry="4" height="30"/>
      <text x="343.224" xml:space="preserve" y="1473.7139" clip-path="url(#clipPath2)" font-family="sans-serif" stroke="none">The birth of Germanicus</text>
    </g>
    <g fill="rgb(255,204,0)" text-rendering="geometricPrecision" shape-rendering="geometricPrecision" transform="matrix(1.1441,0,0,1.1441,-68.6439,-1542.1988)" stroke="rgb(255,204,0)">
      <rect x="545.9724" y="1454" clip-path="url(#clipPath2)" width="174.0781" rx="4" ry="4" height="30" stroke="none"/>
    </g>
    <g text-rendering="geometricPrecision" stroke-miterlimit="1.45" shape-rendering="geometricPrecision" transform="matrix(1.1441,0,0,1.1441,-68.6439,-1542.1988)" stroke-linecap="butt">
      <rect x="545.9724" y="1454" clip-path="url(#clipPath2)" fill="none" width="174.0781" rx="4" ry="4" height="30"/>
      <text x="552.9725" xml:space="preserve" y="1473.7139" clip-path="url(#clipPath2)" font-family="sans-serif" stroke="none">The birth of Barbatus Messala</text>
    </g>
    <g fill="rgb(255,204,0)" text-rendering="geometricPrecision" shape-rendering="geometricPrecision" transform="matrix(1.1441,0,0,1.1441,-68.6439,-1542.1988)" stroke="rgb(255,204,0)">
      <rect x="572.8133" y="1987" clip-path="url(#clipPath2)" width="134.7266" rx="4" ry="4" height="30" stroke="none"/>
    </g>
    <g text-rendering="geometricPrecision" stroke-miterlimit="1.45" shape-rendering="geometricPrecision" transform="matrix(1.1441,0,0,1.1441,-68.6439,-1542.1988)" stroke-linecap="butt">
      <rect x="572.8133" y="1987" clip-path="url(#clipPath2)" fill="none" width="134.7266" rx="4" ry="4" height="30"/>
      <text x="579.8133" xml:space="preserve" y="2006.7139" clip-path="url(#clipPath2)" font-family="sans-serif" stroke="none">The birth of Urgulanilla</text>
    </g>
    <g fill="rgb(255,204,0)" text-rendering="geometricPrecision" shape-rendering="geometricPrecision" transform="matrix(1.1441,0,0,1.1441,-68.6439,-1542.1988)" stroke="rgb(255,204,0)">
      <rect x="571.0566" y="2109" clip-path="url(#clipPath2)" width="141.4121" rx="4" ry="4" height="30" stroke="none"/>
    </g>
    <g text-rendering="geometricPrecision" stroke-miterlimit="1.45" shape-rendering="geometricPrecision" transform="matrix(1.1441,0,0,1.1441,-68.6439,-1542.1988)" stroke-linecap="butt">
      <rect x="571.0566" y="2109" clip-path="url(#clipPath2)" fill="none" width="141.4121" rx="4" ry="4" height="30"/>
      <text x="578.0566" xml:space="preserve" y="2128.7139" clip-path="url(#clipPath2)" font-family="sans-serif" stroke="none">The death of Urgulanilla</text>
    </g>
    <g fill="rgb(255,204,0)" text-rendering="geometricPrecision" shape-rendering="geometricPrecision" transform="matrix(1.1441,0,0,1.1441,-68.6439,-1542.1988)" stroke="rgb(255,204,0)">
      <rect x="497.9398" y="1515" clip-path="url(#clipPath2)" width="180.0957" rx="4" ry="4" height="30" stroke="none"/>
    </g>
    <g text-rendering="geometricPrecision" stroke-miterlimit="1.45" shape-rendering="geometricPrecision" transform="matrix(1.1441,0,0,1.1441,-68.6439,-1542.1988)" stroke-linecap="butt">
      <rect x="497.9398" y="1515" clip-path="url(#clipPath2)" fill="none" width="180.0957" rx="4" ry="4" height="30"/>
      <text x="504.9398" xml:space="preserve" y="1534.7139" clip-path="url(#clipPath2)" font-family="sans-serif" stroke="none">The birth of Agrippina the Elder</text>
    </g>
    <g fill="rgb(255,204,0)" text-rendering="geometricPrecision" shape-rendering="geometricPrecision" transform="matrix(1.1441,0,0,1.1441,-68.6439,-1542.1988)" stroke="rgb(255,204,0)">
      <rect x="364.5694" y="1787" clip-path="url(#clipPath2)" width="174.0898" rx="4" ry="4" height="30" stroke="none"/>
    </g>
    <g text-rendering="geometricPrecision" stroke-miterlimit="1.45" shape-rendering="geometricPrecision" transform="matrix(1.1441,0,0,1.1441,-68.6439,-1542.1988)" stroke-linecap="butt">
      <rect x="364.5694" y="1787" clip-path="url(#clipPath2)" fill="none" width="174.0898" rx="4" ry="4" height="30"/>
      <text x="371.5694" xml:space="preserve" y="1806.7139" clip-path="url(#clipPath2)" font-family="sans-serif" stroke="none">The death of Drusus the Elder</text>
    </g>
    <g fill="rgb(255,204,0)" text-rendering="geometricPrecision" shape-rendering="geometricPrecision" transform="matrix(1.1441,0,0,1.1441,-68.6439,-1542.1988)" stroke="rgb(255,204,0)">
      <rect x="321.8685" y="1354" clip-path="url(#clipPath2)" width="171.4297" rx="4" ry="4" height="30" stroke="none"/>
    </g>
    <g text-rendering="geometricPrecision" stroke-miterlimit="1.45" shape-rendering="geometricPrecision" transform="matrix(1.1441,0,0,1.1441,-68.6439,-1542.1988)" stroke-linecap="butt">
      <rect x="321.8685" y="1354" clip-path="url(#clipPath2)" fill="none" width="171.4297" rx="4" ry="4" height="30"/>
      <text x="328.8685" xml:space="preserve" y="1373.7139" clip-path="url(#clipPath2)" font-family="sans-serif" stroke="none">The birth of Julia the Younger</text>
    </g>
    <g fill="rgb(255,204,0)" text-rendering="geometricPrecision" shape-rendering="geometricPrecision" transform="matrix(1.1441,0,0,1.1441,-68.6439,-1542.1988)" stroke="rgb(255,204,0)">
      <rect x="372.5762" y="1837" clip-path="url(#clipPath2)" width="158.0762" rx="4" ry="4" height="30" stroke="none"/>
    </g>
    <g text-rendering="geometricPrecision" stroke-miterlimit="1.45" shape-rendering="geometricPrecision" transform="matrix(1.1441,0,0,1.1441,-68.6439,-1542.1988)" stroke-linecap="butt">
      <rect x="372.5762" y="1837" clip-path="url(#clipPath2)" fill="none" width="158.0762" rx="4" ry="4" height="30"/>
      <text x="379.5762" xml:space="preserve" y="1856.7139" clip-path="url(#clipPath2)" font-family="sans-serif" stroke="none">The birth of Domitia Lepida</text>
    </g>
    <g fill="rgb(255,204,0)" text-rendering="geometricPrecision" shape-rendering="geometricPrecision" transform="matrix(1.1441,0,0,1.1441,-68.6439,-1542.1988)" stroke="rgb(255,204,0)">
      <rect x="345.9007" y="2109" clip-path="url(#clipPath2)" width="121.3906" rx="4" ry="4" height="30" stroke="none"/>
    </g>
    <g text-rendering="geometricPrecision" stroke-miterlimit="1.45" shape-rendering="geometricPrecision" transform="matrix(1.1441,0,0,1.1441,-68.6439,-1542.1988)" stroke-linecap="butt">
      <rect x="345.9007" y="2109" clip-path="url(#clipPath2)" fill="none" width="121.3906" rx="4" ry="4" height="30"/>
      <text x="352.9007" xml:space="preserve" y="2128.7139" clip-path="url(#clipPath2)" font-family="sans-serif" stroke="none">The birth of Caligula</text>
    </g>
    <g fill="rgb(255,204,0)" text-rendering="geometricPrecision" shape-rendering="geometricPrecision" transform="matrix(1.1441,0,0,1.1441,-68.6439,-1542.1988)" stroke="rgb(255,204,0)">
      <rect x="499.9467" y="1615" clip-path="url(#clipPath2)" width="176.082" rx="4" ry="4" height="30" stroke="none"/>
    </g>
    <g text-rendering="geometricPrecision" stroke-miterlimit="1.45" shape-rendering="geometricPrecision" transform="matrix(1.1441,0,0,1.1441,-68.6439,-1542.1988)" stroke-linecap="butt">
      <rect x="499.9467" y="1615" clip-path="url(#clipPath2)" fill="none" width="176.082" rx="4" ry="4" height="30"/>
      <text x="506.9467" xml:space="preserve" y="1634.7139" clip-path="url(#clipPath2)" font-family="sans-serif" stroke="none">The birth of Agrippa Postumus</text>
    </g>
    <g fill="rgb(255,204,0)" text-rendering="geometricPrecision" shape-rendering="geometricPrecision" transform="matrix(1.1441,0,0,1.1441,-68.6439,-1542.1988)" stroke="rgb(255,204,0)">
      <rect x="351.224" y="1404" clip-path="url(#clipPath2)" width="112.7188" rx="4" ry="4" height="30" stroke="none"/>
    </g>
    <g text-rendering="geometricPrecision" stroke-miterlimit="1.45" shape-rendering="geometricPrecision" transform="matrix(1.1441,0,0,1.1441,-68.6439,-1542.1988)" stroke-linecap="butt">
      <rect x="351.224" y="1404" clip-path="url(#clipPath2)" fill="none" width="112.7188" rx="4" ry="4" height="30"/>
      <text x="358.224" xml:space="preserve" y="1423.7139" clip-path="url(#clipPath2)" font-family="sans-serif" stroke="none">The birth of Lucius</text>
    </g>
    <g fill="rgb(255,204,0)" text-rendering="geometricPrecision" shape-rendering="geometricPrecision" transform="matrix(1.1441,0,0,1.1441,-68.6439,-1542.1988)" stroke="rgb(255,204,0)">
      <rect x="391.9121" y="1887" clip-path="url(#clipPath2)" width="119.4043" rx="4" ry="4" height="30" stroke="none"/>
    </g>
    <g text-rendering="geometricPrecision" stroke-miterlimit="1.45" shape-rendering="geometricPrecision" transform="matrix(1.1441,0,0,1.1441,-68.6439,-1542.1988)" stroke-linecap="butt">
      <rect x="391.9121" y="1887" clip-path="url(#clipPath2)" fill="none" width="119.4043" rx="4" ry="4" height="30"/>
      <text x="398.9121" xml:space="preserve" y="1906.7139" clip-path="url(#clipPath2)" font-family="sans-serif" stroke="none">The death of Lucius</text>
    </g>
    <g fill="rgb(255,204,0)" text-rendering="geometricPrecision" shape-rendering="geometricPrecision" transform="matrix(1.1441,0,0,1.1441,-68.6439,-1542.1988)" stroke="rgb(255,204,0)">
      <rect x="361.5782" y="1987" clip-path="url(#clipPath2)" width="180.0723" rx="4" ry="4" height="30" stroke="none"/>
    </g>
    <g text-rendering="geometricPrecision" stroke-miterlimit="1.45" shape-rendering="geometricPrecision" transform="matrix(1.1441,0,0,1.1441,-68.6439,-1542.1988)" stroke-linecap="butt">
      <rect x="361.5782" y="1987" clip-path="url(#clipPath2)" fill="none" width="180.0723" rx="4" ry="4" height="30"/>
      <text x="368.5782" xml:space="preserve" y="2006.7139" clip-path="url(#clipPath2)" font-family="sans-serif" stroke="none">The birth of Nero Julius Caeser</text>
    </g>
    <g fill="rgb(255,204,0)" text-rendering="geometricPrecision" shape-rendering="geometricPrecision" transform="matrix(1.1441,0,0,1.1441,-68.6439,-1542.1988)" stroke="rgb(255,204,0)">
      <rect x="547.4918" y="1676" clip-path="url(#clipPath2)" width="244.7949" rx="4" ry="4" height="30" stroke="none"/>
    </g>
    <g text-rendering="geometricPrecision" stroke-miterlimit="1.45" shape-rendering="geometricPrecision" transform="matrix(1.1441,0,0,1.1441,-68.6439,-1542.1988)" stroke-linecap="butt">
      <rect x="547.4918" y="1676" clip-path="url(#clipPath2)" fill="none" width="244.7949" rx="4" ry="4" height="30"/>
      <text x="554.4918" xml:space="preserve" y="1695.7139" clip-path="url(#clipPath2)" font-family="sans-serif" stroke="none">The birth of Gnaeus Domitius Ahenobarbus</text>
    </g>
    <g fill="rgb(255,204,0)" text-rendering="geometricPrecision" shape-rendering="geometricPrecision" transform="matrix(1.1441,0,0,1.1441,-68.6439,-1542.1988)" stroke="rgb(255,204,0)">
      <rect x="327.5667" y="2048" clip-path="url(#clipPath2)" width="158.0586" rx="4" ry="4" height="30" stroke="none"/>
    </g>
    <g text-rendering="geometricPrecision" stroke-miterlimit="1.45" shape-rendering="geometricPrecision" transform="matrix(1.1441,0,0,1.1441,-68.6439,-1542.1988)" stroke-linecap="butt">
      <rect x="327.5667" y="2048" clip-path="url(#clipPath2)" fill="none" width="158.0586" rx="4" ry="4" height="30"/>
      <text x="334.5667" xml:space="preserve" y="2067.7139" clip-path="url(#clipPath2)" font-family="sans-serif" stroke="none">The birth of Drusus Caesar</text>
    </g>
    <g fill="rgb(255,204,0)" text-rendering="geometricPrecision" shape-rendering="geometricPrecision" transform="matrix(1.1441,0,0,1.1441,-68.6439,-1542.1988)" stroke="rgb(255,204,0)">
      <rect x="389.252" y="1737" clip-path="url(#clipPath2)" width="124.7246" rx="4" ry="4" height="30" stroke="none"/>
    </g>
    <g text-rendering="geometricPrecision" stroke-miterlimit="1.45" shape-rendering="geometricPrecision" transform="matrix(1.1441,0,0,1.1441,-68.6439,-1542.1988)" stroke-linecap="butt">
      <rect x="389.252" y="1737" clip-path="url(#clipPath2)" fill="none" width="124.7246" rx="4" ry="4" height="30"/>
      <text x="396.252" xml:space="preserve" y="1756.7139" clip-path="url(#clipPath2)" font-family="sans-serif" stroke="none">The birth of Claudius</text>
    </g>
    <g fill="rgb(255,204,0)" text-rendering="geometricPrecision" shape-rendering="geometricPrecision" transform="matrix(1.1441,0,0,1.1441,-68.6439,-1542.1988)" stroke="rgb(255,204,0)">
      <rect x="298.5344" y="1565" clip-path="url(#clipPath2)" width="146.7383" rx="4" ry="4" height="30" stroke="none"/>
    </g>
    <g text-rendering="geometricPrecision" stroke-miterlimit="1.45" shape-rendering="geometricPrecision" transform="matrix(1.1441,0,0,1.1441,-68.6439,-1542.1988)" stroke-linecap="butt">
      <rect x="298.5344" y="1565" clip-path="url(#clipPath2)" fill="none" width="146.7383" rx="4" ry="4" height="30"/>
      <text x="305.5344" xml:space="preserve" y="1584.7139" clip-path="url(#clipPath2)" font-family="sans-serif" stroke="none">The birth of Claudia Livia</text>
    </g>
    <g fill="rgb(255,204,0)" text-rendering="geometricPrecision" shape-rendering="geometricPrecision" transform="matrix(1.1441,0,0,1.1441,-68.6439,-1542.1988)" stroke="rgb(255,204,0)">
      <rect x="393.916" y="1937" clip-path="url(#clipPath2)" width="115.3965" rx="4" ry="4" height="30" stroke="none"/>
    </g>
    <g text-rendering="geometricPrecision" stroke-miterlimit="1.45" shape-rendering="geometricPrecision" transform="matrix(1.1441,0,0,1.1441,-68.6439,-1542.1988)" stroke-linecap="butt">
      <rect x="393.916" y="1937" clip-path="url(#clipPath2)" fill="none" width="115.3965" rx="4" ry="4" height="30"/>
      <text x="400.916" xml:space="preserve" y="1956.7139" clip-path="url(#clipPath2)" font-family="sans-serif" stroke="none">The death of Caius</text>
    </g>
    <g fill="rgb(255,204,0)" text-rendering="geometricPrecision" shape-rendering="geometricPrecision" transform="matrix(1.1441,0,0,1.1441,-68.6439,-1542.1988)" stroke="rgb(255,204,0)">
      <rect x="515.6253" y="2048" clip-path="url(#clipPath2)" width="166.0684" rx="4" ry="4" height="30" stroke="none"/>
    </g>
    <g text-rendering="geometricPrecision" stroke-miterlimit="1.45" shape-rendering="geometricPrecision" transform="matrix(1.1441,0,0,1.1441,-68.6439,-1542.1988)" stroke-linecap="butt">
      <rect x="515.6253" y="2048" clip-path="url(#clipPath2)" fill="none" width="166.0684" rx="4" ry="4" height="30"/>
      <text x="522.6254" xml:space="preserve" y="2067.7139" clip-path="url(#clipPath2)" font-family="sans-serif" stroke="none">The birth of Claudius Drusus</text>
    </g>
    <g fill="rgb(255,204,0)" text-rendering="geometricPrecision" shape-rendering="geometricPrecision" transform="matrix(1.1441,0,0,1.1441,-68.6439,-1542.1988)" stroke="rgb(255,204,0)">
      <rect x="275.8674" y="1515" clip-path="url(#clipPath2)" width="192.0723" rx="4" ry="4" height="30" stroke="none"/>
    </g>
    <g text-rendering="geometricPrecision" stroke-miterlimit="1.45" shape-rendering="geometricPrecision" transform="matrix(1.1441,0,0,1.1441,-68.6439,-1542.1988)" stroke-linecap="butt">
      <rect x="275.8674" y="1515" clip-path="url(#clipPath2)" fill="none" width="192.0723" rx="4" ry="4" height="30"/>
      <text x="282.8674" xml:space="preserve" y="1534.7139" clip-path="url(#clipPath2)" font-family="sans-serif" stroke="none">The birth of Drusus Julius Caesar</text>
      <path fill="none" d="M633.0115 1484 L633.0116 1506.9697" clip-path="url(#clipPath2)"/>
      <path d="M633.0116 1514.9697 L638.0116 1502.9697 L633.0116 1505.9697 L628.0116 1502.9697 Z" clip-path="url(#clipPath2)" stroke="none"/>
      <path fill="none" d="M443.263 1484 L443.263 1499.5 L542.9637 1499.5 L542.9637 1506.9697" clip-path="url(#clipPath2)"/>
      <path d="M542.9637 1514.9697 L547.9637 1502.9697 L542.9637 1505.9697 L537.9637 1502.9697 Z" clip-path="url(#clipPath2)" stroke="none"/>
      <path fill="none" d="M587.9877 1545 L587.9877 1556.9609" clip-path="url(#clipPath2)"/>
      <path d="M587.9877 1564.9609 L592.9877 1552.9609 L587.9877 1555.9609 L582.9877 1552.9609 Z" clip-path="url(#clipPath2)" stroke="none"/>
      <path fill="none" d="M451.6143 1817 L451.6143 1828.9609" clip-path="url(#clipPath2)"/>
      <path d="M451.6143 1836.9609 L456.6143 1824.9609 L451.6143 1827.9609 L446.6143 1824.9609 Z" clip-path="url(#clipPath2)" stroke="none"/>
      <path fill="none" d="M376.2484 2139 L376.2484 2154.5 L283.925 2154.5 L283.925 2161.9697" clip-path="url(#clipPath2)"/>
      <path d="M283.925 2169.9697 L288.925 2157.9697 L283.925 2160.9697 L278.925 2157.9697 Z" clip-path="url(#clipPath2)" stroke="none"/>
      <path fill="none" d="M436.9437 2139 L436.9437 2154.5 L448.6722 2154.5 L448.6722 2161.9697" clip-path="url(#clipPath2)"/>
      <path d="M448.6722 2169.9697 L453.6722 2157.9697 L448.6722 2160.9697 L443.6722 2157.9697 Z" clip-path="url(#clipPath2)" stroke="none"/>
      <path fill="none" d="M587.9877 1595 L587.9877 1606.9609" clip-path="url(#clipPath2)"/>
      <path d="M587.9877 1614.9609 L592.9877 1602.9609 L587.9877 1605.9609 L582.9877 1602.9609 Z" clip-path="url(#clipPath2)" stroke="none"/>
      <path fill="none" d="M543.9672 1645 L543.9672 1660.5 L468.9622 1660.5 L468.9622 1667.9697" clip-path="url(#clipPath2)"/>
      <path d="M468.9622 1675.9697 L473.9622 1663.9697 L468.9622 1666.9697 L463.9622 1663.9697 Z" clip-path="url(#clipPath2)" stroke="none"/>
      <path fill="none" d="M407.5833 1384 L407.5833 1395.9609" clip-path="url(#clipPath2)"/>
      <path d="M407.5833 1403.9609 L412.5833 1391.9609 L407.5833 1394.9609 L402.5833 1391.9609 Z" clip-path="url(#clipPath2)" stroke="none"/>
      <path fill="none" d="M407.5833 1434 L407.5833 1445.9609" clip-path="url(#clipPath2)"/>
      <path d="M407.5833 1453.9609 L412.5833 1441.9609 L407.5833 1444.9609 L402.5833 1441.9609 Z" clip-path="url(#clipPath2)" stroke="none"/>
      <path fill="none" d="M451.6143 1867 L451.6143 1878.9609" clip-path="url(#clipPath2)"/>
      <path d="M451.6143 1886.9609 L456.6143 1874.9609 L451.6143 1877.9609 L446.6143 1874.9609 Z" clip-path="url(#clipPath2)" stroke="none"/>
      <path fill="none" d="M632.0082 1645 L632.0082 1660.5 L669.8893 1660.5 L669.8893 1667.9697" clip-path="url(#clipPath2)"/>
      <path d="M669.8893 1675.9697 L674.8893 1663.9697 L669.8893 1666.9697 L664.8893 1663.9697 Z" clip-path="url(#clipPath2)" stroke="none"/>
      <path fill="none" d="M406.5962 2017 L406.5961 2039.9697" clip-path="url(#clipPath2)"/>
      <path d="M406.596 2047.9697 L411.5961 2035.9697 L406.5961 2038.9697 L401.5961 2035.9697 Z" clip-path="url(#clipPath2)" stroke="none"/>
      <path fill="none" d="M406.596 2078 L406.596 2100.9697" clip-path="url(#clipPath2)"/>
      <path d="M406.596 2108.9697 L411.596 2096.9697 L406.596 2099.9697 L401.596 2096.9697 Z" clip-path="url(#clipPath2)" stroke="none"/>
      <path fill="none" d="M669.8893 1706 L669.8893 1721.5 L482.7954 1721.5 L482.7954 1728.9697" clip-path="url(#clipPath2)"/>
      <path d="M482.7954 1736.9697 L487.7954 1724.9697 L482.7954 1727.9697 L477.7954 1724.9697 Z" clip-path="url(#clipPath2)" stroke="none"/>
      <path fill="none" d="M420.4329 1706 L420.4331 1728.9697" clip-path="url(#clipPath2)"/>
      <path d="M420.4331 1736.9697 L425.433 1724.9697 L420.4331 1727.9697 L415.433 1724.9697 Z" clip-path="url(#clipPath2)" stroke="none"/>
      <path fill="none" d="M451.6143 1767 L451.6143 1778.9609" clip-path="url(#clipPath2)"/>
      <path d="M451.6143 1786.9609 L456.6143 1774.9609 L451.6143 1777.9609 L446.6143 1774.9609 Z" clip-path="url(#clipPath2)" stroke="none"/>
      <path fill="none" d="M371.9036 1595 L371.9036 1667.9604" clip-path="url(#clipPath2)"/>
      <path d="M371.9036 1675.9604 L376.9036 1663.9604 L371.9036 1666.9604 L366.9036 1663.9604 Z" clip-path="url(#clipPath2)" stroke="none"/>
      <path fill="none" d="M407.5833 1334 L407.5833 1345.9609" clip-path="url(#clipPath2)"/>
      <path d="M407.5833 1353.9609 L412.5833 1341.9609 L407.5833 1344.9609 L402.5833 1341.9609 Z" clip-path="url(#clipPath2)" stroke="none"/>
      <path fill="none" d="M451.6143 1917 L451.6143 1928.9609" clip-path="url(#clipPath2)"/>
      <path d="M451.6143 1936.9609 L456.6143 1924.9609 L451.6143 1927.9609 L446.6143 1924.9609 Z" clip-path="url(#clipPath2)" stroke="none"/>
      <path fill="none" d="M451.6143 1967 L451.6143 1978.9609" clip-path="url(#clipPath2)"/>
      <path d="M451.6143 1986.9609 L456.6143 1974.9609 L451.6143 1977.9609 L446.6143 1974.9609 Z" clip-path="url(#clipPath2)" stroke="none"/>
      <path fill="none" d="M640.1766 2017 L640.1766 2039.9697" clip-path="url(#clipPath2)"/>
      <path d="M640.1766 2047.9697 L645.1766 2035.9697 L640.1766 2038.9697 L635.1766 2035.9697 Z" clip-path="url(#clipPath2)" stroke="none"/>
      <path fill="none" d="M496.6324 2017 L496.6324 2032.5 L557.1425 2032.5 L557.1425 2039.9697" clip-path="url(#clipPath2)"/>
      <path d="M557.1425 2047.9697 L562.1425 2035.9697 L557.1425 2038.9697 L552.1425 2035.9697 Z" clip-path="url(#clipPath2)" stroke="none"/>
      <path fill="none" d="M640.1766 2078 L640.1766 2093.5 L641.7627 2093.5 L641.7627 2100.9697" clip-path="url(#clipPath2)"/>
      <path d="M641.7627 2108.9697 L646.7627 2096.9697 L641.7627 2099.9697 L636.7627 2096.9697 Z" clip-path="url(#clipPath2)" stroke="none"/>
      <path fill="none" d="M557.1425 2078 L557.1425 2093.5 L555.5563 2093.5 L555.5562 2272.9543" clip-path="url(#clipPath2)"/>
      <path d="M555.5562 2280.9543 L560.5562 2268.9543 L555.5562 2271.9543 L550.5562 2268.9543 Z" clip-path="url(#clipPath2)" stroke="none"/>
      <path fill="none" d="M371.9037 1484 L371.9036 1506.9697" clip-path="url(#clipPath2)"/>
      <path d="M371.9036 1514.9697 L376.9036 1502.9697 L371.9036 1505.9697 L366.9036 1502.9697 Z" clip-path="url(#clipPath2)" stroke="none"/>
      <path fill="none" d="M371.9036 1545 L371.9036 1556.9609" clip-path="url(#clipPath2)"/>
      <path d="M371.9036 1564.9609 L376.9036 1552.9609 L371.9036 1555.9609 L366.9036 1552.9609 Z" clip-path="url(#clipPath2)" stroke="none"/>
    </g>
  </g>
</svg>
