<?xml version="1.0" encoding="UTF-8"?><svg xmlns="http://www.w3.org/2000/svg" xmlns:xlink="http://www.w3.org/1999/xlink" fill-opacity="1" color-rendering="auto" color-interpolation="auto" text-rendering="auto" stroke="black" stroke-linecap="square" width="833" stroke-miterlimit="10" shape-rendering="auto" stroke-opacity="1" fill="black" stroke-dasharray="none" font-weight="normal" stroke-width="1" height="723" font-family="'Dialog'" font-style="normal" stroke-linejoin="miter" font-size="12px" stroke-dashoffset="0" image-rendering="auto">
  <!--Generated by ySVG 2.5-->
  <defs id="genericDefs"/>
  <g>
    <defs id="defs1">
      <clipPath clipPathUnits="userSpaceOnUse" id="clipPath1">
        <path d="M0 0 L833 0 L833 723 L0 723 L0 0 Z"/>
      </clipPath>
      <clipPath clipPathUnits="userSpaceOnUse" id="clipPath2">
        <path d="M5 -15 L838 -15 L838 708 L5 708 L5 -15 Z"/>
      </clipPath>
    </defs>
    <g fill="white" text-rendering="geometricPrecision" shape-rendering="geometricPrecision" transform="translate(-5,15)" stroke="white">
      <rect x="5" width="833" height="723" y="-15" clip-path="url(#clipPath2)" stroke="none"/>
    </g>
    <g fill="rgb(255,204,0)" text-rendering="geometricPrecision" shape-rendering="geometricPrecision" transform="matrix(1,0,0,1,-5,15)" stroke="rgb(255,204,0)">
      <rect x="508.3291" y="174.7656" clip-path="url(#clipPath2)" width="61.3613" rx="4" ry="4" height="30" stroke="none"/>
    </g>
    <g text-rendering="geometricPrecision" stroke-miterlimit="1.45" shape-rendering="geometricPrecision" transform="matrix(1,0,0,1,-5,15)" stroke-linecap="butt">
      <rect x="508.3291" y="174.7656" clip-path="url(#clipPath2)" fill="none" width="61.3613" rx="4" ry="4" height="30"/>
      <text x="515.329" xml:space="preserve" y="194.4794" clip-path="url(#clipPath2)" font-family="sans-serif" stroke="none">Ancharia</text>
    </g>
    <g fill="rgb(255,204,0)" text-rendering="geometricPrecision" shape-rendering="geometricPrecision" transform="matrix(1,0,0,1,-5,15)" stroke="rgb(255,204,0)">
      <rect x="459.4762" y="283.0208" clip-path="url(#clipPath2)" width="106.0449" rx="4" ry="4" height="30" stroke="none"/>
    </g>
    <g text-rendering="geometricPrecision" stroke-miterlimit="1.45" shape-rendering="geometricPrecision" transform="matrix(1,0,0,1,-5,15)" stroke-linecap="butt">
      <rect x="459.4762" y="283.0208" clip-path="url(#clipPath2)" fill="none" width="106.0449" rx="4" ry="4" height="30"/>
      <text x="466.4761" xml:space="preserve" y="302.7347" clip-path="url(#clipPath2)" font-family="sans-serif" stroke="none">Octavia the Elder</text>
    </g>
    <g fill="rgb(255,204,0)" text-rendering="geometricPrecision" shape-rendering="geometricPrecision" transform="matrix(1,0,0,1,-5,15)" stroke="rgb(255,204,0)">
      <rect x="125.3534" y="174.7656" clip-path="url(#clipPath2)" width="34.6777" rx="4" ry="4" height="30" stroke="none"/>
    </g>
    <g text-rendering="geometricPrecision" stroke-miterlimit="1.45" shape-rendering="geometricPrecision" transform="matrix(1,0,0,1,-5,15)" stroke-linecap="butt">
      <rect x="125.3534" y="174.7656" clip-path="url(#clipPath2)" fill="none" width="34.6777" rx="4" ry="4" height="30"/>
      <text x="132.3534" xml:space="preserve" y="194.4794" clip-path="url(#clipPath2)" font-family="sans-serif" stroke="none">Atia</text>
    </g>
    <g fill="rgb(255,204,0)" text-rendering="geometricPrecision" shape-rendering="geometricPrecision" transform="matrix(1,0,0,1,-5,15)" stroke="rgb(255,204,0)">
      <rect x="306.0754" y="283.0208" clip-path="url(#clipPath2)" width="123.4004" rx="4" ry="4" height="30" stroke="none"/>
    </g>
    <g text-rendering="geometricPrecision" stroke-miterlimit="1.45" shape-rendering="geometricPrecision" transform="matrix(1,0,0,1,-5,15)" stroke-linecap="butt">
      <rect x="306.0754" y="283.0208" clip-path="url(#clipPath2)" fill="none" width="123.4004" rx="4" ry="4" height="30"/>
      <text x="313.0754" xml:space="preserve" y="302.7347" clip-path="url(#clipPath2)" font-family="sans-serif" stroke="none">Octavia the Younger</text>
    </g>
    <g fill="rgb(255,204,0)" text-rendering="geometricPrecision" shape-rendering="geometricPrecision" transform="matrix(1,0,0,1,-5,15)" stroke="rgb(255,204,0)">
      <rect x="118.0145" y="283.0208" clip-path="url(#clipPath2)" width="64.0332" rx="4" ry="4" height="30" stroke="none"/>
    </g>
    <g text-rendering="geometricPrecision" stroke-miterlimit="1.45" shape-rendering="geometricPrecision" transform="matrix(1,0,0,1,-5,15)" stroke-linecap="butt">
      <rect x="118.0145" y="283.0208" clip-path="url(#clipPath2)" fill="none" width="64.0332" rx="4" ry="4" height="30"/>
      <text x="125.0145" xml:space="preserve" y="302.7347" clip-path="url(#clipPath2)" font-family="sans-serif" stroke="none">Augustus</text>
    </g>
    <g fill="rgb(255,204,0)" text-rendering="geometricPrecision" shape-rendering="geometricPrecision" transform="matrix(1,0,0,1,-5,15)" stroke="rgb(255,204,0)">
      <rect x="200.0328" y="90.6757" clip-path="url(#clipPath2)" width="123.377" rx="4" ry="4" height="30" stroke="none"/>
    </g>
    <g text-rendering="geometricPrecision" stroke-miterlimit="1.45" shape-rendering="geometricPrecision" transform="matrix(1,0,0,1,-5,15)" stroke-linecap="butt">
      <rect x="200.0328" y="90.6757" clip-path="url(#clipPath2)" fill="none" width="123.377" rx="4" ry="4" height="30"/>
      <text x="207.0328" xml:space="preserve" y="110.3896" clip-path="url(#clipPath2)" font-family="sans-serif" stroke="none">Marcus Atius Balbus</text>
    </g>
    <g fill="rgb(255,204,0)" text-rendering="geometricPrecision" shape-rendering="geometricPrecision" transform="matrix(1,0,0,1,-5,15)" stroke="rgb(255,204,0)">
      <rect x="98.0131" y="90.6757" clip-path="url(#clipPath2)" width="72.0195" rx="4" ry="4" height="30" stroke="none"/>
    </g>
    <g text-rendering="geometricPrecision" stroke-miterlimit="1.45" shape-rendering="geometricPrecision" transform="matrix(1,0,0,1,-5,15)" stroke-linecap="butt">
      <rect x="98.0131" y="90.6757" clip-path="url(#clipPath2)" fill="none" width="72.0195" rx="4" ry="4" height="30"/>
      <text x="105.0131" xml:space="preserve" y="110.3896" clip-path="url(#clipPath2)" font-family="sans-serif" stroke="none">Julia Minor</text>
    </g>
    <g fill="rgb(255,204,0)" text-rendering="geometricPrecision" shape-rendering="geometricPrecision" transform="matrix(1,0,0,1,-5,15)" stroke="rgb(255,204,0)">
      <rect x="263.5571" y="0" clip-path="url(#clipPath2)" width="20.6738" rx="4" ry="4" height="30" stroke="none"/>
    </g>
    <g text-rendering="geometricPrecision" stroke-miterlimit="1.45" shape-rendering="geometricPrecision" transform="matrix(1,0,0,1,-5,15)" stroke-linecap="butt">
      <rect x="263.5571" y="0" clip-path="url(#clipPath2)" fill="none" width="20.6738" rx="4" ry="4" height="30"/>
      <text x="270.5571" xml:space="preserve" y="19.7139" clip-path="url(#clipPath2)" font-family="sans-serif" stroke="none">?</text>
    </g>
    <g fill="rgb(255,204,0)" text-rendering="geometricPrecision" shape-rendering="geometricPrecision" transform="matrix(1,0,0,1,-5,15)" stroke="rgb(255,204,0)">
      <rect x="353.4098" y="90.6757" clip-path="url(#clipPath2)" width="120.7109" rx="4" ry="4" height="30" stroke="none"/>
    </g>
    <g text-rendering="geometricPrecision" stroke-miterlimit="1.45" shape-rendering="geometricPrecision" transform="matrix(1,0,0,1,-5,15)" stroke-linecap="butt">
      <rect x="353.4098" y="90.6757" clip-path="url(#clipPath2)" fill="none" width="120.7109" rx="4" ry="4" height="30"/>
      <text x="360.4098" xml:space="preserve" y="110.3896" clip-path="url(#clipPath2)" font-family="sans-serif" stroke="none">Caius Julius Caesar</text>
    </g>
    <g fill="rgb(255,204,0)" text-rendering="geometricPrecision" shape-rendering="geometricPrecision" transform="matrix(1,0,0,1,-5,15)" stroke="rgb(255,204,0)">
      <rect x="351.2779" y="174.7656" clip-path="url(#clipPath2)" width="94.6953" rx="4" ry="4" height="30" stroke="none"/>
    </g>
    <g text-rendering="geometricPrecision" stroke-miterlimit="1.45" shape-rendering="geometricPrecision" transform="matrix(1,0,0,1,-5,15)" stroke-linecap="butt">
      <rect x="351.2779" y="174.7656" clip-path="url(#clipPath2)" fill="none" width="94.6953" rx="4" ry="4" height="30"/>
      <text x="358.278" xml:space="preserve" y="194.4794" clip-path="url(#clipPath2)" font-family="sans-serif" stroke="none">Caius Octavius</text>
    </g>
    <g fill="rgb(255,204,0)" text-rendering="geometricPrecision" shape-rendering="geometricPrecision" transform="matrix(1,0,0,1,-5,15)" stroke="rgb(255,204,0)">
      <rect x="20.0002" y="516.0962" clip-path="url(#clipPath2)" width="44.6797" rx="4" ry="4" height="30" stroke="none"/>
    </g>
    <g text-rendering="geometricPrecision" stroke-miterlimit="1.45" shape-rendering="geometricPrecision" transform="matrix(1,0,0,1,-5,15)" stroke-linecap="butt">
      <rect x="20.0002" y="516.0962" clip-path="url(#clipPath2)" fill="none" width="44.6797" rx="4" ry="4" height="30"/>
      <text x="27.0002" xml:space="preserve" y="535.8101" clip-path="url(#clipPath2)" font-family="sans-serif" stroke="none">Caius</text>
    </g>
    <g fill="rgb(255,204,0)" text-rendering="geometricPrecision" shape-rendering="geometricPrecision" transform="matrix(1,0,0,1,-5,15)" stroke="rgb(255,204,0)">
      <rect x="94.6801" y="516.0962" clip-path="url(#clipPath2)" width="48.6875" rx="4" ry="4" height="30" stroke="none"/>
    </g>
    <g text-rendering="geometricPrecision" stroke-miterlimit="1.45" shape-rendering="geometricPrecision" transform="matrix(1,0,0,1,-5,15)" stroke-linecap="butt">
      <rect x="94.6801" y="516.0962" clip-path="url(#clipPath2)" fill="none" width="48.6875" rx="4" ry="4" height="30"/>
      <text x="101.6801" xml:space="preserve" y="535.8101" clip-path="url(#clipPath2)" font-family="sans-serif" stroke="none">Lucius</text>
    </g>
    <g fill="rgb(255,204,0)" text-rendering="geometricPrecision" shape-rendering="geometricPrecision" transform="matrix(1,0,0,1,-5,15)" stroke="rgb(255,204,0)">
      <rect x="268.0691" y="516.0962" clip-path="url(#clipPath2)" width="112.0508" rx="4" ry="4" height="30" stroke="none"/>
    </g>
    <g text-rendering="geometricPrecision" stroke-miterlimit="1.45" shape-rendering="geometricPrecision" transform="matrix(1,0,0,1,-5,15)" stroke-linecap="butt">
      <rect x="268.0691" y="516.0962" clip-path="url(#clipPath2)" fill="none" width="112.0508" rx="4" ry="4" height="30"/>
      <text x="275.0691" xml:space="preserve" y="535.8101" clip-path="url(#clipPath2)" font-family="sans-serif" stroke="none">Agrippa Postumus</text>
    </g>
    <g fill="rgb(255,204,0)" text-rendering="geometricPrecision" shape-rendering="geometricPrecision" transform="matrix(1,0,0,1,-5,15)" stroke="rgb(255,204,0)">
      <rect x="556.1849" y="516.0962" clip-path="url(#clipPath2)" width="107.3984" rx="4" ry="4" height="30" stroke="none"/>
    </g>
    <g text-rendering="geometricPrecision" stroke-miterlimit="1.45" shape-rendering="geometricPrecision" transform="matrix(1,0,0,1,-5,15)" stroke-linecap="butt">
      <rect x="556.1849" y="516.0962" clip-path="url(#clipPath2)" fill="none" width="107.3984" rx="4" ry="4" height="30"/>
      <text x="563.1849" xml:space="preserve" y="535.8101" clip-path="url(#clipPath2)" font-family="sans-serif" stroke="none">Julia the Younger</text>
    </g>
    <g fill="rgb(255,204,0)" text-rendering="geometricPrecision" shape-rendering="geometricPrecision" transform="matrix(1,0,0,1,-5,15)" stroke="rgb(255,204,0)">
      <rect x="173.3677" y="516.0962" clip-path="url(#clipPath2)" width="64.7012" rx="4" ry="4" height="30" stroke="none"/>
    </g>
    <g text-rendering="geometricPrecision" stroke-miterlimit="1.45" shape-rendering="geometricPrecision" transform="matrix(1,0,0,1,-5,15)" stroke-linecap="butt">
      <rect x="173.3677" y="516.0962" clip-path="url(#clipPath2)" fill="none" width="64.7012" rx="4" ry="4" height="30"/>
      <text x="180.3677" xml:space="preserve" y="535.8101" clip-path="url(#clipPath2)" font-family="sans-serif" stroke="none">Agrippina</text>
    </g>
    <g fill="rgb(255,204,0)" text-rendering="geometricPrecision" shape-rendering="geometricPrecision" transform="matrix(1,0,0,1,-5,15)" stroke="rgb(255,204,0)">
      <rect x="423.6419" y="360.0208" clip-path="url(#clipPath2)" width="98.0352" rx="4" ry="4" height="30" stroke="none"/>
    </g>
    <g text-rendering="geometricPrecision" stroke-miterlimit="1.45" shape-rendering="geometricPrecision" transform="matrix(1,0,0,1,-5,15)" stroke-linecap="butt">
      <rect x="423.6419" y="360.0208" clip-path="url(#clipPath2)" fill="none" width="98.0352" rx="4" ry="4" height="30"/>
      <text x="430.6419" xml:space="preserve" y="379.7347" clip-path="url(#clipPath2)" font-family="sans-serif" stroke="none">Marcus Agrippa</text>
    </g>
    <g fill="rgb(255,204,0)" text-rendering="geometricPrecision" shape-rendering="geometricPrecision" transform="matrix(1,0,0,1,-5,15)" stroke="rgb(255,204,0)">
      <rect x="152.0249" y="360.0208" clip-path="url(#clipPath2)" width="90.043" rx="4" ry="4" height="30" stroke="none"/>
    </g>
    <g text-rendering="geometricPrecision" stroke-miterlimit="1.45" shape-rendering="geometricPrecision" transform="matrix(1,0,0,1,-5,15)" stroke-linecap="butt">
      <rect x="152.0249" y="360.0208" clip-path="url(#clipPath2)" fill="none" width="90.043" rx="4" ry="4" height="30"/>
      <text x="159.0249" xml:space="preserve" y="379.7347" clip-path="url(#clipPath2)" font-family="sans-serif" stroke="none">Julia the Elder</text>
    </g>
    <g fill="rgb(255,204,0)" text-rendering="geometricPrecision" shape-rendering="geometricPrecision" transform="matrix(1,0,0,1,-5,15)" stroke="rgb(255,204,0)">
      <rect x="212.048" y="283.0208" clip-path="url(#clipPath2)" width="64.0273" rx="4" ry="4" height="30" stroke="none"/>
    </g>
    <g text-rendering="geometricPrecision" stroke-miterlimit="1.45" shape-rendering="geometricPrecision" transform="matrix(1,0,0,1,-5,15)" stroke-linecap="butt">
      <rect x="212.048" y="283.0208" clip-path="url(#clipPath2)" fill="none" width="64.0273" rx="4" ry="4" height="30"/>
      <text x="219.048" xml:space="preserve" y="302.7347" clip-path="url(#clipPath2)" font-family="sans-serif" stroke="none">Scribonia</text>
    </g>
    <g fill="rgb(255,204,0)" text-rendering="geometricPrecision" shape-rendering="geometricPrecision" transform="matrix(1,0,0,1,-5,15)" stroke="rgb(255,204,0)">
      <rect x="410.1202" y="516.0962" clip-path="url(#clipPath2)" width="116.0645" rx="4" ry="4" height="30" stroke="none"/>
    </g>
    <g text-rendering="geometricPrecision" stroke-miterlimit="1.45" shape-rendering="geometricPrecision" transform="matrix(1,0,0,1,-5,15)" stroke-linecap="butt">
      <rect x="410.1202" y="516.0962" clip-path="url(#clipPath2)" fill="none" width="116.0645" rx="4" ry="4" height="30"/>
      <text x="417.1201" xml:space="preserve" y="535.8101" clip-path="url(#clipPath2)" font-family="sans-serif" stroke="none">Agrippina the Elder</text>
    </g>
    <g fill="rgb(255,204,0)" text-rendering="geometricPrecision" shape-rendering="geometricPrecision" transform="matrix(1,0,0,1,-5,15)" stroke="rgb(255,204,0)">
      <rect x="693.5836" y="516.0962" clip-path="url(#clipPath2)" width="78.6875" rx="4" ry="4" height="30" stroke="none"/>
    </g>
    <g text-rendering="geometricPrecision" stroke-miterlimit="1.45" shape-rendering="geometricPrecision" transform="matrix(1,0,0,1,-5,15)" stroke-linecap="butt">
      <rect x="693.5836" y="516.0962" clip-path="url(#clipPath2)" fill="none" width="78.6875" rx="4" ry="4" height="30"/>
      <text x="700.5836" xml:space="preserve" y="535.8101" clip-path="url(#clipPath2)" font-family="sans-serif" stroke="none">Germanicus</text>
    </g>
    <g fill="rgb(255,204,0)" text-rendering="geometricPrecision" shape-rendering="geometricPrecision" transform="matrix(1,0,0,1,-5,15)" stroke="rgb(255,204,0)">
      <rect x="262.2142" y="662.0617" clip-path="url(#clipPath2)" width="133.4199" rx="4" ry="4" height="30" stroke="none"/>
    </g>
    <g text-rendering="geometricPrecision" stroke-miterlimit="1.45" shape-rendering="geometricPrecision" transform="matrix(1,0,0,1,-5,15)" stroke-linecap="butt">
      <rect x="262.2142" y="662.0617" clip-path="url(#clipPath2)" fill="none" width="133.4199" rx="4" ry="4" height="30"/>
      <text x="269.2142" xml:space="preserve" y="681.7755" clip-path="url(#clipPath2)" font-family="sans-serif" stroke="none">Agrippina the Younger</text>
    </g>
    <g fill="rgb(255,204,0)" text-rendering="geometricPrecision" shape-rendering="geometricPrecision" transform="matrix(1,0,0,1,-5,15)" stroke="rgb(255,204,0)">
      <rect x="425.6342" y="662.0617" clip-path="url(#clipPath2)" width="54.0078" rx="4" ry="4" height="30" stroke="none"/>
    </g>
    <g text-rendering="geometricPrecision" stroke-miterlimit="1.45" shape-rendering="geometricPrecision" transform="matrix(1,0,0,1,-5,15)" stroke-linecap="butt">
      <rect x="425.6342" y="662.0617" clip-path="url(#clipPath2)" fill="none" width="54.0078" rx="4" ry="4" height="30"/>
      <text x="432.6342" xml:space="preserve" y="681.7755" clip-path="url(#clipPath2)" font-family="sans-serif" stroke="none">Drusilla</text>
    </g>
    <g fill="rgb(255,204,0)" text-rendering="geometricPrecision" shape-rendering="geometricPrecision" transform="matrix(1,0,0,1,-5,15)" stroke="rgb(255,204,0)">
      <rect x="509.6422" y="662.0617" clip-path="url(#clipPath2)" width="44.0117" rx="4" ry="4" height="30" stroke="none"/>
    </g>
    <g text-rendering="geometricPrecision" stroke-miterlimit="1.45" shape-rendering="geometricPrecision" transform="matrix(1,0,0,1,-5,15)" stroke-linecap="butt">
      <rect x="509.6422" y="662.0617" clip-path="url(#clipPath2)" fill="none" width="44.0117" rx="4" ry="4" height="30"/>
      <text x="516.6422" xml:space="preserve" y="681.7755" clip-path="url(#clipPath2)" font-family="sans-serif" stroke="none">Livilla</text>
    </g>
    <g fill="rgb(255,204,0)" text-rendering="geometricPrecision" shape-rendering="geometricPrecision" transform="matrix(1,0,0,1,-5,15)" stroke="rgb(255,204,0)">
      <rect x="583.6542" y="662.0617" clip-path="url(#clipPath2)" width="40.0098" rx="4" ry="4" height="30" stroke="none"/>
    </g>
    <g text-rendering="geometricPrecision" stroke-miterlimit="1.45" shape-rendering="geometricPrecision" transform="matrix(1,0,0,1,-5,15)" stroke-linecap="butt">
      <rect x="583.6542" y="662.0617" clip-path="url(#clipPath2)" fill="none" width="40.0098" rx="4" ry="4" height="30"/>
      <text x="590.6542" xml:space="preserve" y="681.7755" clip-path="url(#clipPath2)" font-family="sans-serif" stroke="none">Nero</text>
    </g>
    <g fill="rgb(255,204,0)" text-rendering="geometricPrecision" shape-rendering="geometricPrecision" transform="matrix(1,0,0,1,-5,15)" stroke="rgb(255,204,0)">
      <rect x="653.6642" y="662.0617" clip-path="url(#clipPath2)" width="52.0098" rx="4" ry="4" height="30" stroke="none"/>
    </g>
    <g text-rendering="geometricPrecision" stroke-miterlimit="1.45" shape-rendering="geometricPrecision" transform="matrix(1,0,0,1,-5,15)" stroke-linecap="butt">
      <rect x="653.6642" y="662.0617" clip-path="url(#clipPath2)" fill="none" width="52.0098" rx="4" ry="4" height="30"/>
      <text x="660.6642" xml:space="preserve" y="681.7755" clip-path="url(#clipPath2)" font-family="sans-serif" stroke="none">Drusus</text>
    </g>
    <g fill="rgb(255,204,0)" text-rendering="geometricPrecision" shape-rendering="geometricPrecision" transform="matrix(1,0,0,1,-5,15)" stroke="rgb(255,204,0)">
      <rect x="735.674" y="662.0617" clip-path="url(#clipPath2)" width="86.6973" rx="4" ry="4" height="30" stroke="none"/>
    </g>
    <g text-rendering="geometricPrecision" stroke-miterlimit="1.45" shape-rendering="geometricPrecision" transform="matrix(1,0,0,1,-5,15)" stroke-linecap="butt">
      <rect x="735.674" y="662.0617" clip-path="url(#clipPath2)" fill="none" width="86.6973" rx="4" ry="4" height="30"/>
      <text x="742.674" xml:space="preserve" y="681.7755" clip-path="url(#clipPath2)" font-family="sans-serif" stroke="none">Caius Caesar</text>
      <path fill="none" d="M539.0097 204.7656 L539.0098 274.9826" clip-path="url(#clipPath2)"/>
      <path d="M539.0098 282.9826 L544.0098 270.9826 L539.0098 273.9826 L534.0098 270.9826 Z" clip-path="url(#clipPath2)" stroke="none"/>
      <path fill="none" d="M151.3617 204.7656 L151.3617 215.2656 L336.9255 267.5208 L336.9255 274.9906" clip-path="url(#clipPath2)"/>
      <path d="M336.9255 282.9906 L341.9255 270.9906 L336.9255 273.9906 L331.9255 270.9906 Z" clip-path="url(#clipPath2)" stroke="none"/>
      <path fill="none" d="M134.0228 204.7656 L134.0228 274.9826" clip-path="url(#clipPath2)"/>
      <path d="M134.0228 282.9826 L139.0228 270.9826 L134.0228 273.9826 L129.0228 270.9826 Z" clip-path="url(#clipPath2)" stroke="none"/>
      <path fill="none" d="M261.7212 120.6757 L261.7212 131.1757 L151.3617 159.2656 L151.3617 166.7353" clip-path="url(#clipPath2)"/>
      <path d="M151.3617 174.7353 L156.3617 162.7353 L151.3617 165.7353 L146.3617 162.7353 Z" clip-path="url(#clipPath2)" stroke="none"/>
      <path fill="none" d="M134.0228 120.6757 L134.0228 166.7392" clip-path="url(#clipPath2)"/>
      <path d="M134.0228 174.7392 L139.0228 162.7392 L134.0228 165.7392 L129.0228 162.7392 Z" clip-path="url(#clipPath2)" stroke="none"/>
      <path fill="none" d="M268.7256 30 L268.7256 40.5 L134.0228 75.1757 L134.0228 82.6454" clip-path="url(#clipPath2)"/>
      <path d="M134.0228 90.6454 L139.0228 78.6454 L134.0228 81.6454 L129.0228 78.6454 Z" clip-path="url(#clipPath2)" stroke="none"/>
      <path fill="none" d="M279.0625 30 L279.0625 40.5 L413.7653 75.1757 L413.7653 82.6454" clip-path="url(#clipPath2)"/>
      <path d="M413.7653 90.6454 L418.7653 78.6454 L413.7653 81.6454 L408.7653 78.6454 Z" clip-path="url(#clipPath2)" stroke="none"/>
      <path fill="none" d="M430.1907 204.7656 L430.1907 215.2656 L485.9874 267.5208 L485.9874 274.9906" clip-path="url(#clipPath2)"/>
      <path d="M485.9874 282.9906 L490.9874 270.9906 L485.9874 273.9906 L480.9874 270.9906 Z" clip-path="url(#clipPath2)" stroke="none"/>
      <path fill="none" d="M398.6256 204.7656 L398.6257 274.9826" clip-path="url(#clipPath2)"/>
      <path d="M398.6257 282.9826 L403.6256 270.9826 L398.6257 273.9826 L393.6257 270.9827 Z" clip-path="url(#clipPath2)" stroke="none"/>
      <path fill="none" d="M367.0605 204.7656 L367.0605 215.2656 L259.738 243.164 Q258.4801 238.3248 253.6409 239.5827 Q248.8017 240.8407 250.0597 245.6799 L166.0394 267.5208 L166.0394 274.9906" clip-path="url(#clipPath2)"/>
      <path d="M166.0394 282.9906 L171.0394 270.9906 L166.0394 273.9906 L161.0394 270.9906 Z" clip-path="url(#clipPath2)" stroke="none"/>
      <path fill="none" d="M431.8116 390.0208 L431.8116 400.5208 L53.51 500.5962 L53.51 508.0659" clip-path="url(#clipPath2)"/>
      <path d="M53.51 516.0659 L58.51 504.0659 L53.51 507.0659 L48.51 504.0659 Z" clip-path="url(#clipPath2)" stroke="none"/>
      <path fill="none" d="M448.1507 390.0208 L448.1507 400.5208 L131.1957 500.5962 L131.1957 508.0659" clip-path="url(#clipPath2)"/>
      <path d="M131.1957 516.0659 L136.1957 504.0659 L131.1957 507.0659 L126.1957 504.0659 Z" clip-path="url(#clipPath2)" stroke="none"/>
      <path fill="none" d="M464.4899 390.0208 L464.4899 400.5208 L221.8935 500.5962 L221.8935 508.0659" clip-path="url(#clipPath2)"/>
      <path d="M221.8935 516.0659 L226.8935 504.0659 L221.8935 507.0659 L216.8935 504.0659 Z" clip-path="url(#clipPath2)" stroke="none"/>
      <path fill="none" d="M480.8291 390.0208 L480.8291 400.5208 L352.1071 500.5962 L352.1071 508.0659" clip-path="url(#clipPath2)"/>
      <path d="M352.1071 516.0659 L357.1071 504.0659 L352.1071 507.0659 L347.1071 504.0659 Z" clip-path="url(#clipPath2)" stroke="none"/>
      <path fill="none" d="M513.5075 390.0208 L513.5075 400.5208 L636.7338 500.5962 L636.7338 508.0659" clip-path="url(#clipPath2)"/>
      <path d="M636.7338 516.0659 L641.7338 504.0659 L636.7338 507.0659 L631.7338 504.0659 Z" clip-path="url(#clipPath2)" stroke="none"/>
      <path fill="none" d="M150.0311 313.0208 L150.0311 323.5208 L174.5357 344.5208 L174.5357 351.9906" clip-path="url(#clipPath2)"/>
      <path d="M174.5357 359.9906 L179.5357 347.9906 L174.5357 350.9906 L169.5357 347.9906 Z" clip-path="url(#clipPath2)" stroke="none"/>
      <path fill="none" d="M159.5285 390.0208 L159.5285 400.5208 L31.1702 500.5962 L31.1702 508.0659" clip-path="url(#clipPath2)"/>
      <path d="M31.1702 516.0659 L36.1702 504.0659 L31.1702 507.0659 L26.1702 504.0659 Z" clip-path="url(#clipPath2)" stroke="none"/>
      <path fill="none" d="M174.5357 390.0208 L174.5357 400.5208 L121.2763 479.2687 Q125.418 482.0699 122.6169 486.2116 Q119.8157 490.3533 115.674 487.5521 L106.8519 500.5962 L106.8519 508.0659" clip-path="url(#clipPath2)"/>
      <path d="M106.8519 516.0659 L111.8519 504.0659 L106.8519 507.0659 L101.8519 504.0659 Z" clip-path="url(#clipPath2)" stroke="none"/>
      <path fill="none" d="M189.5428 390.0208 L189.5429 459.6103 Q194.5429 459.6103 194.5429 464.6103 Q194.5429 469.6103 189.5429 469.6103 L189.5429 477.1737 Q194.5429 477.1736 194.5429 482.1736 Q194.5429 487.1736 189.5429 487.1737 L189.543 508.0654" clip-path="url(#clipPath2)"/>
      <path d="M189.543 516.0654 L194.543 504.0654 L189.543 507.0654 L184.543 504.0654 Z" clip-path="url(#clipPath2)" stroke="none"/>
      <path fill="none" d="M204.55 390.0208 L204.55 400.5208 L245.45 445.2385 Q249.1395 441.8639 252.5141 445.5534 Q255.8886 449.243 252.1991 452.6175 L255.7603 456.5112 Q259.4499 453.1367 262.8244 456.8262 Q266.1989 460.5157 262.5094 463.8902 L272.3839 474.6865 Q276.0735 471.3119 279.448 475.0014 Q282.8225 478.6909 279.133 482.0655 L296.0818 500.5962 L296.0818 508.0659" clip-path="url(#clipPath2)"/>
      <path d="M296.0818 516.0659 L301.0818 504.0659 L296.0818 507.0659 L291.0818 504.0659 Z" clip-path="url(#clipPath2)" stroke="none"/>
      <path fill="none" d="M234.5643 390.0208 L234.5643 400.5208 L324.334 426.3014 Q325.7142 421.4956 330.5199 422.8757 Q335.3257 424.2559 333.9456 429.0616 L341.6096 431.2626 Q342.9897 426.4569 347.7955 427.837 Q352.6012 429.2172 351.2211 434.0229 L365.3139 438.0701 Q366.694 433.2644 371.4998 434.6445 Q376.3055 436.0247 374.9254 440.8304 L409.5938 450.7867 Q410.9739 445.9809 415.7797 447.3611 Q420.5854 448.7412 419.2053 453.5469 L583.0345 500.5962 L583.0345 508.0659" clip-path="url(#clipPath2)"/>
      <path d="M583.0345 516.0659 L588.0345 504.0659 L583.0345 507.0659 L578.0345 504.0659 Z" clip-path="url(#clipPath2)" stroke="none"/>
      <path fill="none" d="M244.0617 313.0208 L244.0617 323.5208 L219.5572 344.5208 L219.5572 351.9906" clip-path="url(#clipPath2)"/>
      <path d="M219.5572 359.9906 L224.5572 347.9906 L219.5572 350.9906 L214.5572 347.9906 Z" clip-path="url(#clipPath2)" stroke="none"/>
      <path fill="none" d="M219.5572 390.0208 L219.5572 400.5208 L292.9605 433.9751 Q295.0341 429.4254 299.5838 431.499 Q304.1336 433.5726 302.06 438.1223 L308.5604 441.085 Q310.634 436.5352 315.1837 438.6088 Q319.7335 440.6824 317.6599 445.2321 L331.3747 451.4828 Q333.4483 446.9331 337.9981 449.0067 L337.9981 449.0067 Q342.5478 451.0803 340.4742 455.63 L379.7208 473.5171 Q381.7944 468.9673 386.3442 471.0409 Q390.8939 473.1145 388.8203 477.6642 L439.1363 500.5962 L439.1363 508.0659" clip-path="url(#clipPath2)"/>
      <path d="M439.1363 516.0659 L444.1363 504.0659 L439.1363 507.0659 L434.1363 504.0659 Z" clip-path="url(#clipPath2)" stroke="none"/>
      <path fill="none" d="M497.1683 390.0208 L497.1684 470.9368 Q502.1684 470.9368 502.1684 475.9368 Q502.1685 480.9368 497.1685 480.9368 L497.1685 508.0654" clip-path="url(#clipPath2)"/>
      <path d="M497.1685 516.0654 L502.1685 504.0654 L497.1685 507.0654 L492.1685 504.0654 Z" clip-path="url(#clipPath2)" stroke="none"/>
      <path fill="none" d="M700.1409 546.0963 L700.1409 556.5963 L362.2792 646.5616 L362.2792 654.0314" clip-path="url(#clipPath2)"/>
      <path d="M362.2792 662.0314 L367.2792 650.0314 L362.2792 653.0314 L357.2792 650.0314 Z" clip-path="url(#clipPath2)" stroke="none"/>
      <path fill="none" d="M419.7922 546.0963 L419.7922 556.5963 L295.5692 646.5616 L295.5692 654.0314" clip-path="url(#clipPath2)"/>
      <path d="M295.5692 662.0314 L300.5692 650.0314 L295.5692 653.0314 L290.5692 650.0314 Z" clip-path="url(#clipPath2)" stroke="none"/>
      <path fill="none" d="M713.2555 546.0963 L713.2555 556.5963 L466.14 646.5616 L466.14 654.0314" clip-path="url(#clipPath2)"/>
      <path d="M466.14 662.0314 L471.14 650.0314 L466.14 653.0314 L461.14 650.0314 Z" clip-path="url(#clipPath2)" stroke="none"/>
      <path fill="none" d="M439.1363 546.0963 L439.1362 621.0963 Q444.1362 621.0963 444.1362 626.0963 Q444.1362 631.0963 439.1362 631.0963 L439.1361 654.0333" clip-path="url(#clipPath2)"/>
      <path d="M439.1361 662.0333 L444.1361 650.0333 L439.1361 653.0333 L434.1361 650.0333 Z" clip-path="url(#clipPath2)" stroke="none"/>
      <path fill="none" d="M726.3701 546.0963 L726.3701 556.5963 L542.6509 646.5616 L542.6509 654.0314" clip-path="url(#clipPath2)"/>
      <path d="M542.6509 662.0314 L547.6509 650.0314 L542.6509 653.0314 L537.6509 650.0314 Z" clip-path="url(#clipPath2)" stroke="none"/>
      <path fill="none" d="M458.4803 546.0963 L458.4803 556.5963 L493.1924 606.8318 Q497.3059 603.9895 500.1483 608.103 Q502.9907 612.2165 498.8771 615.0589 L506.8473 626.5934 Q510.9608 623.751 513.8032 627.8645 Q516.6456 631.978 512.532 634.8204 L520.6451 646.5616 L520.6451 654.0314" clip-path="url(#clipPath2)"/>
      <path d="M520.6451 662.0314 L525.6451 650.0314 L520.6451 653.0314 L515.6451 650.0314 Z" clip-path="url(#clipPath2)" stroke="none"/>
      <path fill="none" d="M739.4847 546.0963 L739.4847 556.5963 L613.6616 646.5616 L613.6616 654.0314" clip-path="url(#clipPath2)"/>
      <path d="M613.6616 662.0314 L618.6616 650.0314 L613.6616 653.0314 L608.6616 650.0314 Z" clip-path="url(#clipPath2)" stroke="none"/>
      <path fill="none" d="M477.8244 546.0963 L477.8244 556.5963 L530.635 597.6135 Q533.702 593.6647 537.6509 596.7318 Q541.5997 599.7988 538.5327 603.7476 L549.0118 611.8865 Q552.0788 607.9377 556.0276 611.0047 Q559.9765 614.0717 556.9095 618.0206 L569.9846 628.1759 Q573.0516 624.2271 577.0005 627.2941 Q580.9493 630.3611 577.8823 634.3099 L593.6567 646.5616 L593.6567 654.0314" clip-path="url(#clipPath2)"/>
      <path d="M593.6567 662.0314 L598.6567 650.0314 L593.6567 653.0314 L588.6567 650.0314 Z" clip-path="url(#clipPath2)" stroke="none"/>
      <path fill="none" d="M752.5992 546.0963 L752.5992 556.5963 L692.6715 646.5616 L692.6715 654.0314" clip-path="url(#clipPath2)"/>
      <path d="M692.6715 662.0314 L697.6715 650.0314 L692.6715 653.0314 L687.6715 650.0314 Z" clip-path="url(#clipPath2)" stroke="none"/>
      <path fill="none" d="M497.1685 546.0963 L497.1685 556.5963 L560.5608 590.2433 Q562.905 585.8268 567.3214 588.171 Q571.7379 590.5151 569.3937 594.9316 L580.6664 600.9149 Q583.0106 596.4985 587.4271 598.8426 Q591.8435 601.1867 589.4994 605.6032 L602.7388 612.6304 Q605.083 608.2139 609.4995 610.558 L609.4995 610.558 Q613.9159 612.9022 611.5718 617.3187 L631.8282 628.0703 Q634.1723 623.6538 638.5888 625.998 Q643.0052 628.3421 640.6611 632.7585 L666.6666 646.5616 L666.6666 654.0314" clip-path="url(#clipPath2)"/>
      <path d="M666.6666 662.0314 L671.6666 650.0314 L666.6666 653.0314 L661.6666 650.0314 Z" clip-path="url(#clipPath2)" stroke="none"/>
      <path fill="none" d="M765.7139 546.0963 L765.7139 556.5963 L800.697 646.5616 L800.697 654.0314" clip-path="url(#clipPath2)"/>
      <path d="M800.697 662.0314 L805.697 650.0314 L800.697 653.0314 L795.697 650.0314 Z" clip-path="url(#clipPath2)" stroke="none"/>
      <path fill="none" d="M516.5126 546.0963 L516.5126 556.5963 L588.2491 583.3938 Q589.9988 578.7099 594.6826 580.4596 Q599.3665 582.2093 597.6168 586.8931 L608.9341 591.1208 Q610.6838 586.437 615.3677 588.1866 Q620.0516 589.9363 618.3019 594.6202 L630.8738 599.3165 Q632.6235 594.6326 637.3074 596.3823 L637.3074 596.3823 Q641.9913 598.132 640.2416 602.8159 L658.2854 609.5562 Q660.0351 604.8723 664.719 606.622 Q669.4028 608.3717 667.6531 613.0555 L700.8746 625.4656 Q702.6243 620.7817 707.3082 622.5314 Q711.9921 624.2811 710.2424 628.965 L757.3483 646.5616 L757.3483 654.0314" clip-path="url(#clipPath2)"/>
      <path d="M757.3483 662.0314 L762.3483 650.0314 L757.3483 653.0314 L752.3483 650.0314 Z" clip-path="url(#clipPath2)" stroke="none"/>
    </g>
  </g>
</svg>
