<?xml version="1.0" encoding="UTF-8"?><svg xmlns="http://www.w3.org/2000/svg" xmlns:xlink="http://www.w3.org/1999/xlink" fill-opacity="1" color-rendering="auto" color-interpolation="auto" text-rendering="auto" stroke="black" stroke-linecap="square" width="716" stroke-miterlimit="10" shape-rendering="auto" stroke-opacity="1" fill="black" stroke-dasharray="none" font-weight="normal" stroke-width="1" height="566" font-family="'Dialog'" font-style="normal" stroke-linejoin="miter" font-size="12px" stroke-dashoffset="0" image-rendering="auto">
  <!--Generated by ySVG 2.5-->
  <defs id="genericDefs"/>
  <g>
    <defs id="defs1">
      <clipPath clipPathUnits="userSpaceOnUse" id="clipPath1">
        <path d="M0 0 L716 0 L716 566 L0 566 L0 0 Z"/>
      </clipPath>
      <clipPath clipPathUnits="userSpaceOnUse" id="clipPath2">
        <path d="M5 -15 L721 -15 L721 551 L5 551 L5 -15 Z"/>
      </clipPath>
    </defs>
    <g fill="white" text-rendering="geometricPrecision" shape-rendering="geometricPrecision" transform="translate(-5,15)" stroke="white">
      <rect x="5" width="716" height="566" y="-15" clip-path="url(#clipPath2)" stroke="none"/>
    </g>
    <g fill="rgb(255,204,0)" text-rendering="geometricPrecision" shape-rendering="geometricPrecision" transform="matrix(1,0,0,1,-5,15)" stroke="rgb(255,204,0)">
      <rect x="644.0348" y="167.6757" clip-path="url(#clipPath2)" width="61.3613" rx="4" ry="4" height="30" stroke="none"/>
    </g>
    <g text-rendering="geometricPrecision" stroke-miterlimit="1.45" shape-rendering="geometricPrecision" transform="matrix(1,0,0,1,-5,15)" stroke-linecap="butt">
      <rect x="644.0348" y="167.6757" clip-path="url(#clipPath2)" fill="none" width="61.3613" rx="4" ry="4" height="30"/>
      <text x="651.0348" xml:space="preserve" y="187.3896" clip-path="url(#clipPath2)" font-family="sans-serif" stroke="none">Ancharia</text>
    </g>
    <g fill="rgb(255,204,0)" text-rendering="geometricPrecision" shape-rendering="geometricPrecision" transform="matrix(1,0,0,1,-5,15)" stroke="rgb(255,204,0)">
      <rect x="595.1819" y="252.4241" clip-path="url(#clipPath2)" width="106.0449" rx="4" ry="4" height="30" stroke="none"/>
    </g>
    <g text-rendering="geometricPrecision" stroke-miterlimit="1.45" shape-rendering="geometricPrecision" transform="matrix(1,0,0,1,-5,15)" stroke-linecap="butt">
      <rect x="595.1819" y="252.4241" clip-path="url(#clipPath2)" fill="none" width="106.0449" rx="4" ry="4" height="30"/>
      <text x="602.1819" xml:space="preserve" y="272.138" clip-path="url(#clipPath2)" font-family="sans-serif" stroke="none">Octavia the Elder</text>
    </g>
    <g fill="rgb(255,204,0)" text-rendering="geometricPrecision" shape-rendering="geometricPrecision" transform="matrix(1,0,0,1,-5,15)" stroke="rgb(255,204,0)">
      <rect x="355.0865" y="167.6757" clip-path="url(#clipPath2)" width="34.6777" rx="4" ry="4" height="30" stroke="none"/>
    </g>
    <g text-rendering="geometricPrecision" stroke-miterlimit="1.45" shape-rendering="geometricPrecision" transform="matrix(1,0,0,1,-5,15)" stroke-linecap="butt">
      <rect x="355.0865" y="167.6757" clip-path="url(#clipPath2)" fill="none" width="34.6777" rx="4" ry="4" height="30"/>
      <text x="362.0865" xml:space="preserve" y="187.3896" clip-path="url(#clipPath2)" font-family="sans-serif" stroke="none">Atia</text>
    </g>
    <g fill="rgb(255,204,0)" text-rendering="geometricPrecision" shape-rendering="geometricPrecision" transform="matrix(1,0,0,1,-5,15)" stroke="rgb(255,204,0)">
      <rect x="441.7812" y="252.4241" clip-path="url(#clipPath2)" width="123.4004" rx="4" ry="4" height="30" stroke="none"/>
    </g>
    <g text-rendering="geometricPrecision" stroke-miterlimit="1.45" shape-rendering="geometricPrecision" transform="matrix(1,0,0,1,-5,15)" stroke-linecap="butt">
      <rect x="441.7812" y="252.4241" clip-path="url(#clipPath2)" fill="none" width="123.4004" rx="4" ry="4" height="30"/>
      <text x="448.7812" xml:space="preserve" y="272.138" clip-path="url(#clipPath2)" font-family="sans-serif" stroke="none">Octavia the Younger</text>
    </g>
    <g fill="rgb(255,204,0)" text-rendering="geometricPrecision" shape-rendering="geometricPrecision" transform="matrix(1,0,0,1,-5,15)" stroke="rgb(255,204,0)">
      <rect x="347.7477" y="252.4241" clip-path="url(#clipPath2)" width="64.0332" rx="4" ry="4" height="30" stroke="none"/>
    </g>
    <g text-rendering="geometricPrecision" stroke-miterlimit="1.45" shape-rendering="geometricPrecision" transform="matrix(1,0,0,1,-5,15)" stroke-linecap="butt">
      <rect x="347.7477" y="252.4241" clip-path="url(#clipPath2)" fill="none" width="64.0332" rx="4" ry="4" height="30"/>
      <text x="354.7477" xml:space="preserve" y="272.138" clip-path="url(#clipPath2)" font-family="sans-serif" stroke="none">Augustus</text>
    </g>
    <g fill="rgb(255,204,0)" text-rendering="geometricPrecision" shape-rendering="geometricPrecision" transform="matrix(1,0,0,1,-5,15)" stroke="rgb(255,204,0)">
      <rect x="374.5861" y="90.6757" clip-path="url(#clipPath2)" width="123.377" rx="4" ry="4" height="30" stroke="none"/>
    </g>
    <g text-rendering="geometricPrecision" stroke-miterlimit="1.45" shape-rendering="geometricPrecision" transform="matrix(1,0,0,1,-5,15)" stroke-linecap="butt">
      <rect x="374.5861" y="90.6757" clip-path="url(#clipPath2)" fill="none" width="123.377" rx="4" ry="4" height="30"/>
      <text x="381.5861" xml:space="preserve" y="110.3896" clip-path="url(#clipPath2)" font-family="sans-serif" stroke="none">Marcus Atius Balbus</text>
    </g>
    <g fill="rgb(255,204,0)" text-rendering="geometricPrecision" shape-rendering="geometricPrecision" transform="matrix(1,0,0,1,-5,15)" stroke="rgb(255,204,0)">
      <rect x="272.5664" y="90.6757" clip-path="url(#clipPath2)" width="72.0195" rx="4" ry="4" height="30" stroke="none"/>
    </g>
    <g text-rendering="geometricPrecision" stroke-miterlimit="1.45" shape-rendering="geometricPrecision" transform="matrix(1,0,0,1,-5,15)" stroke-linecap="butt">
      <rect x="272.5664" y="90.6757" clip-path="url(#clipPath2)" fill="none" width="72.0195" rx="4" ry="4" height="30"/>
      <text x="279.5664" xml:space="preserve" y="110.3896" clip-path="url(#clipPath2)" font-family="sans-serif" stroke="none">Julia Minor</text>
    </g>
    <g fill="rgb(255,204,0)" text-rendering="geometricPrecision" shape-rendering="geometricPrecision" transform="matrix(1,0,0,1,-5,15)" stroke="rgb(255,204,0)">
      <rect x="438.1105" y="0" clip-path="url(#clipPath2)" width="20.6738" rx="4" ry="4" height="30" stroke="none"/>
    </g>
    <g text-rendering="geometricPrecision" stroke-miterlimit="1.45" shape-rendering="geometricPrecision" transform="matrix(1,0,0,1,-5,15)" stroke-linecap="butt">
      <rect x="438.1105" y="0" clip-path="url(#clipPath2)" fill="none" width="20.6738" rx="4" ry="4" height="30"/>
      <text x="445.1105" xml:space="preserve" y="19.7139" clip-path="url(#clipPath2)" font-family="sans-serif" stroke="none">?</text>
    </g>
    <g fill="rgb(255,204,0)" text-rendering="geometricPrecision" shape-rendering="geometricPrecision" transform="matrix(1,0,0,1,-5,15)" stroke="rgb(255,204,0)">
      <rect x="527.9632" y="90.6757" clip-path="url(#clipPath2)" width="120.7109" rx="4" ry="4" height="30" stroke="none"/>
    </g>
    <g text-rendering="geometricPrecision" stroke-miterlimit="1.45" shape-rendering="geometricPrecision" transform="matrix(1,0,0,1,-5,15)" stroke-linecap="butt">
      <rect x="527.9632" y="90.6757" clip-path="url(#clipPath2)" fill="none" width="120.7109" rx="4" ry="4" height="30"/>
      <text x="534.9632" xml:space="preserve" y="110.3896" clip-path="url(#clipPath2)" font-family="sans-serif" stroke="none">Caius Julius Caesar</text>
    </g>
    <g fill="rgb(255,204,0)" text-rendering="geometricPrecision" shape-rendering="geometricPrecision" transform="matrix(1,0,0,1,-5,15)" stroke="rgb(255,204,0)">
      <rect x="486.9837" y="167.6757" clip-path="url(#clipPath2)" width="94.6953" rx="4" ry="4" height="30" stroke="none"/>
    </g>
    <g text-rendering="geometricPrecision" stroke-miterlimit="1.45" shape-rendering="geometricPrecision" transform="matrix(1,0,0,1,-5,15)" stroke-linecap="butt">
      <rect x="486.9837" y="167.6757" clip-path="url(#clipPath2)" fill="none" width="94.6953" rx="4" ry="4" height="30"/>
      <text x="493.9837" xml:space="preserve" y="187.3896" clip-path="url(#clipPath2)" font-family="sans-serif" stroke="none">Caius Octavius</text>
    </g>
    <g fill="rgb(255,204,0)" text-rendering="geometricPrecision" shape-rendering="geometricPrecision" transform="matrix(1,0,0,1,-5,15)" stroke="rgb(255,204,0)">
      <rect x="20.0004" y="391.3775" clip-path="url(#clipPath2)" width="20.6738" rx="4" ry="4" height="30" stroke="none"/>
    </g>
    <g text-rendering="geometricPrecision" stroke-miterlimit="1.45" shape-rendering="geometricPrecision" transform="matrix(1,0,0,1,-5,15)" stroke-linecap="butt">
      <rect x="20.0004" y="391.3775" clip-path="url(#clipPath2)" fill="none" width="20.6738" rx="4" ry="4" height="30"/>
      <text x="27.0004" xml:space="preserve" y="411.0914" clip-path="url(#clipPath2)" font-family="sans-serif" stroke="none">?</text>
    </g>
    <g fill="rgb(255,204,0)" text-rendering="geometricPrecision" shape-rendering="geometricPrecision" transform="matrix(1,0,0,1,-5,15)" stroke="rgb(255,204,0)">
      <rect x="22.8907" y="505.7101" clip-path="url(#clipPath2)" width="44.6797" rx="4" ry="4" height="30" stroke="none"/>
    </g>
    <g text-rendering="geometricPrecision" stroke-miterlimit="1.45" shape-rendering="geometricPrecision" transform="matrix(1,0,0,1,-5,15)" stroke-linecap="butt">
      <rect x="22.8907" y="505.7101" clip-path="url(#clipPath2)" fill="none" width="44.6797" rx="4" ry="4" height="30"/>
      <text x="29.8907" xml:space="preserve" y="525.424" clip-path="url(#clipPath2)" font-family="sans-serif" stroke="none">Caius</text>
    </g>
    <g fill="rgb(255,204,0)" text-rendering="geometricPrecision" shape-rendering="geometricPrecision" transform="matrix(1,0,0,1,-5,15)" stroke="rgb(255,204,0)">
      <rect x="70.6746" y="391.3775" clip-path="url(#clipPath2)" width="20.6738" rx="4" ry="4" height="30" stroke="none"/>
    </g>
    <g text-rendering="geometricPrecision" stroke-miterlimit="1.45" shape-rendering="geometricPrecision" transform="matrix(1,0,0,1,-5,15)" stroke-linecap="butt">
      <rect x="70.6746" y="391.3775" clip-path="url(#clipPath2)" fill="none" width="20.6738" rx="4" ry="4" height="30"/>
      <text x="77.6746" xml:space="preserve" y="411.0914" clip-path="url(#clipPath2)" font-family="sans-serif" stroke="none">?</text>
    </g>
    <g fill="rgb(255,204,0)" text-rendering="geometricPrecision" shape-rendering="geometricPrecision" transform="matrix(1,0,0,1,-5,15)" stroke="rgb(255,204,0)">
      <rect x="97.5705" y="505.7101" clip-path="url(#clipPath2)" width="48.6875" rx="4" ry="4" height="30" stroke="none"/>
    </g>
    <g text-rendering="geometricPrecision" stroke-miterlimit="1.45" shape-rendering="geometricPrecision" transform="matrix(1,0,0,1,-5,15)" stroke-linecap="butt">
      <rect x="97.5705" y="505.7101" clip-path="url(#clipPath2)" fill="none" width="48.6875" rx="4" ry="4" height="30"/>
      <text x="104.5705" xml:space="preserve" y="525.424" clip-path="url(#clipPath2)" font-family="sans-serif" stroke="none">Lucius</text>
    </g>
    <g fill="rgb(255,204,0)" text-rendering="geometricPrecision" shape-rendering="geometricPrecision" transform="matrix(1,0,0,1,-5,15)" stroke="rgb(255,204,0)">
      <rect x="420.1016" y="391.3775" clip-path="url(#clipPath2)" width="20.6738" rx="4" ry="4" height="30" stroke="none"/>
    </g>
    <g text-rendering="geometricPrecision" stroke-miterlimit="1.45" shape-rendering="geometricPrecision" transform="matrix(1,0,0,1,-5,15)" stroke-linecap="butt">
      <rect x="420.1016" y="391.3775" clip-path="url(#clipPath2)" fill="none" width="20.6738" rx="4" ry="4" height="30"/>
      <text x="427.1016" xml:space="preserve" y="411.0914" clip-path="url(#clipPath2)" font-family="sans-serif" stroke="none">?</text>
    </g>
    <g fill="rgb(255,204,0)" text-rendering="geometricPrecision" shape-rendering="geometricPrecision" transform="matrix(1,0,0,1,-5,15)" stroke="rgb(255,204,0)">
      <rect x="270.9595" y="505.7101" clip-path="url(#clipPath2)" width="112.0508" rx="4" ry="4" height="30" stroke="none"/>
    </g>
    <g text-rendering="geometricPrecision" stroke-miterlimit="1.45" shape-rendering="geometricPrecision" transform="matrix(1,0,0,1,-5,15)" stroke-linecap="butt">
      <rect x="270.9595" y="505.7101" clip-path="url(#clipPath2)" fill="none" width="112.0508" rx="4" ry="4" height="30"/>
      <text x="277.9595" xml:space="preserve" y="525.424" clip-path="url(#clipPath2)" font-family="sans-serif" stroke="none">Agrippa Postumus</text>
    </g>
    <g fill="rgb(255,204,0)" text-rendering="geometricPrecision" shape-rendering="geometricPrecision" transform="matrix(1,0,0,1,-5,15)" stroke="rgb(255,204,0)">
      <rect x="492.1726" y="391.3775" clip-path="url(#clipPath2)" width="20.6738" rx="4" ry="4" height="30" stroke="none"/>
    </g>
    <g text-rendering="geometricPrecision" stroke-miterlimit="1.45" shape-rendering="geometricPrecision" transform="matrix(1,0,0,1,-5,15)" stroke-linecap="butt">
      <rect x="492.1726" y="391.3775" clip-path="url(#clipPath2)" fill="none" width="20.6738" rx="4" ry="4" height="30"/>
      <text x="499.1726" xml:space="preserve" y="411.0914" clip-path="url(#clipPath2)" font-family="sans-serif" stroke="none">?</text>
    </g>
    <g fill="rgb(255,204,0)" text-rendering="geometricPrecision" shape-rendering="geometricPrecision" transform="matrix(1,0,0,1,-5,15)" stroke="rgb(255,204,0)">
      <rect x="413.0107" y="505.7101" clip-path="url(#clipPath2)" width="107.3984" rx="4" ry="4" height="30" stroke="none"/>
    </g>
    <g text-rendering="geometricPrecision" stroke-miterlimit="1.45" shape-rendering="geometricPrecision" transform="matrix(1,0,0,1,-5,15)" stroke-linecap="butt">
      <rect x="413.0107" y="505.7101" clip-path="url(#clipPath2)" fill="none" width="107.3984" rx="4" ry="4" height="30"/>
      <text x="420.0107" xml:space="preserve" y="525.424" clip-path="url(#clipPath2)" font-family="sans-serif" stroke="none">Julia the Younger</text>
    </g>
    <g fill="rgb(255,204,0)" text-rendering="geometricPrecision" shape-rendering="geometricPrecision" transform="matrix(1,0,0,1,-5,15)" stroke="rgb(255,204,0)">
      <rect x="369.4274" y="391.3775" clip-path="url(#clipPath2)" width="20.6738" rx="4" ry="4" height="30" stroke="none"/>
    </g>
    <g text-rendering="geometricPrecision" stroke-miterlimit="1.45" shape-rendering="geometricPrecision" transform="matrix(1,0,0,1,-5,15)" stroke-linecap="butt">
      <rect x="369.4274" y="391.3775" clip-path="url(#clipPath2)" fill="none" width="20.6738" rx="4" ry="4" height="30"/>
      <text x="376.4274" xml:space="preserve" y="411.0914" clip-path="url(#clipPath2)" font-family="sans-serif" stroke="none">?</text>
    </g>
    <g fill="rgb(255,204,0)" text-rendering="geometricPrecision" shape-rendering="geometricPrecision" transform="matrix(1,0,0,1,-5,15)" stroke="rgb(255,204,0)">
      <rect x="176.2581" y="505.7101" clip-path="url(#clipPath2)" width="64.7012" rx="4" ry="4" height="30" stroke="none"/>
    </g>
    <g text-rendering="geometricPrecision" stroke-miterlimit="1.45" shape-rendering="geometricPrecision" transform="matrix(1,0,0,1,-5,15)" stroke-linecap="butt">
      <rect x="176.2581" y="505.7101" clip-path="url(#clipPath2)" fill="none" width="64.7012" rx="4" ry="4" height="30"/>
      <text x="183.2581" xml:space="preserve" y="525.424" clip-path="url(#clipPath2)" font-family="sans-serif" stroke="none">Agrippina</text>
    </g>
    <g fill="rgb(255,204,0)" text-rendering="geometricPrecision" shape-rendering="geometricPrecision" transform="matrix(1,0,0,1,-5,15)" stroke="rgb(255,204,0)">
      <rect x="121.3487" y="391.3775" clip-path="url(#clipPath2)" width="98.0352" rx="4" ry="4" height="30" stroke="none"/>
    </g>
    <g text-rendering="geometricPrecision" stroke-miterlimit="1.45" shape-rendering="geometricPrecision" transform="matrix(1,0,0,1,-5,15)" stroke-linecap="butt">
      <rect x="121.3487" y="391.3775" clip-path="url(#clipPath2)" fill="none" width="98.0352" rx="4" ry="4" height="30"/>
      <text x="128.3487" xml:space="preserve" y="411.0914" clip-path="url(#clipPath2)" font-family="sans-serif" stroke="none">Marcus Agrippa</text>
    </g>
    <g fill="rgb(255,204,0)" text-rendering="geometricPrecision" shape-rendering="geometricPrecision" transform="matrix(1,0,0,1,-5,15)" stroke="rgb(255,204,0)">
      <rect x="249.3841" y="391.3775" clip-path="url(#clipPath2)" width="90.043" rx="4" ry="4" height="30" stroke="none"/>
    </g>
    <g text-rendering="geometricPrecision" stroke-miterlimit="1.45" shape-rendering="geometricPrecision" transform="matrix(1,0,0,1,-5,15)" stroke-linecap="butt">
      <rect x="249.3841" y="391.3775" clip-path="url(#clipPath2)" fill="none" width="90.043" rx="4" ry="4" height="30"/>
      <text x="256.3841" xml:space="preserve" y="411.0914" clip-path="url(#clipPath2)" font-family="sans-serif" stroke="none">Julia the Elder</text>
      <path fill="none" d="M674.7155 197.6757 L674.7156 244.3974" clip-path="url(#clipPath2)"/>
      <path d="M674.7156 252.3974 L679.7156 240.3974 L674.7156 243.3974 L669.7156 240.3974 Z" clip-path="url(#clipPath2)" stroke="none"/>
      <path fill="none" d="M381.0948 197.6757 L381.0948 208.1757 L472.6313 236.9241 L472.6313 244.3938" clip-path="url(#clipPath2)"/>
      <path d="M472.6313 252.3938 L477.6313 240.3938 L472.6313 243.3938 L467.6313 240.3938 Z" clip-path="url(#clipPath2)" stroke="none"/>
      <path fill="none" d="M363.756 197.6757 L363.756 244.3974" clip-path="url(#clipPath2)"/>
      <path d="M363.756 252.3974 L368.756 240.3974 L363.756 243.3974 L358.756 240.3974 Z" clip-path="url(#clipPath2)" stroke="none"/>
      <path fill="none" d="M436.2746 120.6757 L436.2746 131.1757 L381.0948 152.1757 L381.0948 159.6454" clip-path="url(#clipPath2)"/>
      <path d="M381.0948 167.6454 L386.0948 155.6454 L381.0948 158.6454 L376.0948 155.6454 Z" clip-path="url(#clipPath2)" stroke="none"/>
      <path fill="none" d="M308.5762 120.6757 L308.5762 131.1757 L363.756 152.1757 L363.756 159.6454" clip-path="url(#clipPath2)"/>
      <path d="M363.756 167.6454 L368.756 155.6454 L363.756 158.6454 L358.756 155.6454 Z" clip-path="url(#clipPath2)" stroke="none"/>
      <path fill="none" d="M443.279 30 L443.279 40.5 L308.5762 75.1757 L308.5762 82.6454" clip-path="url(#clipPath2)"/>
      <path d="M308.5762 90.6454 L313.5762 78.6454 L308.5762 81.6454 L303.5762 78.6454 Z" clip-path="url(#clipPath2)" stroke="none"/>
      <path fill="none" d="M453.6159 30 L453.6159 40.5 L588.3187 75.1757 L588.3187 82.6454" clip-path="url(#clipPath2)"/>
      <path d="M588.3187 90.6454 L593.3187 78.6454 L588.3187 81.6454 L583.3187 78.6454 Z" clip-path="url(#clipPath2)" stroke="none"/>
      <path fill="none" d="M565.8964 197.6757 L565.8964 208.1757 L621.6931 236.9241 L621.6931 244.3938" clip-path="url(#clipPath2)"/>
      <path d="M621.6931 252.3938 L626.6931 240.3938 L621.6931 243.3938 L616.6931 240.3938 Z" clip-path="url(#clipPath2)" stroke="none"/>
      <path fill="none" d="M534.3314 197.6757 L534.3314 244.3974" clip-path="url(#clipPath2)"/>
      <path d="M534.3314 252.3974 L539.3314 240.3974 L534.3314 243.3974 L529.3314 240.3974 Z" clip-path="url(#clipPath2)" stroke="none"/>
      <path fill="none" d="M502.7662 197.6757 L502.7662 208.1757 L442.0227 224.497 Q440.7253 219.6683 435.8965 220.9657 Q431.0678 222.2632 432.3652 227.0919 L395.7726 236.9241 L395.7726 244.3938" clip-path="url(#clipPath2)"/>
      <path d="M395.7726 252.3938 L400.7726 240.3938 L395.7726 243.3938 L390.7726 240.3938 Z" clip-path="url(#clipPath2)" stroke="none"/>
      <path fill="none" d="M354.151 282.4241 L354.151 292.9241 L30.3373 375.8775 L30.3373 383.3473" clip-path="url(#clipPath2)"/>
      <path d="M30.3373 391.3473 L35.3373 379.3473 L30.3373 382.3473 L25.3373 379.3473 Z" clip-path="url(#clipPath2)" stroke="none"/>
      <path fill="none" d="M30.3373 421.3775 L30.3373 497.6689" clip-path="url(#clipPath2)"/>
      <path d="M30.3373 505.6689 L35.3373 493.6689 L30.3373 496.6689 L25.3373 493.6689 Z" clip-path="url(#clipPath2)" stroke="none"/>
      <path fill="none" d="M366.9576 282.4241 L366.9576 292.9241 L81.0115 375.8775 L81.0115 383.3473" clip-path="url(#clipPath2)"/>
      <path d="M81.0115 391.3473 L86.0115 379.3473 L81.0115 382.3473 L76.0115 379.3473 Z" clip-path="url(#clipPath2)" stroke="none"/>
      <path fill="none" d="M81.0115 421.3775 L81.0115 431.8775 L105.6851 490.2101 L105.6851 497.6798" clip-path="url(#clipPath2)"/>
      <path d="M105.6851 505.6798 L110.6851 493.6798 L105.6851 496.6798 L100.6851 493.6798 Z" clip-path="url(#clipPath2)" stroke="none"/>
      <path fill="none" d="M392.5709 282.4241 L392.5709 292.9241 L430.4385 375.8775 L430.4385 383.3473" clip-path="url(#clipPath2)"/>
      <path d="M430.4385 391.3473 L435.4385 379.3473 L430.4385 382.3473 L425.4385 379.3473 Z" clip-path="url(#clipPath2)" stroke="none"/>
      <path fill="none" d="M430.4385 421.3775 L430.4385 431.8775 L364.3352 490.2101 L364.3352 497.6798" clip-path="url(#clipPath2)"/>
      <path d="M364.3352 505.6798 L369.3352 493.6798 L364.3352 496.6798 L359.3352 493.6798 Z" clip-path="url(#clipPath2)" stroke="none"/>
      <path fill="none" d="M405.3776 282.4241 L405.3776 292.9241 L502.5095 375.8775 L502.5095 383.3473" clip-path="url(#clipPath2)"/>
      <path d="M502.5095 391.3473 L507.5095 379.3473 L502.5095 382.3473 L497.5095 379.3473 Z" clip-path="url(#clipPath2)" stroke="none"/>
      <path fill="none" d="M502.5095 421.3775 L502.5094 497.6689" clip-path="url(#clipPath2)"/>
      <path d="M502.5094 505.6689 L507.5094 493.6689 L502.5094 496.6689 L497.5094 493.6689 Z" clip-path="url(#clipPath2)" stroke="none"/>
      <path fill="none" d="M379.7643 282.4241 L379.7643 383.3509" clip-path="url(#clipPath2)"/>
      <path d="M379.7643 391.3509 L384.7643 379.3509 L379.7643 382.3509 L374.7643 379.3509 Z" clip-path="url(#clipPath2)" stroke="none"/>
      <path fill="none" d="M379.7643 421.3775 L379.7643 431.8775 L230.1758 490.2101 L230.1758 497.6798" clip-path="url(#clipPath2)"/>
      <path d="M230.1758 505.6798 L235.1758 493.6798 L230.1758 496.6798 L225.1758 493.6798 Z" clip-path="url(#clipPath2)" stroke="none"/>
      <path fill="none" d="M131.1522 421.3775 L131.1522 431.8775 L96.3345 455.5154 Q93.5261 451.3786 89.3894 454.1871 Q85.2526 456.9955 88.0611 461.1323 L45.2306 490.2101 L45.2306 497.6798" clip-path="url(#clipPath2)"/>
      <path d="M45.2306 505.6798 L50.2306 493.6798 L45.2306 496.6798 L40.2306 493.6798 Z" clip-path="url(#clipPath2)" stroke="none"/>
      <path fill="none" d="M150.7592 421.3775 L150.7592 431.8775 L121.9143 490.2101 L121.9143 497.6798" clip-path="url(#clipPath2)"/>
      <path d="M121.9143 505.6798 L126.9143 493.6798 L121.9143 496.6798 L116.9143 493.6798 Z" clip-path="url(#clipPath2)" stroke="none"/>
      <path fill="none" d="M170.3663 421.3775 L170.3663 431.8775 L187.0417 490.2101 L187.0417 497.6798" clip-path="url(#clipPath2)"/>
      <path d="M187.0417 505.6798 L192.0417 493.6798 L187.0417 496.6798 L182.0417 493.6798 Z" clip-path="url(#clipPath2)" stroke="none"/>
      <path fill="none" d="M189.9733 421.3775 L189.9733 431.8775 L261.5451 473.769 Q264.0708 469.4539 268.386 471.9796 Q272.7012 474.5053 270.1755 478.8205 L289.6347 490.2101 L289.6347 497.6798" clip-path="url(#clipPath2)"/>
      <path d="M289.6347 505.6798 L294.6347 493.6798 L289.6347 496.6798 L284.6347 493.6798 Z" clip-path="url(#clipPath2)" stroke="none"/>
      <path fill="none" d="M209.5803 421.3775 L209.5803 431.8775 L306.2956 457.3672 Q307.5698 452.5323 312.4047 453.8066 Q317.2396 455.0809 315.9654 459.9158 L374.8111 475.4248 Q376.0854 470.5899 380.9203 471.8642 Q385.7552 473.1385 384.4809 477.9734 L430.9104 490.2101 L430.9104 497.6798" clip-path="url(#clipPath2)"/>
      <path d="M430.9104 505.6798 L435.9104 493.6798 L430.9104 496.6798 L425.9104 493.6798 Z" clip-path="url(#clipPath2)" stroke="none"/>
      <path fill="none" d="M258.3884 421.3775 L258.3884 431.8775 L240.1226 437.2516 Q238.7113 432.4549 233.9146 433.8662 Q229.1179 435.2774 230.5292 440.0742 L217.656 443.8616 Q216.2448 439.0649 211.4481 440.4762 Q206.6514 441.8875 208.0626 446.6841 L181.9919 454.3546 Q180.5806 449.5579 175.7839 450.9691 Q170.9872 452.3804 172.3985 457.1771 L137.2313 467.5238 Q135.82 462.7271 131.0233 464.1384 Q126.2266 465.5497 127.6379 470.3463 L105.4393 476.8775 Q104.0281 472.0808 99.2314 473.4921 Q94.4347 474.9034 95.8459 479.7 L60.1238 490.2101 L60.1238 497.6798" clip-path="url(#clipPath2)"/>
      <path d="M60.1238 505.6798 L65.1238 493.6798 L60.1238 496.6798 L55.1238 493.6798 Z" clip-path="url(#clipPath2)" stroke="none"/>
      <path fill="none" d="M276.397 421.3775 L276.397 431.8775 L255.3139 440.773 Q253.3702 436.1663 248.7635 438.11 L248.7635 438.11 Q244.1567 440.0536 246.1004 444.6604 L230.7825 451.1234 Q228.8388 446.5167 224.2321 448.4604 Q219.6253 450.4041 221.569 455.0108 L186.3854 469.8556 Q184.4417 465.2489 179.8349 467.1926 Q175.2282 469.1363 177.1719 473.743 L138.1434 490.2101 L138.1434 497.6798" clip-path="url(#clipPath2)"/>
      <path d="M138.1434 505.6798 L143.1434 493.6798 L138.1434 496.6798 L133.1434 493.6798 Z" clip-path="url(#clipPath2)" stroke="none"/>
      <path fill="none" d="M294.4055 421.3775 L294.4055 431.8775 L274.8442 445.1771 Q272.033 441.0423 267.8981 443.8535 Q263.7633 446.6648 266.5745 450.7996 L250.2279 461.9136 Q247.4166 457.7787 243.2818 460.59 Q239.1469 463.4012 241.9582 467.536 L208.6087 490.2101 L208.6087 497.6798" clip-path="url(#clipPath2)"/>
      <path d="M208.6087 505.6798 L213.6087 493.6798 L208.6087 496.6798 L203.6087 493.6798 Z" clip-path="url(#clipPath2)" stroke="none"/>
      <path fill="none" d="M312.4142 421.3775 L312.4142 431.8775 L317.1805 450.9588 Q322.0314 449.7471 323.2431 454.5981 L324.512 459.6781 Q325.7237 464.5291 320.8728 465.7408 L326.9849 490.2101 L326.9849 497.6798" clip-path="url(#clipPath2)"/>
      <path d="M326.9849 505.6798 L331.9849 493.6798 L326.9849 496.6798 L321.9849 493.6798 Z" clip-path="url(#clipPath2)" stroke="none"/>
      <path fill="none" d="M330.4227 421.3775 L330.4227 431.8775 L349.349 439.9782 Q351.3164 435.3815 355.9131 437.3489 Q360.5097 439.3164 358.5423 443.913 L393.1754 458.7364 Q395.1429 454.1398 399.7395 456.1072 Q404.3362 458.0746 402.3687 462.6713 L466.7099 490.2101 L466.7099 497.6798" clip-path="url(#clipPath2)"/>
      <path d="M466.7099 505.6798 L471.7099 493.6798 L466.7099 496.6798 L461.7099 493.6798 Z" clip-path="url(#clipPath2)" stroke="none"/>
    </g>
  </g>
</svg>
