<?xml version="1.0" encoding="UTF-8"?><svg xmlns="http://www.w3.org/2000/svg" xmlns:xlink="http://www.w3.org/1999/xlink" fill-opacity="1" color-rendering="auto" color-interpolation="auto" text-rendering="auto" stroke="black" stroke-linecap="square" width="636" stroke-miterlimit="10" shape-rendering="auto" stroke-opacity="1" fill="black" stroke-dasharray="none" font-weight="normal" stroke-width="1" height="530" font-family="'Dialog'" font-style="normal" stroke-linejoin="miter" font-size="12px" stroke-dashoffset="0" image-rendering="auto">
  <!--Generated by ySVG 2.5-->
  <defs id="genericDefs"/>
  <g>
    <defs id="defs1">
      <clipPath clipPathUnits="userSpaceOnUse" id="clipPath1">
        <path d="M0 0 L636 0 L636 530 L0 530 L0 0 Z"/>
      </clipPath>
      <clipPath clipPathUnits="userSpaceOnUse" id="clipPath2">
        <path d="M5 -15 L641 -15 L641 515 L5 515 L5 -15 Z"/>
      </clipPath>
    </defs>
    <g fill="white" text-rendering="geometricPrecision" shape-rendering="geometricPrecision" transform="translate(-5,15)" stroke="white">
      <rect x="5" width="636" height="530" y="-15" clip-path="url(#clipPath2)" stroke="none"/>
    </g>
    <g fill="rgb(255,204,0)" text-rendering="geometricPrecision" shape-rendering="geometricPrecision" transform="matrix(1,0,0,1,-5,15)" stroke="rgb(255,204,0)">
      <rect x="415.4745" y="174.7656" clip-path="url(#clipPath2)" width="61.3613" rx="4" ry="4" height="30" stroke="none"/>
    </g>
    <g text-rendering="geometricPrecision" stroke-miterlimit="1.45" shape-rendering="geometricPrecision" transform="matrix(1,0,0,1,-5,15)" stroke-linecap="butt">
      <rect x="415.4745" y="174.7656" clip-path="url(#clipPath2)" fill="none" width="61.3613" rx="4" ry="4" height="30"/>
      <text x="422.4745" xml:space="preserve" y="194.4794" clip-path="url(#clipPath2)" font-family="sans-serif" stroke="none">Ancharia</text>
    </g>
    <g fill="rgb(255,204,0)" text-rendering="geometricPrecision" shape-rendering="geometricPrecision" transform="matrix(1,0,0,1,-5,15)" stroke="rgb(255,204,0)">
      <rect x="366.6216" y="265.5112" clip-path="url(#clipPath2)" width="106.0449" rx="4" ry="4" height="30" stroke="none"/>
    </g>
    <g text-rendering="geometricPrecision" stroke-miterlimit="1.45" shape-rendering="geometricPrecision" transform="matrix(1,0,0,1,-5,15)" stroke-linecap="butt">
      <rect x="366.6216" y="265.5112" clip-path="url(#clipPath2)" fill="none" width="106.0449" rx="4" ry="4" height="30"/>
      <text x="373.6216" xml:space="preserve" y="285.225" clip-path="url(#clipPath2)" font-family="sans-serif" stroke="none">Octavia the Elder</text>
    </g>
    <g fill="rgb(255,204,0)" text-rendering="geometricPrecision" shape-rendering="geometricPrecision" transform="matrix(1,0,0,1,-5,15)" stroke="rgb(255,204,0)">
      <rect x="47.3405" y="174.7656" clip-path="url(#clipPath2)" width="34.6777" rx="4" ry="4" height="30" stroke="none"/>
    </g>
    <g text-rendering="geometricPrecision" stroke-miterlimit="1.45" shape-rendering="geometricPrecision" transform="matrix(1,0,0,1,-5,15)" stroke-linecap="butt">
      <rect x="47.3405" y="174.7656" clip-path="url(#clipPath2)" fill="none" width="34.6777" rx="4" ry="4" height="30"/>
      <text x="54.3405" xml:space="preserve" y="194.4794" clip-path="url(#clipPath2)" font-family="sans-serif" stroke="none">Atia</text>
    </g>
    <g fill="rgb(255,204,0)" text-rendering="geometricPrecision" shape-rendering="geometricPrecision" transform="matrix(1,0,0,1,-5,15)" stroke="rgb(255,204,0)">
      <rect x="25.1597" y="265.5112" clip-path="url(#clipPath2)" width="123.4004" rx="4" ry="4" height="30" stroke="none"/>
    </g>
    <g text-rendering="geometricPrecision" stroke-miterlimit="1.45" shape-rendering="geometricPrecision" transform="matrix(1,0,0,1,-5,15)" stroke-linecap="butt">
      <rect x="25.1597" y="265.5112" clip-path="url(#clipPath2)" fill="none" width="123.4004" rx="4" ry="4" height="30"/>
      <text x="32.1597" xml:space="preserve" y="285.225" clip-path="url(#clipPath2)" font-family="sans-serif" stroke="none">Octavia the Younger</text>
    </g>
    <g fill="rgb(255,204,0)" text-rendering="geometricPrecision" shape-rendering="geometricPrecision" transform="matrix(1,0,0,1,-5,15)" stroke="rgb(255,204,0)">
      <rect x="178.5604" y="265.5112" clip-path="url(#clipPath2)" width="64.0332" rx="4" ry="4" height="30" stroke="none"/>
    </g>
    <g text-rendering="geometricPrecision" stroke-miterlimit="1.45" shape-rendering="geometricPrecision" transform="matrix(1,0,0,1,-5,15)" stroke-linecap="butt">
      <rect x="178.5604" y="265.5112" clip-path="url(#clipPath2)" fill="none" width="64.0332" rx="4" ry="4" height="30"/>
      <text x="185.5604" xml:space="preserve" y="285.225" clip-path="url(#clipPath2)" font-family="sans-serif" stroke="none">Augustus</text>
    </g>
    <g fill="rgb(255,204,0)" text-rendering="geometricPrecision" shape-rendering="geometricPrecision" transform="matrix(1,0,0,1,-5,15)" stroke="rgb(255,204,0)">
      <rect x="122.0199" y="90.6757" clip-path="url(#clipPath2)" width="123.377" rx="4" ry="4" height="30" stroke="none"/>
    </g>
    <g text-rendering="geometricPrecision" stroke-miterlimit="1.45" shape-rendering="geometricPrecision" transform="matrix(1,0,0,1,-5,15)" stroke-linecap="butt">
      <rect x="122.0199" y="90.6757" clip-path="url(#clipPath2)" fill="none" width="123.377" rx="4" ry="4" height="30"/>
      <text x="129.0199" xml:space="preserve" y="110.3896" clip-path="url(#clipPath2)" font-family="sans-serif" stroke="none">Marcus Atius Balbus</text>
    </g>
    <g fill="rgb(255,204,0)" text-rendering="geometricPrecision" shape-rendering="geometricPrecision" transform="matrix(1,0,0,1,-5,15)" stroke="rgb(255,204,0)">
      <rect x="20.0002" y="90.6757" clip-path="url(#clipPath2)" width="72.0195" rx="4" ry="4" height="30" stroke="none"/>
    </g>
    <g text-rendering="geometricPrecision" stroke-miterlimit="1.45" shape-rendering="geometricPrecision" transform="matrix(1,0,0,1,-5,15)" stroke-linecap="butt">
      <rect x="20.0002" y="90.6757" clip-path="url(#clipPath2)" fill="none" width="72.0195" rx="4" ry="4" height="30"/>
      <text x="27.0002" xml:space="preserve" y="110.3896" clip-path="url(#clipPath2)" font-family="sans-serif" stroke="none">Julia Minor</text>
    </g>
    <g fill="rgb(255,204,0)" text-rendering="geometricPrecision" shape-rendering="geometricPrecision" transform="matrix(1,0,0,1,-5,15)" stroke="rgb(255,204,0)">
      <rect x="185.5442" y="0" clip-path="url(#clipPath2)" width="20.6738" rx="4" ry="4" height="30" stroke="none"/>
    </g>
    <g text-rendering="geometricPrecision" stroke-miterlimit="1.45" shape-rendering="geometricPrecision" transform="matrix(1,0,0,1,-5,15)" stroke-linecap="butt">
      <rect x="185.5442" y="0" clip-path="url(#clipPath2)" fill="none" width="20.6738" rx="4" ry="4" height="30"/>
      <text x="192.5442" xml:space="preserve" y="19.7139" clip-path="url(#clipPath2)" font-family="sans-serif" stroke="none">?</text>
    </g>
    <g fill="rgb(255,204,0)" text-rendering="geometricPrecision" shape-rendering="geometricPrecision" transform="matrix(1,0,0,1,-5,15)" stroke="rgb(255,204,0)">
      <rect x="275.3969" y="90.6757" clip-path="url(#clipPath2)" width="120.7109" rx="4" ry="4" height="30" stroke="none"/>
    </g>
    <g text-rendering="geometricPrecision" stroke-miterlimit="1.45" shape-rendering="geometricPrecision" transform="matrix(1,0,0,1,-5,15)" stroke-linecap="butt">
      <rect x="275.3969" y="90.6757" clip-path="url(#clipPath2)" fill="none" width="120.7109" rx="4" ry="4" height="30"/>
      <text x="282.3969" xml:space="preserve" y="110.3896" clip-path="url(#clipPath2)" font-family="sans-serif" stroke="none">Caius Julius Caesar</text>
    </g>
    <g fill="rgb(255,204,0)" text-rendering="geometricPrecision" shape-rendering="geometricPrecision" transform="matrix(1,0,0,1,-5,15)" stroke="rgb(255,204,0)">
      <rect x="179.2377" y="174.7656" clip-path="url(#clipPath2)" width="94.6953" rx="4" ry="4" height="30" stroke="none"/>
    </g>
    <g text-rendering="geometricPrecision" stroke-miterlimit="1.45" shape-rendering="geometricPrecision" transform="matrix(1,0,0,1,-5,15)" stroke-linecap="butt">
      <rect x="179.2377" y="174.7656" clip-path="url(#clipPath2)" fill="none" width="94.6953" rx="4" ry="4" height="30"/>
      <text x="186.2377" xml:space="preserve" y="194.4794" clip-path="url(#clipPath2)" font-family="sans-serif" stroke="none">Caius Octavius</text>
    </g>
    <g fill="rgb(255,204,0)" text-rendering="geometricPrecision" shape-rendering="geometricPrecision" transform="matrix(1,0,0,1,-5,15)" stroke="rgb(255,204,0)">
      <rect x="128.2272" y="469.5342" clip-path="url(#clipPath2)" width="44.6797" rx="4" ry="4" height="30" stroke="none"/>
    </g>
    <g text-rendering="geometricPrecision" stroke-miterlimit="1.45" shape-rendering="geometricPrecision" transform="matrix(1,0,0,1,-5,15)" stroke-linecap="butt">
      <rect x="128.2272" y="469.5342" clip-path="url(#clipPath2)" fill="none" width="44.6797" rx="4" ry="4" height="30"/>
      <text x="135.2272" xml:space="preserve" y="489.248" clip-path="url(#clipPath2)" font-family="sans-serif" stroke="none">Caius</text>
    </g>
    <g fill="rgb(255,204,0)" text-rendering="geometricPrecision" shape-rendering="geometricPrecision" transform="matrix(1,0,0,1,-5,15)" stroke="rgb(255,204,0)">
      <rect x="202.907" y="469.5342" clip-path="url(#clipPath2)" width="48.6875" rx="4" ry="4" height="30" stroke="none"/>
    </g>
    <g text-rendering="geometricPrecision" stroke-miterlimit="1.45" shape-rendering="geometricPrecision" transform="matrix(1,0,0,1,-5,15)" stroke-linecap="butt">
      <rect x="202.907" y="469.5342" clip-path="url(#clipPath2)" fill="none" width="48.6875" rx="4" ry="4" height="30"/>
      <text x="209.907" xml:space="preserve" y="489.248" clip-path="url(#clipPath2)" font-family="sans-serif" stroke="none">Lucius</text>
    </g>
    <g fill="rgb(255,204,0)" text-rendering="geometricPrecision" shape-rendering="geometricPrecision" transform="matrix(1,0,0,1,-5,15)" stroke="rgb(255,204,0)">
      <rect x="376.296" y="469.5342" clip-path="url(#clipPath2)" width="112.0508" rx="4" ry="4" height="30" stroke="none"/>
    </g>
    <g text-rendering="geometricPrecision" stroke-miterlimit="1.45" shape-rendering="geometricPrecision" transform="matrix(1,0,0,1,-5,15)" stroke-linecap="butt">
      <rect x="376.296" y="469.5342" clip-path="url(#clipPath2)" fill="none" width="112.0508" rx="4" ry="4" height="30"/>
      <text x="383.2961" xml:space="preserve" y="489.248" clip-path="url(#clipPath2)" font-family="sans-serif" stroke="none">Agrippa Postumus</text>
    </g>
    <g fill="rgb(255,204,0)" text-rendering="geometricPrecision" shape-rendering="geometricPrecision" transform="matrix(1,0,0,1,-5,15)" stroke="rgb(255,204,0)">
      <rect x="518.3472" y="469.5342" clip-path="url(#clipPath2)" width="107.3984" rx="4" ry="4" height="30" stroke="none"/>
    </g>
    <g text-rendering="geometricPrecision" stroke-miterlimit="1.45" shape-rendering="geometricPrecision" transform="matrix(1,0,0,1,-5,15)" stroke-linecap="butt">
      <rect x="518.3472" y="469.5342" clip-path="url(#clipPath2)" fill="none" width="107.3984" rx="4" ry="4" height="30"/>
      <text x="525.3472" xml:space="preserve" y="489.248" clip-path="url(#clipPath2)" font-family="sans-serif" stroke="none">Julia the Younger</text>
    </g>
    <g fill="rgb(255,204,0)" text-rendering="geometricPrecision" shape-rendering="geometricPrecision" transform="matrix(1,0,0,1,-5,15)" stroke="rgb(255,204,0)">
      <rect x="281.5947" y="469.5342" clip-path="url(#clipPath2)" width="64.7012" rx="4" ry="4" height="30" stroke="none"/>
    </g>
    <g text-rendering="geometricPrecision" stroke-miterlimit="1.45" shape-rendering="geometricPrecision" transform="matrix(1,0,0,1,-5,15)" stroke-linecap="butt">
      <rect x="281.5947" y="469.5342" clip-path="url(#clipPath2)" fill="none" width="64.7012" rx="4" ry="4" height="30"/>
      <text x="288.5947" xml:space="preserve" y="489.248" clip-path="url(#clipPath2)" font-family="sans-serif" stroke="none">Agrippina</text>
    </g>
    <g fill="rgb(255,204,0)" text-rendering="geometricPrecision" shape-rendering="geometricPrecision" transform="matrix(1,0,0,1,-5,15)" stroke="rgb(255,204,0)">
      <rect x="391.7094" y="342.5112" clip-path="url(#clipPath2)" width="98.0352" rx="4" ry="4" height="30" stroke="none"/>
    </g>
    <g text-rendering="geometricPrecision" stroke-miterlimit="1.45" shape-rendering="geometricPrecision" transform="matrix(1,0,0,1,-5,15)" stroke-linecap="butt">
      <rect x="391.7094" y="342.5112" clip-path="url(#clipPath2)" fill="none" width="98.0352" rx="4" ry="4" height="30"/>
      <text x="398.7094" xml:space="preserve" y="362.225" clip-path="url(#clipPath2)" font-family="sans-serif" stroke="none">Marcus Agrippa</text>
    </g>
    <g fill="rgb(255,204,0)" text-rendering="geometricPrecision" shape-rendering="geometricPrecision" transform="matrix(1,0,0,1,-5,15)" stroke="rgb(255,204,0)">
      <rect x="188.0662" y="342.5112" clip-path="url(#clipPath2)" width="90.043" rx="4" ry="4" height="30" stroke="none"/>
    </g>
    <g text-rendering="geometricPrecision" stroke-miterlimit="1.45" shape-rendering="geometricPrecision" transform="matrix(1,0,0,1,-5,15)" stroke-linecap="butt">
      <rect x="188.0662" y="342.5112" clip-path="url(#clipPath2)" fill="none" width="90.043" rx="4" ry="4" height="30"/>
      <text x="195.0662" xml:space="preserve" y="362.225" clip-path="url(#clipPath2)" font-family="sans-serif" stroke="none">Julia the Elder</text>
    </g>
    <g fill="rgb(255,204,0)" text-rendering="geometricPrecision" shape-rendering="geometricPrecision" transform="matrix(1,0,0,1,-5,15)" stroke="rgb(255,204,0)">
      <rect x="272.5939" y="265.5112" clip-path="url(#clipPath2)" width="64.0273" rx="4" ry="4" height="30" stroke="none"/>
    </g>
    <g text-rendering="geometricPrecision" stroke-miterlimit="1.45" shape-rendering="geometricPrecision" transform="matrix(1,0,0,1,-5,15)" stroke-linecap="butt">
      <rect x="272.5939" y="265.5112" clip-path="url(#clipPath2)" fill="none" width="64.0273" rx="4" ry="4" height="30"/>
      <text x="279.5939" xml:space="preserve" y="285.225" clip-path="url(#clipPath2)" font-family="sans-serif" stroke="none">Scribonia</text>
      <path fill="none" d="M446.1552 204.7656 L446.1553 257.4815" clip-path="url(#clipPath2)"/>
      <path d="M446.1553 265.4815 L451.1553 253.4815 L446.1553 256.4815 L441.1553 253.4815 Z" clip-path="url(#clipPath2)" stroke="none"/>
      <path fill="none" d="M56.0099 204.7656 L56.0098 257.4815" clip-path="url(#clipPath2)"/>
      <path d="M56.0098 265.4815 L61.0098 253.4815 L56.0098 256.4815 L51.0098 253.4815 Z" clip-path="url(#clipPath2)" stroke="none"/>
      <path fill="none" d="M73.3488 204.7656 L73.3488 215.2656 L194.5687 250.0112 L194.5687 257.4809" clip-path="url(#clipPath2)"/>
      <path d="M194.5687 265.4809 L199.5687 253.4809 L194.5687 256.4809 L189.5687 253.4809 Z" clip-path="url(#clipPath2)" stroke="none"/>
      <path fill="none" d="M183.7083 120.6757 L183.7083 131.1757 L73.3488 159.2656 L73.3488 166.7353" clip-path="url(#clipPath2)"/>
      <path d="M73.3488 174.7353 L78.3488 162.7353 L73.3488 165.7353 L68.3488 162.7353 Z" clip-path="url(#clipPath2)" stroke="none"/>
      <path fill="none" d="M56.0099 120.6757 L56.0099 166.7392" clip-path="url(#clipPath2)"/>
      <path d="M56.0099 174.7392 L61.0099 162.7392 L56.0099 165.7392 L51.0099 162.7392 Z" clip-path="url(#clipPath2)" stroke="none"/>
      <path fill="none" d="M190.7127 30 L190.7127 40.5 L56.0099 75.1757 L56.0099 82.6454" clip-path="url(#clipPath2)"/>
      <path d="M56.0099 90.6454 L61.0099 78.6454 L56.0099 81.6454 L51.0099 78.6454 Z" clip-path="url(#clipPath2)" stroke="none"/>
      <path fill="none" d="M201.0496 30 L201.0496 40.5 L335.7524 75.1757 L335.7524 82.6454" clip-path="url(#clipPath2)"/>
      <path d="M335.7524 90.6454 L340.7524 78.6454 L335.7524 81.6454 L330.7524 78.6454 Z" clip-path="url(#clipPath2)" stroke="none"/>
      <path fill="none" d="M258.1504 204.7656 L258.1504 215.2656 L393.1328 250.0112 L393.1328 257.4809" clip-path="url(#clipPath2)"/>
      <path d="M393.1328 265.4809 L398.1328 253.4809 L393.1328 256.4809 L388.1328 253.4809 Z" clip-path="url(#clipPath2)" stroke="none"/>
      <path fill="none" d="M195.0202 204.7656 L195.0202 215.2656 L152.2004 234.5101 Q150.1507 229.9496 145.5901 231.9992 Q141.0295 234.0489 143.0792 238.6095 L117.71 250.0112 L117.71 257.4809" clip-path="url(#clipPath2)"/>
      <path d="M117.71 265.4809 L122.71 253.4809 L117.71 256.4809 L112.71 253.4809 Z" clip-path="url(#clipPath2)" stroke="none"/>
      <path fill="none" d="M226.5853 204.7656 L226.5853 257.4815" clip-path="url(#clipPath2)"/>
      <path d="M226.5853 265.4815 L231.5853 253.4815 L226.5853 256.4815 L221.5853 253.4815 Z" clip-path="url(#clipPath2)" stroke="none"/>
      <path fill="none" d="M401.5129 372.5112 L401.5129 383.0112 L161.737 454.0341 L161.737 461.5039" clip-path="url(#clipPath2)"/>
      <path d="M161.737 469.5039 L166.737 457.5039 L161.737 460.5039 L156.737 457.5039 Z" clip-path="url(#clipPath2)" stroke="none"/>
      <path fill="none" d="M421.12 372.5112 L421.12 383.0112 L239.4227 454.0341 L239.4227 461.5039" clip-path="url(#clipPath2)"/>
      <path d="M239.4227 469.5039 L244.4227 457.5039 L239.4227 460.5039 L234.4227 457.5039 Z" clip-path="url(#clipPath2)" stroke="none"/>
      <path fill="none" d="M440.727 372.5112 L440.727 383.0112 L330.1205 454.0341 L330.1205 461.5039" clip-path="url(#clipPath2)"/>
      <path d="M330.1205 469.5039 L335.1205 457.5039 L330.1205 460.5039 L325.1205 457.5039 Z" clip-path="url(#clipPath2)" stroke="none"/>
      <path fill="none" d="M460.334 372.5112 L460.3341 461.4868" clip-path="url(#clipPath2)"/>
      <path d="M460.3341 469.4868 L465.3341 457.4868 L460.3341 460.4868 L455.3341 457.4868 Z" clip-path="url(#clipPath2)" stroke="none"/>
      <path fill="none" d="M479.941 372.5112 L479.941 383.0112 L598.8961 454.0341 L598.8961 461.5039" clip-path="url(#clipPath2)"/>
      <path d="M598.8961 469.5039 L603.8961 457.5039 L598.8961 460.5039 L593.8961 457.5039 Z" clip-path="url(#clipPath2)" stroke="none"/>
      <path fill="none" d="M210.577 295.5112 L210.577 334.4653" clip-path="url(#clipPath2)"/>
      <path d="M210.577 342.4653 L215.577 330.4653 L210.577 333.4653 L205.577 330.4653 Z" clip-path="url(#clipPath2)" stroke="none"/>
      <path fill="none" d="M197.0705 372.5112 L197.0705 383.0112 L139.3971 454.0341 L139.3971 461.5039" clip-path="url(#clipPath2)"/>
      <path d="M139.3971 469.5039 L144.3971 457.5039 L139.3971 460.5039 L134.3971 457.5039 Z" clip-path="url(#clipPath2)" stroke="none"/>
      <path fill="none" d="M215.0791 372.5112 L215.079 433.2339 Q220.079 433.2339 220.079 438.2339 Q220.079 443.2339 215.079 443.2339 L215.0789 461.4868" clip-path="url(#clipPath2)"/>
      <path d="M215.0789 469.4868 L220.0789 457.4868 L215.0789 460.4868 L210.0789 457.4868 Z" clip-path="url(#clipPath2)" stroke="none"/>
      <path fill="none" d="M233.0877 372.5112 L233.0877 383.0112 L265.503 418.6041 Q269.1997 415.2375 272.5664 418.9342 Q275.9331 422.6309 272.2364 425.9975 L279.0853 433.5179 Q282.782 430.1512 286.1487 433.8479 Q289.5154 437.5446 285.8187 440.9113 L297.77 454.0341 L297.77 461.5039" clip-path="url(#clipPath2)"/>
      <path d="M297.77 469.5039 L302.77 457.5039 L297.77 460.5039 L292.77 457.5039 Z" clip-path="url(#clipPath2)" stroke="none"/>
      <path fill="none" d="M251.0963 372.5112 L251.0963 383.0112 L305.2022 408.0924 Q307.305 403.5561 311.8413 405.659 Q316.3776 407.7618 314.2748 412.2981 L324.3414 416.9646 Q326.4442 412.4283 330.9805 414.5311 Q335.5168 416.6339 333.414 421.1703 L356.6877 431.959 Q358.7906 427.4227 363.3269 429.5255 Q367.8632 431.6284 365.7603 436.1647 L404.3087 454.0341 L404.3087 461.5039" clip-path="url(#clipPath2)"/>
      <path d="M404.3087 469.5039 L409.3087 457.5039 L404.3087 460.5039 L399.3087 457.5039 Z" clip-path="url(#clipPath2)" stroke="none"/>
      <path fill="none" d="M269.1049 372.5112 L269.1049 383.0112 L335.1272 399.995 Q336.3728 395.1526 341.2152 396.3983 Q346.0575 397.644 344.8119 402.4863 L355.9426 405.3496 Q357.1883 400.5073 362.0306 401.753 Q366.873 402.9986 365.6273 407.841 L386.796 413.2865 Q388.0416 408.4442 392.884 409.6898 L392.884 409.6898 Q397.7263 410.9355 396.4807 415.7778 L455.4917 430.9581 Q456.7374 426.1157 461.5797 427.3614 Q466.4221 428.607 465.1764 433.4494 L545.1968 454.0341 L545.1968 461.5039" clip-path="url(#clipPath2)"/>
      <path d="M545.1968 469.5039 L550.1968 457.5039 L545.1968 460.5039 L540.1968 457.5039 Z" clip-path="url(#clipPath2)" stroke="none"/>
      <path fill="none" d="M304.6075 295.5112 L304.6075 306.0112 L255.5984 327.0112 L255.5984 334.4809" clip-path="url(#clipPath2)"/>
      <path d="M255.5984 342.4809 L260.5984 330.4809 L255.5984 333.4809 L250.5984 330.4809 Z" clip-path="url(#clipPath2)" stroke="none"/>
    </g>
  </g>
</svg>
