<?xml version="1.0" encoding="UTF-8"?><svg xmlns="http://www.w3.org/2000/svg" xmlns:xlink="http://www.w3.org/1999/xlink" fill-opacity="1" color-rendering="auto" color-interpolation="auto" text-rendering="auto" stroke="black" stroke-linecap="square" width="825" stroke-miterlimit="10" shape-rendering="auto" stroke-opacity="1" fill="black" stroke-dasharray="none" font-weight="normal" stroke-width="1" height="688" font-family="'Dialog'" font-style="normal" stroke-linejoin="miter" font-size="12px" stroke-dashoffset="0" image-rendering="auto">
  <!--Generated by ySVG 2.5-->
  <defs id="genericDefs"/>
  <g>
    <defs id="defs1">
      <clipPath clipPathUnits="userSpaceOnUse" id="clipPath1">
        <path d="M0 0 L825 0 L825 688 L0 688 L0 0 Z"/>
      </clipPath>
      <clipPath clipPathUnits="userSpaceOnUse" id="clipPath2">
        <path d="M5 -15 L830 -15 L830 673 L5 673 L5 -15 Z"/>
      </clipPath>
    </defs>
    <g fill="white" text-rendering="geometricPrecision" shape-rendering="geometricPrecision" transform="translate(-5,15)" stroke="white">
      <rect x="5" width="825" height="688" y="-15" clip-path="url(#clipPath2)" stroke="none"/>
    </g>
    <g fill="rgb(255,204,0)" text-rendering="geometricPrecision" shape-rendering="geometricPrecision" transform="matrix(1,0,0,1,-5,15)" stroke="rgb(255,204,0)">
      <rect x="644.8979" y="167.6757" clip-path="url(#clipPath2)" width="61.3613" rx="4" ry="4" height="30" stroke="none"/>
    </g>
    <g text-rendering="geometricPrecision" stroke-miterlimit="1.45" shape-rendering="geometricPrecision" transform="matrix(1,0,0,1,-5,15)" stroke-linecap="butt">
      <rect x="644.8979" y="167.6757" clip-path="url(#clipPath2)" fill="none" width="61.3613" rx="4" ry="4" height="30"/>
      <text x="651.8979" xml:space="preserve" y="187.3896" clip-path="url(#clipPath2)" font-family="sans-serif" stroke="none">Ancharia</text>
    </g>
    <g fill="rgb(255,204,0)" text-rendering="geometricPrecision" shape-rendering="geometricPrecision" transform="matrix(1,0,0,1,-5,15)" stroke="rgb(255,204,0)">
      <rect x="596.045" y="271.0897" clip-path="url(#clipPath2)" width="106.0449" rx="4" ry="4" height="30" stroke="none"/>
    </g>
    <g text-rendering="geometricPrecision" stroke-miterlimit="1.45" shape-rendering="geometricPrecision" transform="matrix(1,0,0,1,-5,15)" stroke-linecap="butt">
      <rect x="596.045" y="271.0897" clip-path="url(#clipPath2)" fill="none" width="106.0449" rx="4" ry="4" height="30"/>
      <text x="603.045" xml:space="preserve" y="290.8036" clip-path="url(#clipPath2)" font-family="sans-serif" stroke="none">Octavia the Elder</text>
    </g>
    <g fill="rgb(255,204,0)" text-rendering="geometricPrecision" shape-rendering="geometricPrecision" transform="matrix(1,0,0,1,-5,15)" stroke="rgb(255,204,0)">
      <rect x="226.0901" y="167.6757" clip-path="url(#clipPath2)" width="34.6777" rx="4" ry="4" height="30" stroke="none"/>
    </g>
    <g text-rendering="geometricPrecision" stroke-miterlimit="1.45" shape-rendering="geometricPrecision" transform="matrix(1,0,0,1,-5,15)" stroke-linecap="butt">
      <rect x="226.0901" y="167.6757" clip-path="url(#clipPath2)" fill="none" width="34.6777" rx="4" ry="4" height="30"/>
      <text x="233.0901" xml:space="preserve" y="187.3896" clip-path="url(#clipPath2)" font-family="sans-serif" stroke="none">Atia</text>
    </g>
    <g fill="rgb(255,204,0)" text-rendering="geometricPrecision" shape-rendering="geometricPrecision" transform="matrix(1,0,0,1,-5,15)" stroke="rgb(255,204,0)">
      <rect x="203.9093" y="271.0897" clip-path="url(#clipPath2)" width="123.4004" rx="4" ry="4" height="30" stroke="none"/>
    </g>
    <g text-rendering="geometricPrecision" stroke-miterlimit="1.45" shape-rendering="geometricPrecision" transform="matrix(1,0,0,1,-5,15)" stroke-linecap="butt">
      <rect x="203.9093" y="271.0897" clip-path="url(#clipPath2)" fill="none" width="123.4004" rx="4" ry="4" height="30"/>
      <text x="210.9093" xml:space="preserve" y="290.8036" clip-path="url(#clipPath2)" font-family="sans-serif" stroke="none">Octavia the Younger</text>
    </g>
    <g fill="rgb(255,204,0)" text-rendering="geometricPrecision" shape-rendering="geometricPrecision" transform="matrix(1,0,0,1,-5,15)" stroke="rgb(255,204,0)">
      <rect x="357.31" y="271.0897" clip-path="url(#clipPath2)" width="64.0332" rx="4" ry="4" height="30" stroke="none"/>
    </g>
    <g text-rendering="geometricPrecision" stroke-miterlimit="1.45" shape-rendering="geometricPrecision" transform="matrix(1,0,0,1,-5,15)" stroke-linecap="butt">
      <rect x="357.31" y="271.0897" clip-path="url(#clipPath2)" fill="none" width="64.0332" rx="4" ry="4" height="30"/>
      <text x="364.31" xml:space="preserve" y="290.8036" clip-path="url(#clipPath2)" font-family="sans-serif" stroke="none">Augustus</text>
    </g>
    <g fill="rgb(255,204,0)" text-rendering="geometricPrecision" shape-rendering="geometricPrecision" transform="matrix(1,0,0,1,-5,15)" stroke="rgb(255,204,0)">
      <rect x="245.5897" y="90.6757" clip-path="url(#clipPath2)" width="123.377" rx="4" ry="4" height="30" stroke="none"/>
    </g>
    <g text-rendering="geometricPrecision" stroke-miterlimit="1.45" shape-rendering="geometricPrecision" transform="matrix(1,0,0,1,-5,15)" stroke-linecap="butt">
      <rect x="245.5897" y="90.6757" clip-path="url(#clipPath2)" fill="none" width="123.377" rx="4" ry="4" height="30"/>
      <text x="252.5897" xml:space="preserve" y="110.3896" clip-path="url(#clipPath2)" font-family="sans-serif" stroke="none">Marcus Atius Balbus</text>
    </g>
    <g fill="rgb(255,204,0)" text-rendering="geometricPrecision" shape-rendering="geometricPrecision" transform="matrix(1,0,0,1,-5,15)" stroke="rgb(255,204,0)">
      <rect x="143.57" y="90.6757" clip-path="url(#clipPath2)" width="72.0195" rx="4" ry="4" height="30" stroke="none"/>
    </g>
    <g text-rendering="geometricPrecision" stroke-miterlimit="1.45" shape-rendering="geometricPrecision" transform="matrix(1,0,0,1,-5,15)" stroke-linecap="butt">
      <rect x="143.57" y="90.6757" clip-path="url(#clipPath2)" fill="none" width="72.0195" rx="4" ry="4" height="30"/>
      <text x="150.57" xml:space="preserve" y="110.3896" clip-path="url(#clipPath2)" font-family="sans-serif" stroke="none">Julia Minor</text>
    </g>
    <g fill="rgb(255,204,0)" text-rendering="geometricPrecision" shape-rendering="geometricPrecision" transform="matrix(1,0,0,1,-5,15)" stroke="rgb(255,204,0)">
      <rect x="309.1141" y="0" clip-path="url(#clipPath2)" width="20.6738" rx="4" ry="4" height="30" stroke="none"/>
    </g>
    <g text-rendering="geometricPrecision" stroke-miterlimit="1.45" shape-rendering="geometricPrecision" transform="matrix(1,0,0,1,-5,15)" stroke-linecap="butt">
      <rect x="309.1141" y="0" clip-path="url(#clipPath2)" fill="none" width="20.6738" rx="4" ry="4" height="30"/>
      <text x="316.1141" xml:space="preserve" y="19.7139" clip-path="url(#clipPath2)" font-family="sans-serif" stroke="none">?</text>
    </g>
    <g fill="rgb(255,204,0)" text-rendering="geometricPrecision" shape-rendering="geometricPrecision" transform="matrix(1,0,0,1,-5,15)" stroke="rgb(255,204,0)">
      <rect x="398.9668" y="90.6757" clip-path="url(#clipPath2)" width="120.7109" rx="4" ry="4" height="30" stroke="none"/>
    </g>
    <g text-rendering="geometricPrecision" stroke-miterlimit="1.45" shape-rendering="geometricPrecision" transform="matrix(1,0,0,1,-5,15)" stroke-linecap="butt">
      <rect x="398.9668" y="90.6757" clip-path="url(#clipPath2)" fill="none" width="120.7109" rx="4" ry="4" height="30"/>
      <text x="405.9668" xml:space="preserve" y="110.3896" clip-path="url(#clipPath2)" font-family="sans-serif" stroke="none">Caius Julius Caesar</text>
    </g>
    <g fill="rgb(255,204,0)" text-rendering="geometricPrecision" shape-rendering="geometricPrecision" transform="matrix(1,0,0,1,-5,15)" stroke="rgb(255,204,0)">
      <rect x="357.9873" y="167.6757" clip-path="url(#clipPath2)" width="94.6953" rx="4" ry="4" height="30" stroke="none"/>
    </g>
    <g text-rendering="geometricPrecision" stroke-miterlimit="1.45" shape-rendering="geometricPrecision" transform="matrix(1,0,0,1,-5,15)" stroke-linecap="butt">
      <rect x="357.9873" y="167.6757" clip-path="url(#clipPath2)" fill="none" width="94.6953" rx="4" ry="4" height="30"/>
      <text x="364.9873" xml:space="preserve" y="187.3896" clip-path="url(#clipPath2)" font-family="sans-serif" stroke="none">Caius Octavius</text>
    </g>
    <g fill="rgb(255,204,0)" text-rendering="geometricPrecision" shape-rendering="geometricPrecision" transform="matrix(1,0,0,1,-5,15)" stroke="rgb(255,204,0)">
      <rect x="524.2026" y="488.2426" clip-path="url(#clipPath2)" width="44.6797" rx="4" ry="4" height="30" stroke="none"/>
    </g>
    <g text-rendering="geometricPrecision" stroke-miterlimit="1.45" shape-rendering="geometricPrecision" transform="matrix(1,0,0,1,-5,15)" stroke-linecap="butt">
      <rect x="524.2026" y="488.2426" clip-path="url(#clipPath2)" fill="none" width="44.6797" rx="4" ry="4" height="30"/>
      <text x="531.2026" xml:space="preserve" y="507.9565" clip-path="url(#clipPath2)" font-family="sans-serif" stroke="none">Caius</text>
    </g>
    <g fill="rgb(255,204,0)" text-rendering="geometricPrecision" shape-rendering="geometricPrecision" transform="matrix(1,0,0,1,-5,15)" stroke="rgb(255,204,0)">
      <rect x="157.3991" y="488.2426" clip-path="url(#clipPath2)" width="48.6875" rx="4" ry="4" height="30" stroke="none"/>
    </g>
    <g text-rendering="geometricPrecision" stroke-miterlimit="1.45" shape-rendering="geometricPrecision" transform="matrix(1,0,0,1,-5,15)" stroke-linecap="butt">
      <rect x="157.3991" y="488.2426" clip-path="url(#clipPath2)" fill="none" width="48.6875" rx="4" ry="4" height="30"/>
      <text x="164.3991" xml:space="preserve" y="507.9565" clip-path="url(#clipPath2)" font-family="sans-serif" stroke="none">Lucius</text>
    </g>
    <g fill="rgb(255,204,0)" text-rendering="geometricPrecision" shape-rendering="geometricPrecision" transform="matrix(1,0,0,1,-5,15)" stroke="rgb(255,204,0)">
      <rect x="236.0869" y="488.2426" clip-path="url(#clipPath2)" width="112.0508" rx="4" ry="4" height="30" stroke="none"/>
    </g>
    <g text-rendering="geometricPrecision" stroke-miterlimit="1.45" shape-rendering="geometricPrecision" transform="matrix(1,0,0,1,-5,15)" stroke-linecap="butt">
      <rect x="236.0869" y="488.2426" clip-path="url(#clipPath2)" fill="none" width="112.0508" rx="4" ry="4" height="30"/>
      <text x="243.0869" xml:space="preserve" y="507.9565" clip-path="url(#clipPath2)" font-family="sans-serif" stroke="none">Agrippa Postumus</text>
    </g>
    <g fill="rgb(255,204,0)" text-rendering="geometricPrecision" shape-rendering="geometricPrecision" transform="matrix(1,0,0,1,-5,15)" stroke="rgb(255,204,0)">
      <rect x="20.0004" y="488.2426" clip-path="url(#clipPath2)" width="107.3984" rx="4" ry="4" height="30" stroke="none"/>
    </g>
    <g text-rendering="geometricPrecision" stroke-miterlimit="1.45" shape-rendering="geometricPrecision" transform="matrix(1,0,0,1,-5,15)" stroke-linecap="butt">
      <rect x="20.0004" y="488.2426" clip-path="url(#clipPath2)" fill="none" width="107.3984" rx="4" ry="4" height="30"/>
      <text x="27.0004" xml:space="preserve" y="507.9565" clip-path="url(#clipPath2)" font-family="sans-serif" stroke="none">Julia the Younger</text>
    </g>
    <g fill="rgb(255,204,0)" text-rendering="geometricPrecision" shape-rendering="geometricPrecision" transform="matrix(1,0,0,1,-5,15)" stroke="rgb(255,204,0)">
      <rect x="140.1606" y="349.0897" clip-path="url(#clipPath2)" width="98.0352" rx="4" ry="4" height="30" stroke="none"/>
    </g>
    <g text-rendering="geometricPrecision" stroke-miterlimit="1.45" shape-rendering="geometricPrecision" transform="matrix(1,0,0,1,-5,15)" stroke-linecap="butt">
      <rect x="140.1606" y="349.0897" clip-path="url(#clipPath2)" fill="none" width="98.0352" rx="4" ry="4" height="30"/>
      <text x="147.1606" xml:space="preserve" y="368.8036" clip-path="url(#clipPath2)" font-family="sans-serif" stroke="none">Marcus Agrippa</text>
    </g>
    <g fill="rgb(255,204,0)" text-rendering="geometricPrecision" shape-rendering="geometricPrecision" transform="matrix(1,0,0,1,-5,15)" stroke="rgb(255,204,0)">
      <rect x="402.1563" y="349.0897" clip-path="url(#clipPath2)" width="90.043" rx="4" ry="4" height="30" stroke="none"/>
    </g>
    <g text-rendering="geometricPrecision" stroke-miterlimit="1.45" shape-rendering="geometricPrecision" transform="matrix(1,0,0,1,-5,15)" stroke-linecap="butt">
      <rect x="402.1563" y="349.0897" clip-path="url(#clipPath2)" fill="none" width="90.043" rx="4" ry="4" height="30"/>
      <text x="409.1563" xml:space="preserve" y="368.8036" clip-path="url(#clipPath2)" font-family="sans-serif" stroke="none">Julia the Elder</text>
    </g>
    <g fill="rgb(255,204,0)" text-rendering="geometricPrecision" shape-rendering="geometricPrecision" transform="matrix(1,0,0,1,-5,15)" stroke="rgb(255,204,0)">
      <rect x="451.3435" y="271.0897" clip-path="url(#clipPath2)" width="64.0273" rx="4" ry="4" height="30" stroke="none"/>
    </g>
    <g text-rendering="geometricPrecision" stroke-miterlimit="1.45" shape-rendering="geometricPrecision" transform="matrix(1,0,0,1,-5,15)" stroke-linecap="butt">
      <rect x="451.3435" y="271.0897" clip-path="url(#clipPath2)" fill="none" width="64.0273" rx="4" ry="4" height="30"/>
      <text x="458.3435" xml:space="preserve" y="290.8036" clip-path="url(#clipPath2)" font-family="sans-serif" stroke="none">Scribonia</text>
    </g>
    <g fill="rgb(255,204,0)" text-rendering="geometricPrecision" shape-rendering="geometricPrecision" transform="matrix(1,0,0,1,-5,15)" stroke="rgb(255,204,0)">
      <rect x="378.138" y="488.2426" clip-path="url(#clipPath2)" width="116.0645" rx="4" ry="4" height="30" stroke="none"/>
    </g>
    <g text-rendering="geometricPrecision" stroke-miterlimit="1.45" shape-rendering="geometricPrecision" transform="matrix(1,0,0,1,-5,15)" stroke-linecap="butt">
      <rect x="378.138" y="488.2426" clip-path="url(#clipPath2)" fill="none" width="116.0645" rx="4" ry="4" height="30"/>
      <text x="385.138" xml:space="preserve" y="507.9565" clip-path="url(#clipPath2)" font-family="sans-serif" stroke="none">Agrippina the Elder</text>
    </g>
    <g fill="rgb(255,204,0)" text-rendering="geometricPrecision" shape-rendering="geometricPrecision" transform="matrix(1,0,0,1,-5,15)" stroke="rgb(255,204,0)">
      <rect x="615.2122" y="488.2426" clip-path="url(#clipPath2)" width="78.6875" rx="4" ry="4" height="30" stroke="none"/>
    </g>
    <g text-rendering="geometricPrecision" stroke-miterlimit="1.45" shape-rendering="geometricPrecision" transform="matrix(1,0,0,1,-5,15)" stroke-linecap="butt">
      <rect x="615.2122" y="488.2426" clip-path="url(#clipPath2)" fill="none" width="78.6875" rx="4" ry="4" height="30"/>
      <text x="622.2122" xml:space="preserve" y="507.9565" clip-path="url(#clipPath2)" font-family="sans-serif" stroke="none">Germanicus</text>
    </g>
    <g fill="rgb(255,204,0)" text-rendering="geometricPrecision" shape-rendering="geometricPrecision" transform="matrix(1,0,0,1,-5,15)" stroke="rgb(255,204,0)">
      <rect x="212.2575" y="627.1044" clip-path="url(#clipPath2)" width="133.4199" rx="4" ry="4" height="30" stroke="none"/>
    </g>
    <g text-rendering="geometricPrecision" stroke-miterlimit="1.45" shape-rendering="geometricPrecision" transform="matrix(1,0,0,1,-5,15)" stroke-linecap="butt">
      <rect x="212.2575" y="627.1044" clip-path="url(#clipPath2)" fill="none" width="133.4199" rx="4" ry="4" height="30"/>
      <text x="219.2575" xml:space="preserve" y="646.8182" clip-path="url(#clipPath2)" font-family="sans-serif" stroke="none">Agrippina the Younger</text>
    </g>
    <g fill="rgb(255,204,0)" text-rendering="geometricPrecision" shape-rendering="geometricPrecision" transform="matrix(1,0,0,1,-5,15)" stroke="rgb(255,204,0)">
      <rect x="375.6774" y="627.1044" clip-path="url(#clipPath2)" width="54.0078" rx="4" ry="4" height="30" stroke="none"/>
    </g>
    <g text-rendering="geometricPrecision" stroke-miterlimit="1.45" shape-rendering="geometricPrecision" transform="matrix(1,0,0,1,-5,15)" stroke-linecap="butt">
      <rect x="375.6774" y="627.1044" clip-path="url(#clipPath2)" fill="none" width="54.0078" rx="4" ry="4" height="30"/>
      <text x="382.6774" xml:space="preserve" y="646.8182" clip-path="url(#clipPath2)" font-family="sans-serif" stroke="none">Drusilla</text>
    </g>
    <g fill="rgb(255,204,0)" text-rendering="geometricPrecision" shape-rendering="geometricPrecision" transform="matrix(1,0,0,1,-5,15)" stroke="rgb(255,204,0)">
      <rect x="459.6854" y="627.1044" clip-path="url(#clipPath2)" width="44.0117" rx="4" ry="4" height="30" stroke="none"/>
    </g>
    <g text-rendering="geometricPrecision" stroke-miterlimit="1.45" shape-rendering="geometricPrecision" transform="matrix(1,0,0,1,-5,15)" stroke-linecap="butt">
      <rect x="459.6854" y="627.1044" clip-path="url(#clipPath2)" fill="none" width="44.0117" rx="4" ry="4" height="30"/>
      <text x="466.6854" xml:space="preserve" y="646.8182" clip-path="url(#clipPath2)" font-family="sans-serif" stroke="none">Livilla</text>
    </g>
    <g fill="rgb(255,204,0)" text-rendering="geometricPrecision" shape-rendering="geometricPrecision" transform="matrix(1,0,0,1,-5,15)" stroke="rgb(255,204,0)">
      <rect x="533.6975" y="627.1044" clip-path="url(#clipPath2)" width="40.0098" rx="4" ry="4" height="30" stroke="none"/>
    </g>
    <g text-rendering="geometricPrecision" stroke-miterlimit="1.45" shape-rendering="geometricPrecision" transform="matrix(1,0,0,1,-5,15)" stroke-linecap="butt">
      <rect x="533.6975" y="627.1044" clip-path="url(#clipPath2)" fill="none" width="40.0098" rx="4" ry="4" height="30"/>
      <text x="540.6975" xml:space="preserve" y="646.8182" clip-path="url(#clipPath2)" font-family="sans-serif" stroke="none">Nero</text>
    </g>
    <g fill="rgb(255,204,0)" text-rendering="geometricPrecision" shape-rendering="geometricPrecision" transform="matrix(1,0,0,1,-5,15)" stroke="rgb(255,204,0)">
      <rect x="603.7074" y="627.1044" clip-path="url(#clipPath2)" width="94.0273" rx="4" ry="4" height="30" stroke="none"/>
    </g>
    <g text-rendering="geometricPrecision" stroke-miterlimit="1.45" shape-rendering="geometricPrecision" transform="matrix(1,0,0,1,-5,15)" stroke-linecap="butt">
      <rect x="603.7074" y="627.1044" clip-path="url(#clipPath2)" fill="none" width="94.0273" rx="4" ry="4" height="30"/>
      <text x="610.7073" xml:space="preserve" y="646.8182" clip-path="url(#clipPath2)" font-family="sans-serif" stroke="none">Drusus Caesar</text>
    </g>
    <g fill="rgb(255,204,0)" text-rendering="geometricPrecision" shape-rendering="geometricPrecision" transform="matrix(1,0,0,1,-5,15)" stroke="rgb(255,204,0)">
      <rect x="727.7351" y="627.1044" clip-path="url(#clipPath2)" width="86.6973" rx="4" ry="4" height="30" stroke="none"/>
    </g>
    <g text-rendering="geometricPrecision" stroke-miterlimit="1.45" shape-rendering="geometricPrecision" transform="matrix(1,0,0,1,-5,15)" stroke-linecap="butt">
      <rect x="727.7351" y="627.1044" clip-path="url(#clipPath2)" fill="none" width="86.6973" rx="4" ry="4" height="30"/>
      <text x="734.7351" xml:space="preserve" y="646.8182" clip-path="url(#clipPath2)" font-family="sans-serif" stroke="none">Caius Caesar</text>
    </g>
    <g fill="rgb(255,204,0)" text-rendering="geometricPrecision" shape-rendering="geometricPrecision" transform="matrix(1,0,0,1,-5,15)" stroke="rgb(255,204,0)">
      <rect x="545.371" y="271.0897" clip-path="url(#clipPath2)" width="20.6738" rx="4" ry="4" height="30" stroke="none"/>
    </g>
    <g text-rendering="geometricPrecision" stroke-miterlimit="1.45" shape-rendering="geometricPrecision" transform="matrix(1,0,0,1,-5,15)" stroke-linecap="butt">
      <rect x="545.371" y="271.0897" clip-path="url(#clipPath2)" fill="none" width="20.6738" rx="4" ry="4" height="30"/>
      <text x="552.371" xml:space="preserve" y="290.8036" clip-path="url(#clipPath2)" font-family="sans-serif" stroke="none">?</text>
    </g>
    <g fill="rgb(255,204,0)" text-rendering="geometricPrecision" shape-rendering="geometricPrecision" transform="matrix(1,0,0,1,-5,15)" stroke="rgb(255,204,0)">
      <rect x="608.8792" y="349.0897" clip-path="url(#clipPath2)" width="52.0098" rx="4" ry="4" height="30" stroke="none"/>
    </g>
    <g text-rendering="geometricPrecision" stroke-miterlimit="1.45" shape-rendering="geometricPrecision" transform="matrix(1,0,0,1,-5,15)" stroke-linecap="butt">
      <rect x="608.8792" y="349.0897" clip-path="url(#clipPath2)" fill="none" width="52.0098" rx="4" ry="4" height="30"/>
      <text x="615.8793" xml:space="preserve" y="368.8036" clip-path="url(#clipPath2)" font-family="sans-serif" stroke="none">Drusus</text>
    </g>
    <g fill="rgb(255,204,0)" text-rendering="geometricPrecision" shape-rendering="geometricPrecision" transform="matrix(1,0,0,1,-5,15)" stroke="rgb(255,204,0)">
      <rect x="522.1994" y="349.0897" clip-path="url(#clipPath2)" width="56.6797" rx="4" ry="4" height="30" stroke="none"/>
    </g>
    <g text-rendering="geometricPrecision" stroke-miterlimit="1.45" shape-rendering="geometricPrecision" transform="matrix(1,0,0,1,-5,15)" stroke-linecap="butt">
      <rect x="522.1994" y="349.0897" clip-path="url(#clipPath2)" fill="none" width="56.6797" rx="4" ry="4" height="30"/>
      <text x="529.1995" xml:space="preserve" y="368.8036" clip-path="url(#clipPath2)" font-family="sans-serif" stroke="none">Tiberius</text>
    </g>
    <g fill="rgb(255,204,0)" text-rendering="geometricPrecision" shape-rendering="geometricPrecision" transform="matrix(1,0,0,1,-5,15)" stroke="rgb(255,204,0)">
      <rect x="732.0901" y="271.0897" clip-path="url(#clipPath2)" width="58.0332" rx="4" ry="4" height="30" stroke="none"/>
    </g>
    <g text-rendering="geometricPrecision" stroke-miterlimit="1.45" shape-rendering="geometricPrecision" transform="matrix(1,0,0,1,-5,15)" stroke-linecap="butt">
      <rect x="732.0901" y="271.0897" clip-path="url(#clipPath2)" fill="none" width="58.0332" rx="4" ry="4" height="30"/>
      <text x="739.0901" xml:space="preserve" y="290.8036" clip-path="url(#clipPath2)" font-family="sans-serif" stroke="none">Augusta</text>
    </g>
    <g fill="rgb(255,204,0)" text-rendering="geometricPrecision" shape-rendering="geometricPrecision" transform="matrix(1,0,0,1,-5,15)" stroke="rgb(255,204,0)">
      <rect x="750.7698" y="349.0897" clip-path="url(#clipPath2)" width="20.6738" rx="4" ry="4" height="30" stroke="none"/>
    </g>
    <g text-rendering="geometricPrecision" stroke-miterlimit="1.45" shape-rendering="geometricPrecision" transform="matrix(1,0,0,1,-5,15)" stroke-linecap="butt">
      <rect x="750.7698" y="349.0897" clip-path="url(#clipPath2)" fill="none" width="20.6738" rx="4" ry="4" height="30"/>
      <text x="757.7698" xml:space="preserve" y="368.8036" clip-path="url(#clipPath2)" font-family="sans-serif" stroke="none">?</text>
      <path fill="none" d="M675.5786 197.6757 L675.5787 263.0539" clip-path="url(#clipPath2)"/>
      <path d="M675.5787 271.0539 L680.5787 259.0539 L675.5787 262.0539 L670.5787 259.0539 Z" clip-path="url(#clipPath2)" stroke="none"/>
      <path fill="none" d="M234.7595 197.6757 L234.7594 263.0539" clip-path="url(#clipPath2)"/>
      <path d="M234.7594 271.0539 L239.7594 259.0539 L234.7594 262.0539 L229.7595 259.0539 Z" clip-path="url(#clipPath2)" stroke="none"/>
      <path fill="none" d="M252.0984 197.6757 L252.0984 208.1757 L373.3183 255.5897 L373.3183 263.0595" clip-path="url(#clipPath2)"/>
      <path d="M373.3183 271.0595 L378.3183 259.0595 L373.3183 262.0595 L368.3183 259.0595 Z" clip-path="url(#clipPath2)" stroke="none"/>
      <path fill="none" d="M307.2782 120.6757 L307.2782 131.1757 L252.0984 152.1757 L252.0984 159.6454" clip-path="url(#clipPath2)"/>
      <path d="M252.0984 167.6454 L257.0984 155.6454 L252.0984 158.6454 L247.0984 155.6454 Z" clip-path="url(#clipPath2)" stroke="none"/>
      <path fill="none" d="M179.5798 120.6757 L179.5798 131.1757 L234.7595 152.1757 L234.7595 159.6454" clip-path="url(#clipPath2)"/>
      <path d="M234.7595 167.6454 L239.7595 155.6454 L234.7595 158.6454 L229.7595 155.6454 Z" clip-path="url(#clipPath2)" stroke="none"/>
      <path fill="none" d="M314.2825 30 L314.2825 40.5 L179.5798 75.1757 L179.5798 82.6454" clip-path="url(#clipPath2)"/>
      <path d="M179.5798 90.6454 L184.5798 78.6454 L179.5798 81.6454 L174.5798 78.6454 Z" clip-path="url(#clipPath2)" stroke="none"/>
      <path fill="none" d="M324.6194 30 L324.6194 40.5 L459.3222 75.1757 L459.3222 82.6454" clip-path="url(#clipPath2)"/>
      <path d="M459.3222 90.6454 L464.3222 78.6454 L459.3222 81.6454 L454.3222 78.6454 Z" clip-path="url(#clipPath2)" stroke="none"/>
      <path fill="none" d="M436.9 197.6757 L436.9 208.1757 L622.5562 255.5897 L622.5562 263.0595" clip-path="url(#clipPath2)"/>
      <path d="M622.5562 271.0595 L627.5562 259.0595 L622.5562 262.0595 L617.5562 259.0595 Z" clip-path="url(#clipPath2)" stroke="none"/>
      <path fill="none" d="M373.7698 197.6757 L373.7698 208.1757 L330.6516 234.6199 Q328.0376 230.3576 323.7754 232.9717 Q319.5131 235.5857 322.1271 239.8479 L296.4596 255.5897 L296.4596 263.0595" clip-path="url(#clipPath2)"/>
      <path d="M296.4596 271.0595 L301.4596 259.0595 L296.4596 262.0595 L291.4596 259.0595 Z" clip-path="url(#clipPath2)" stroke="none"/>
      <path fill="none" d="M405.3349 197.6757 L405.3349 263.0539" clip-path="url(#clipPath2)"/>
      <path d="M405.3349 271.0539 L410.3349 259.0539 L405.3349 262.0539 L400.3349 259.0539 Z" clip-path="url(#clipPath2)" stroke="none"/>
      <path fill="none" d="M228.3922 379.0898 L228.3922 389.5898 L535.3726 472.7426 L535.3726 480.2123" clip-path="url(#clipPath2)"/>
      <path d="M535.3726 488.2123 L540.3726 476.2123 L535.3726 479.2123 L530.3726 476.2123 Z" clip-path="url(#clipPath2)" stroke="none"/>
      <path fill="none" d="M169.5711 379.0898 L169.571 480.2159" clip-path="url(#clipPath2)"/>
      <path d="M169.571 488.2159 L174.571 476.2159 L169.571 479.2159 L164.571 476.2159 Z" clip-path="url(#clipPath2)" stroke="none"/>
      <path fill="none" d="M189.1782 379.0898 L189.1782 389.5898 L264.0996 472.7426 L264.0996 480.2123" clip-path="url(#clipPath2)"/>
      <path d="M264.0996 488.2123 L269.0996 476.2123 L264.0996 479.2123 L259.0996 476.2123 Z" clip-path="url(#clipPath2)" stroke="none"/>
      <path fill="none" d="M149.9641 379.0898 L149.9641 389.5898 L46.85 472.7426 L46.85 480.2123" clip-path="url(#clipPath2)"/>
      <path d="M46.85 488.2123 L51.85 476.2123 L46.85 479.2123 L41.85 476.2123 Z" clip-path="url(#clipPath2)" stroke="none"/>
      <path fill="none" d="M389.3266 301.0898 L389.3266 311.5898 L424.667 333.5898 L424.667 341.0595" clip-path="url(#clipPath2)"/>
      <path d="M424.667 349.0595 L429.667 337.0595 L424.667 340.0595 L419.667 337.0595 Z" clip-path="url(#clipPath2)" stroke="none"/>
      <path fill="none" d="M483.195 379.0898 L483.195 389.5898 L557.7124 472.7426 L557.7124 480.2123" clip-path="url(#clipPath2)"/>
      <path d="M557.7124 488.2123 L562.7124 476.2123 L557.7124 479.2123 L552.7124 476.2123 Z" clip-path="url(#clipPath2)" stroke="none"/>
      <path fill="none" d="M429.1692 379.0898 L429.1692 389.5898 L346.7741 418.713 Q345.1078 413.9989 340.3936 415.6651 Q335.6795 417.3314 337.3457 422.0456 L251.861 452.261 Q250.1947 447.5468 245.4805 449.213 Q240.7663 450.8793 242.4326 455.5935 L193.9147 472.7426 L193.9147 480.2123" clip-path="url(#clipPath2)"/>
      <path d="M193.9147 488.2123 L198.9147 476.2123 L193.9147 479.2123 L188.9147 476.2123 Z" clip-path="url(#clipPath2)" stroke="none"/>
      <path fill="none" d="M447.1778 379.0898 L447.1778 389.5898 L387.3172 428.767 Q384.5791 424.5833 380.3955 427.3214 Q376.2118 430.0595 378.9499 434.2432 L320.125 472.7426 L320.125 480.2123" clip-path="url(#clipPath2)"/>
      <path d="M320.125 488.2123 L325.125 476.2123 L320.125 479.2123 L315.125 476.2123 Z" clip-path="url(#clipPath2)" stroke="none"/>
      <path fill="none" d="M411.1606 379.0898 L411.1606 389.5898 L324.0691 412.9048 Q322.7761 408.0748 317.9461 409.3679 Q313.1162 410.6609 314.4092 415.4908 L237.1464 436.1746 Q235.8534 431.3446 231.0235 432.6376 Q226.1936 433.9306 227.4866 438.7606 L174.401 452.972 Q173.108 448.142 168.278 449.435 Q163.4481 450.728 164.7411 455.558 L100.5492 472.7426 L100.5492 480.2123" clip-path="url(#clipPath2)"/>
      <path d="M100.5492 488.2123 L105.5492 476.2123 L100.5492 479.2123 L95.5492 476.2123 Z" clip-path="url(#clipPath2)" stroke="none"/>
      <path fill="none" d="M483.3571 301.0898 L483.3571 311.5898 L469.6885 333.5898 L469.6885 341.0595" clip-path="url(#clipPath2)"/>
      <path d="M469.6885 349.0595 L474.6885 337.0595 L469.6885 340.0595 L464.6885 337.0595 Z" clip-path="url(#clipPath2)" stroke="none"/>
      <path fill="none" d="M465.1864 379.0898 L465.1863 448.731 Q470.1863 448.731 470.1863 453.731 Q470.1863 458.731 465.1863 458.731 L465.1863 480.2159" clip-path="url(#clipPath2)"/>
      <path d="M465.1863 488.2159 L470.1863 476.2159 L465.1863 479.2159 L460.1863 476.2159 Z" clip-path="url(#clipPath2)" stroke="none"/>
      <path fill="none" d="M208.7852 379.0898 L208.7852 389.5898 L283.0473 420.7191 Q284.9803 416.1079 289.5915 418.0409 Q294.2028 419.9738 292.2698 424.5851 L304.9926 429.9182 Q306.9256 425.307 311.5368 427.24 Q316.1481 429.1729 314.2151 433.7841 L349.4921 448.5717 Q351.425 443.9604 356.0363 445.8934 Q360.6476 447.8263 358.7146 452.4376 L407.1541 472.7426 L407.1541 480.2123" clip-path="url(#clipPath2)"/>
      <path d="M407.1541 488.2123 L412.1541 476.2123 L407.1541 479.2123 L402.1541 476.2123 Z" clip-path="url(#clipPath2)" stroke="none"/>
      <path fill="none" d="M621.7695 518.2426 L621.7695 528.7426 L312.3224 611.6044 L312.3224 619.0741" clip-path="url(#clipPath2)"/>
      <path d="M312.3224 627.0741 L317.3224 615.0741 L312.3224 618.0741 L307.3224 615.0741 Z" clip-path="url(#clipPath2)" stroke="none"/>
      <path fill="none" d="M387.8101 518.2426 L387.8101 528.7426 L245.6125 611.6044 L245.6125 619.0741" clip-path="url(#clipPath2)"/>
      <path d="M245.6125 627.0741 L250.6125 615.0741 L245.6125 618.0741 L240.6125 615.0741 Z" clip-path="url(#clipPath2)" stroke="none"/>
      <path fill="none" d="M634.8841 518.2426 L634.8841 528.7426 L416.1833 611.6044 L416.1833 619.0741" clip-path="url(#clipPath2)"/>
      <path d="M416.1833 627.0741 L421.1833 615.0741 L416.1833 618.0741 L411.1833 615.0741 Z" clip-path="url(#clipPath2)" stroke="none"/>
      <path fill="none" d="M407.1541 518.2426 L407.1541 528.7426 L394.979 584.8686 Q399.8654 585.9286 398.8054 590.8149 L398.8054 590.8149 Q397.7455 595.7013 392.8591 594.6413 L389.1794 611.6044 L389.1794 619.0741" clip-path="url(#clipPath2)"/>
      <path d="M389.1794 627.0741 L394.1794 615.0741 L389.1794 618.0741 L384.1794 615.0741 Z" clip-path="url(#clipPath2)" stroke="none"/>
      <path fill="none" d="M647.9987 518.2426 L647.9987 528.7426 L492.6942 611.6044 L492.6942 619.0741" clip-path="url(#clipPath2)"/>
      <path d="M492.6942 627.0741 L497.6942 615.0741 L492.6942 618.0741 L487.6942 615.0741 Z" clip-path="url(#clipPath2)" stroke="none"/>
      <path fill="none" d="M426.4982 518.2426 L426.4982 528.7426 L448.5463 570.0854 Q452.9581 567.7325 455.3109 572.1443 Q457.6638 576.5562 453.2519 578.909 L459.1736 590.0129 Q463.5854 587.66 465.9383 592.0718 Q468.2911 596.4837 463.8792 598.8365 L470.6884 611.6044 L470.6884 619.0741" clip-path="url(#clipPath2)"/>
      <path d="M470.6884 627.0741 L475.6884 615.0741 L470.6884 618.0741 L465.6884 615.0741 Z" clip-path="url(#clipPath2)" stroke="none"/>
      <path fill="none" d="M661.1132 518.2426 L661.1132 528.7426 L563.7048 611.6044 L563.7048 619.0741" clip-path="url(#clipPath2)"/>
      <path d="M563.7048 627.0741 L568.7048 615.0741 L563.7048 618.0741 L558.7048 615.0741 Z" clip-path="url(#clipPath2)" stroke="none"/>
      <path fill="none" d="M445.8423 518.2426 L445.8423 528.7426 L484.2942 561.3021 Q487.5252 557.4863 491.341 560.7173 Q495.1568 563.9484 491.9258 567.7642 L500.465 574.9948 Q503.696 571.179 507.5118 574.41 Q511.3276 577.6411 508.0965 581.4569 L520.1683 591.6788 Q523.3994 587.863 527.2151 591.0941 Q531.0309 594.3251 527.7999 598.1409 L543.7 611.6044 L543.7 619.0741" clip-path="url(#clipPath2)"/>
      <path d="M543.7 627.0741 L548.7 615.0741 L543.7 618.0741 L538.7 615.0741 Z" clip-path="url(#clipPath2)" stroke="none"/>
      <path fill="none" d="M674.2278 518.2426 L674.2278 619.0778" clip-path="url(#clipPath2)"/>
      <path d="M674.2278 627.0778 L679.2278 615.0778 L674.2278 618.0778 L669.2278 615.0778 Z" clip-path="url(#clipPath2)" stroke="none"/>
      <path fill="none" d="M465.1863 518.2426 L465.1863 528.7426 L514.5463 553.9855 Q516.8229 549.5339 521.2745 551.8105 Q525.7262 554.087 523.4496 558.5387 L532.9535 563.399 Q535.23 558.9474 539.6817 561.224 Q544.1334 563.5005 541.8568 567.9522 L554.0775 574.202 Q556.3541 569.7503 560.8057 572.0269 Q565.2574 574.3035 562.9808 578.7551 L583.0985 589.0435 Q585.3751 584.5918 589.8268 586.8683 Q594.2784 589.145 592.0018 593.5966 L627.2142 611.6044 L627.2142 619.0741" clip-path="url(#clipPath2)"/>
      <path d="M627.2142 627.0741 L632.2142 615.0741 L627.2142 618.0741 L622.2142 615.0741 Z" clip-path="url(#clipPath2)" stroke="none"/>
      <path fill="none" d="M687.3424 518.2426 L687.3424 528.7426 L792.7581 611.6044 L792.7581 619.0741" clip-path="url(#clipPath2)"/>
      <path d="M792.7581 627.0741 L797.7581 615.0741 L792.7581 618.0741 L787.7581 615.0741 Z" clip-path="url(#clipPath2)" stroke="none"/>
      <path fill="none" d="M484.5304 518.2426 L484.5304 528.7426 L543.0531 547.0502 Q544.5459 542.2782 549.3178 543.7711 Q554.0898 545.2639 552.597 550.0358 L562.1141 553.013 Q563.6069 548.2411 568.3789 549.7339 Q573.1508 551.2267 571.658 555.9987 L582.8071 559.4864 Q584.2999 554.7144 589.0718 556.2072 Q593.8438 557.7 592.351 562.472 L608.8633 567.6375 Q610.3561 562.8656 615.1281 564.3584 Q619.9001 565.8512 618.4073 570.6231 L669.4559 586.5926 Q670.9487 581.8207 675.7206 583.3135 Q680.4926 584.8063 678.9998 589.5782 L749.4094 611.6044 L749.4094 619.0741" clip-path="url(#clipPath2)"/>
      <path d="M749.4094 627.0741 L754.4094 615.0741 L749.4094 618.0741 L744.4094 615.0741 Z" clip-path="url(#clipPath2)" stroke="none"/>
      <path fill="none" d="M560.8764 301.0898 L560.8764 311.5898 L634.8842 333.5898 L634.8842 341.0595" clip-path="url(#clipPath2)"/>
      <path d="M634.8842 349.0595 L639.8842 337.0595 L634.8842 340.0595 L629.8842 337.0595 Z" clip-path="url(#clipPath2)" stroke="none"/>
      <path fill="none" d="M634.8842 379.0898 L634.8841 480.2159" clip-path="url(#clipPath2)"/>
      <path d="M634.8841 488.2159 L639.8841 476.2159 L634.8841 479.2159 L629.8841 476.2159 Z" clip-path="url(#clipPath2)" stroke="none"/>
      <path fill="none" d="M550.5395 301.0898 L550.5393 341.0429" clip-path="url(#clipPath2)"/>
      <path d="M550.5393 349.0429 L555.5393 337.0429 L550.5393 340.0429 L545.5393 337.0429 Z" clip-path="url(#clipPath2)" stroke="none"/>
      <path fill="none" d="M761.1068 301.0898 L761.1068 341.0429" clip-path="url(#clipPath2)"/>
      <path d="M761.1068 349.0429 L766.1068 337.0429 L761.1068 340.0429 L756.1068 337.0429 Z" clip-path="url(#clipPath2)" stroke="none"/>
      <path fill="none" d="M761.1068 379.0898 L761.1068 389.5898 L674.2278 472.7426 L674.2278 480.2123" clip-path="url(#clipPath2)"/>
      <path d="M674.2278 488.2123 L679.2278 476.2123 L674.2278 479.2123 L669.2278 476.2123 Z" clip-path="url(#clipPath2)" stroke="none"/>
    </g>
  </g>
</svg>
