<?xml version="1.0" encoding="UTF-8"?><svg xmlns="http://www.w3.org/2000/svg" xmlns:xlink="http://www.w3.org/1999/xlink" fill-opacity="1" color-rendering="auto" color-interpolation="auto" text-rendering="auto" stroke="black" stroke-linecap="square" width="407" stroke-miterlimit="10" shape-rendering="auto" stroke-opacity="1" fill="black" stroke-dasharray="none" font-weight="normal" stroke-width="1" height="322" font-family="'Dialog'" font-style="normal" stroke-linejoin="miter" font-size="12px" stroke-dashoffset="0" image-rendering="auto">
  <!--Generated by ySVG 2.5-->
  <defs id="genericDefs"/>
  <g>
    <defs id="defs1">
      <clipPath clipPathUnits="userSpaceOnUse" id="clipPath1">
        <path d="M0 0 L407 0 L407 322 L0 322 L0 0 Z"/>
      </clipPath>
      <clipPath clipPathUnits="userSpaceOnUse" id="clipPath2">
        <path d="M5 -15 L412 -15 L412 307 L5 307 L5 -15 Z"/>
      </clipPath>
    </defs>
    <g fill="white" text-rendering="geometricPrecision" shape-rendering="geometricPrecision" transform="translate(-5,15)" stroke="white">
      <rect x="5" width="407" height="322" y="-15" clip-path="url(#clipPath2)" stroke="none"/>
    </g>
    <g fill="rgb(255,204,0)" text-rendering="geometricPrecision" shape-rendering="geometricPrecision" transform="matrix(1,0,0,1,-5,15)" stroke="rgb(255,204,0)">
      <rect x="328.0965" y="173.1031" clip-path="url(#clipPath2)" width="61.3613" rx="4" ry="4" height="30" stroke="none"/>
    </g>
    <g text-rendering="geometricPrecision" stroke-miterlimit="1.45" shape-rendering="geometricPrecision" transform="matrix(1,0,0,1,-5,15)" stroke-linecap="butt">
      <rect x="328.0965" y="173.1031" clip-path="url(#clipPath2)" fill="none" width="61.3613" rx="4" ry="4" height="30"/>
      <text x="335.0965" xml:space="preserve" y="192.817" clip-path="url(#clipPath2)" font-family="sans-serif" stroke="none">Ancharia</text>
    </g>
    <g fill="rgb(255,204,0)" text-rendering="geometricPrecision" shape-rendering="geometricPrecision" transform="matrix(1,0,0,1,-5,15)" stroke="rgb(255,204,0)">
      <rect x="279.2436" y="261.9081" clip-path="url(#clipPath2)" width="106.0449" rx="4" ry="4" height="30" stroke="none"/>
    </g>
    <g text-rendering="geometricPrecision" stroke-miterlimit="1.45" shape-rendering="geometricPrecision" transform="matrix(1,0,0,1,-5,15)" stroke-linecap="butt">
      <rect x="279.2436" y="261.9081" clip-path="url(#clipPath2)" fill="none" width="106.0449" rx="4" ry="4" height="30"/>
      <text x="286.2436" xml:space="preserve" y="281.622" clip-path="url(#clipPath2)" font-family="sans-serif" stroke="none">Octavia the Elder</text>
    </g>
    <g fill="rgb(255,204,0)" text-rendering="geometricPrecision" shape-rendering="geometricPrecision" transform="matrix(1,0,0,1,-5,15)" stroke="rgb(255,204,0)">
      <rect x="53.9903" y="173.1031" clip-path="url(#clipPath2)" width="34.6777" rx="4" ry="4" height="30" stroke="none"/>
    </g>
    <g text-rendering="geometricPrecision" stroke-miterlimit="1.45" shape-rendering="geometricPrecision" transform="matrix(1,0,0,1,-5,15)" stroke-linecap="butt">
      <rect x="53.9903" y="173.1031" clip-path="url(#clipPath2)" fill="none" width="34.6777" rx="4" ry="4" height="30"/>
      <text x="60.9903" xml:space="preserve" y="192.817" clip-path="url(#clipPath2)" font-family="sans-serif" stroke="none">Atia</text>
    </g>
    <g fill="rgb(255,204,0)" text-rendering="geometricPrecision" shape-rendering="geometricPrecision" transform="matrix(1,0,0,1,-5,15)" stroke="rgb(255,204,0)">
      <rect x="31.8095" y="261.9081" clip-path="url(#clipPath2)" width="123.4004" rx="4" ry="4" height="30" stroke="none"/>
    </g>
    <g text-rendering="geometricPrecision" stroke-miterlimit="1.45" shape-rendering="geometricPrecision" transform="matrix(1,0,0,1,-5,15)" stroke-linecap="butt">
      <rect x="31.8095" y="261.9081" clip-path="url(#clipPath2)" fill="none" width="123.4004" rx="4" ry="4" height="30"/>
      <text x="38.8095" xml:space="preserve" y="281.622" clip-path="url(#clipPath2)" font-family="sans-serif" stroke="none">Octavia the Younger</text>
    </g>
    <g fill="rgb(255,204,0)" text-rendering="geometricPrecision" shape-rendering="geometricPrecision" transform="matrix(1,0,0,1,-5,15)" stroke="rgb(255,204,0)">
      <rect x="185.2102" y="261.9081" clip-path="url(#clipPath2)" width="64.0332" rx="4" ry="4" height="30" stroke="none"/>
    </g>
    <g text-rendering="geometricPrecision" stroke-miterlimit="1.45" shape-rendering="geometricPrecision" transform="matrix(1,0,0,1,-5,15)" stroke-linecap="butt">
      <rect x="185.2102" y="261.9081" clip-path="url(#clipPath2)" fill="none" width="64.0332" rx="4" ry="4" height="30"/>
      <text x="192.2102" xml:space="preserve" y="281.622" clip-path="url(#clipPath2)" font-family="sans-serif" stroke="none">Augustus</text>
    </g>
    <g fill="rgb(255,204,0)" text-rendering="geometricPrecision" shape-rendering="geometricPrecision" transform="matrix(1,0,0,1,-5,15)" stroke="rgb(255,204,0)">
      <rect x="122.0199" y="90.6757" clip-path="url(#clipPath2)" width="123.377" rx="4" ry="4" height="30" stroke="none"/>
    </g>
    <g text-rendering="geometricPrecision" stroke-miterlimit="1.45" shape-rendering="geometricPrecision" transform="matrix(1,0,0,1,-5,15)" stroke-linecap="butt">
      <rect x="122.0199" y="90.6757" clip-path="url(#clipPath2)" fill="none" width="123.377" rx="4" ry="4" height="30"/>
      <text x="129.0199" xml:space="preserve" y="110.3896" clip-path="url(#clipPath2)" font-family="sans-serif" stroke="none">Marcus Atius Balbus</text>
    </g>
    <g fill="rgb(255,204,0)" text-rendering="geometricPrecision" shape-rendering="geometricPrecision" transform="matrix(1,0,0,1,-5,15)" stroke="rgb(255,204,0)">
      <rect x="20.0002" y="90.6757" clip-path="url(#clipPath2)" width="72.0195" rx="4" ry="4" height="30" stroke="none"/>
    </g>
    <g text-rendering="geometricPrecision" stroke-miterlimit="1.45" shape-rendering="geometricPrecision" transform="matrix(1,0,0,1,-5,15)" stroke-linecap="butt">
      <rect x="20.0002" y="90.6757" clip-path="url(#clipPath2)" fill="none" width="72.0195" rx="4" ry="4" height="30"/>
      <text x="27.0002" xml:space="preserve" y="110.3896" clip-path="url(#clipPath2)" font-family="sans-serif" stroke="none">Julia Minor</text>
    </g>
    <g fill="rgb(255,204,0)" text-rendering="geometricPrecision" shape-rendering="geometricPrecision" transform="matrix(1,0,0,1,-5,15)" stroke="rgb(255,204,0)">
      <rect x="185.5442" y="0" clip-path="url(#clipPath2)" width="20.6738" rx="4" ry="4" height="30" stroke="none"/>
    </g>
    <g text-rendering="geometricPrecision" stroke-miterlimit="1.45" shape-rendering="geometricPrecision" transform="matrix(1,0,0,1,-5,15)" stroke-linecap="butt">
      <rect x="185.5442" y="0" clip-path="url(#clipPath2)" fill="none" width="20.6738" rx="4" ry="4" height="30"/>
      <text x="192.5442" xml:space="preserve" y="19.7139" clip-path="url(#clipPath2)" font-family="sans-serif" stroke="none">?</text>
    </g>
    <g fill="rgb(255,204,0)" text-rendering="geometricPrecision" shape-rendering="geometricPrecision" transform="matrix(1,0,0,1,-5,15)" stroke="rgb(255,204,0)">
      <rect x="275.3969" y="90.6757" clip-path="url(#clipPath2)" width="120.7109" rx="4" ry="4" height="30" stroke="none"/>
    </g>
    <g text-rendering="geometricPrecision" stroke-miterlimit="1.45" shape-rendering="geometricPrecision" transform="matrix(1,0,0,1,-5,15)" stroke-linecap="butt">
      <rect x="275.3969" y="90.6757" clip-path="url(#clipPath2)" fill="none" width="120.7109" rx="4" ry="4" height="30"/>
      <text x="282.3969" xml:space="preserve" y="110.3896" clip-path="url(#clipPath2)" font-family="sans-serif" stroke="none">Caius Julius Caesar</text>
    </g>
    <g fill="rgb(255,204,0)" text-rendering="geometricPrecision" shape-rendering="geometricPrecision" transform="matrix(1,0,0,1,-5,15)" stroke="rgb(255,204,0)">
      <rect x="185.8875" y="173.1031" clip-path="url(#clipPath2)" width="94.6953" rx="4" ry="4" height="30" stroke="none"/>
    </g>
    <g text-rendering="geometricPrecision" stroke-miterlimit="1.45" shape-rendering="geometricPrecision" transform="matrix(1,0,0,1,-5,15)" stroke-linecap="butt">
      <rect x="185.8875" y="173.1031" clip-path="url(#clipPath2)" fill="none" width="94.6953" rx="4" ry="4" height="30"/>
      <text x="192.8875" xml:space="preserve" y="192.817" clip-path="url(#clipPath2)" font-family="sans-serif" stroke="none">Caius Octavius</text>
      <path fill="none" d="M358.7772 203.1031 L358.7773 253.8794" clip-path="url(#clipPath2)"/>
      <path d="M358.7773 261.8794 L363.7773 249.8793 L358.7773 252.8794 L353.7773 249.8794 Z" clip-path="url(#clipPath2)" stroke="none"/>
      <path fill="none" d="M62.6597 203.1031 L62.6596 253.8794" clip-path="url(#clipPath2)"/>
      <path d="M62.6596 261.8794 L67.6596 249.8794 L62.6596 252.8794 L57.6596 249.8793 Z" clip-path="url(#clipPath2)" stroke="none"/>
      <path fill="none" d="M79.9986 203.1031 L79.9986 213.6031 L201.2185 246.4081 L201.2185 253.8778" clip-path="url(#clipPath2)"/>
      <path d="M201.2185 261.8778 L206.2185 249.8778 L201.2185 252.8778 L196.2185 249.8778 Z" clip-path="url(#clipPath2)" stroke="none"/>
      <path fill="none" d="M183.7083 120.6757 L183.7083 131.1757 L79.9986 157.6031 L79.9986 165.0729" clip-path="url(#clipPath2)"/>
      <path d="M79.9986 173.0729 L84.9986 161.0729 L79.9986 164.0729 L74.9986 161.0729 Z" clip-path="url(#clipPath2)" stroke="none"/>
      <path fill="none" d="M56.0099 120.6757 L56.0099 131.1757 L62.6597 157.6031 L62.6597 165.0729" clip-path="url(#clipPath2)"/>
      <path d="M62.6597 173.0729 L67.6597 161.0729 L62.6597 164.0729 L57.6597 161.0729 Z" clip-path="url(#clipPath2)" stroke="none"/>
      <path fill="none" d="M190.7127 30 L190.7127 40.5 L56.0099 75.1757 L56.0099 82.6454" clip-path="url(#clipPath2)"/>
      <path d="M56.0099 90.6454 L61.0099 78.6454 L56.0099 81.6454 L51.0099 78.6454 Z" clip-path="url(#clipPath2)" stroke="none"/>
      <path fill="none" d="M201.0496 30 L201.0496 40.5 L335.7524 75.1757 L335.7524 82.6454" clip-path="url(#clipPath2)"/>
      <path d="M335.7524 90.6454 L340.7524 78.6454 L335.7524 81.6454 L330.7524 78.6454 Z" clip-path="url(#clipPath2)" stroke="none"/>
      <path fill="none" d="M264.8002 203.1031 L264.8002 213.6031 L305.7549 246.4081 L305.7549 253.8778" clip-path="url(#clipPath2)"/>
      <path d="M305.7549 261.8778 L310.7549 249.8778 L305.7549 252.8778 L300.7549 249.8778 Z" clip-path="url(#clipPath2)" stroke="none"/>
      <path fill="none" d="M201.67 203.1031 L201.67 213.6031 L158.8923 231.7549 Q156.9393 227.1522 152.3365 229.1053 Q147.7337 231.0583 149.6868 235.6611 L124.3598 246.4081 L124.3598 253.8778" clip-path="url(#clipPath2)"/>
      <path d="M124.3598 261.8778 L129.3598 249.8778 L124.3598 252.8778 L119.3598 249.8778 Z" clip-path="url(#clipPath2)" stroke="none"/>
      <path fill="none" d="M233.2351 203.1031 L233.2351 253.8794" clip-path="url(#clipPath2)"/>
      <path d="M233.2351 261.8794 L238.2351 249.8794 L233.2351 252.8794 L228.2351 249.8794 Z" clip-path="url(#clipPath2)" stroke="none"/>
    </g>
  </g>
</svg>
